G75*
G70*
%OFA0B0*%
%FSLAX24Y24*%
%IPPOS*%
%LPD*%
%AMOC8*
5,1,8,0,0,1.08239X$1,22.5*
%
%ADD10C,0.0000*%
%ADD11R,0.0000X0.0000*%
%ADD12C,0.0520*%
%ADD13R,0.0394X0.0098*%
%ADD14R,0.0098X0.0394*%
%ADD15R,0.0396X0.0067*%
%ADD16R,0.0067X0.0396*%
%ADD17R,0.0787X0.0787*%
%ADD18OC8,0.0630*%
%ADD19R,0.0827X0.0827*%
%ADD20OC8,0.0520*%
%ADD21C,0.0200*%
%ADD22C,0.0060*%
%ADD23R,0.0100X0.0200*%
%ADD24C,0.0600*%
%ADD25R,0.0200X0.0200*%
%ADD26R,0.0630X0.0591*%
%ADD27C,0.0080*%
%ADD28R,0.0394X0.0551*%
%ADD29R,0.0180X0.0230*%
%ADD30C,0.0560*%
%ADD31R,0.0240X0.0240*%
%ADD32OC8,0.0594*%
%ADD33R,0.0236X0.0866*%
%ADD34R,0.0193X0.0433*%
%ADD35C,0.0554*%
%ADD36R,0.0197X0.0197*%
%ADD37C,0.0660*%
%ADD38C,0.1300*%
%ADD39C,0.0740*%
%ADD40C,0.1266*%
%ADD41C,0.0040*%
%ADD42C,0.0118*%
%ADD43C,0.0295*%
%ADD44OC8,0.0866*%
%ADD45OC8,0.0906*%
D10*
X000101Y000282D02*
X000101Y023956D01*
X046071Y023956D01*
X046071Y000282D01*
X000101Y000282D01*
X038711Y001991D02*
X038713Y002039D01*
X038719Y002087D01*
X038729Y002134D01*
X038742Y002180D01*
X038760Y002225D01*
X038780Y002269D01*
X038805Y002311D01*
X038833Y002350D01*
X038863Y002387D01*
X038897Y002421D01*
X038934Y002453D01*
X038972Y002482D01*
X039013Y002507D01*
X039056Y002529D01*
X039101Y002547D01*
X039147Y002561D01*
X039194Y002572D01*
X039242Y002579D01*
X039290Y002582D01*
X039338Y002581D01*
X039386Y002576D01*
X039434Y002567D01*
X039480Y002555D01*
X039525Y002538D01*
X039569Y002518D01*
X039611Y002495D01*
X039651Y002468D01*
X039689Y002438D01*
X039724Y002405D01*
X039756Y002369D01*
X039786Y002331D01*
X039812Y002290D01*
X039834Y002247D01*
X039854Y002203D01*
X039869Y002158D01*
X039881Y002111D01*
X039889Y002063D01*
X039893Y002015D01*
X039893Y001967D01*
X039889Y001919D01*
X039881Y001871D01*
X039869Y001824D01*
X039854Y001779D01*
X039834Y001735D01*
X039812Y001692D01*
X039786Y001651D01*
X039756Y001613D01*
X039724Y001577D01*
X039689Y001544D01*
X039651Y001514D01*
X039611Y001487D01*
X039569Y001464D01*
X039525Y001444D01*
X039480Y001427D01*
X039434Y001415D01*
X039386Y001406D01*
X039338Y001401D01*
X039290Y001400D01*
X039242Y001403D01*
X039194Y001410D01*
X039147Y001421D01*
X039101Y001435D01*
X039056Y001453D01*
X039013Y001475D01*
X038972Y001500D01*
X038934Y001529D01*
X038897Y001561D01*
X038863Y001595D01*
X038833Y001632D01*
X038805Y001671D01*
X038780Y001713D01*
X038760Y001757D01*
X038742Y001802D01*
X038729Y001848D01*
X038719Y001895D01*
X038713Y001943D01*
X038711Y001991D01*
X044723Y009596D02*
X044725Y009625D01*
X044731Y009653D01*
X044740Y009681D01*
X044753Y009707D01*
X044770Y009730D01*
X044789Y009752D01*
X044811Y009771D01*
X044836Y009786D01*
X044862Y009799D01*
X044890Y009807D01*
X044918Y009812D01*
X044947Y009813D01*
X044976Y009810D01*
X045004Y009803D01*
X045031Y009793D01*
X045057Y009779D01*
X045080Y009762D01*
X045101Y009742D01*
X045119Y009719D01*
X045134Y009694D01*
X045145Y009667D01*
X045153Y009639D01*
X045157Y009610D01*
X045157Y009582D01*
X045153Y009553D01*
X045145Y009525D01*
X045134Y009498D01*
X045119Y009473D01*
X045101Y009450D01*
X045080Y009430D01*
X045057Y009413D01*
X045031Y009399D01*
X045004Y009389D01*
X044976Y009382D01*
X044947Y009379D01*
X044918Y009380D01*
X044890Y009385D01*
X044862Y009393D01*
X044836Y009406D01*
X044811Y009421D01*
X044789Y009440D01*
X044770Y009462D01*
X044753Y009485D01*
X044740Y009511D01*
X044731Y009539D01*
X044725Y009567D01*
X044723Y009596D01*
X044723Y011368D02*
X044725Y011397D01*
X044731Y011425D01*
X044740Y011453D01*
X044753Y011479D01*
X044770Y011502D01*
X044789Y011524D01*
X044811Y011543D01*
X044836Y011558D01*
X044862Y011571D01*
X044890Y011579D01*
X044918Y011584D01*
X044947Y011585D01*
X044976Y011582D01*
X045004Y011575D01*
X045031Y011565D01*
X045057Y011551D01*
X045080Y011534D01*
X045101Y011514D01*
X045119Y011491D01*
X045134Y011466D01*
X045145Y011439D01*
X045153Y011411D01*
X045157Y011382D01*
X045157Y011354D01*
X045153Y011325D01*
X045145Y011297D01*
X045134Y011270D01*
X045119Y011245D01*
X045101Y011222D01*
X045080Y011202D01*
X045057Y011185D01*
X045031Y011171D01*
X045004Y011161D01*
X044976Y011154D01*
X044947Y011151D01*
X044918Y011152D01*
X044890Y011157D01*
X044862Y011165D01*
X044836Y011178D01*
X044811Y011193D01*
X044789Y011212D01*
X044770Y011234D01*
X044753Y011257D01*
X044740Y011283D01*
X044731Y011311D01*
X044725Y011339D01*
X044723Y011368D01*
X038711Y020574D02*
X038713Y020622D01*
X038719Y020670D01*
X038729Y020717D01*
X038742Y020763D01*
X038760Y020808D01*
X038780Y020852D01*
X038805Y020894D01*
X038833Y020933D01*
X038863Y020970D01*
X038897Y021004D01*
X038934Y021036D01*
X038972Y021065D01*
X039013Y021090D01*
X039056Y021112D01*
X039101Y021130D01*
X039147Y021144D01*
X039194Y021155D01*
X039242Y021162D01*
X039290Y021165D01*
X039338Y021164D01*
X039386Y021159D01*
X039434Y021150D01*
X039480Y021138D01*
X039525Y021121D01*
X039569Y021101D01*
X039611Y021078D01*
X039651Y021051D01*
X039689Y021021D01*
X039724Y020988D01*
X039756Y020952D01*
X039786Y020914D01*
X039812Y020873D01*
X039834Y020830D01*
X039854Y020786D01*
X039869Y020741D01*
X039881Y020694D01*
X039889Y020646D01*
X039893Y020598D01*
X039893Y020550D01*
X039889Y020502D01*
X039881Y020454D01*
X039869Y020407D01*
X039854Y020362D01*
X039834Y020318D01*
X039812Y020275D01*
X039786Y020234D01*
X039756Y020196D01*
X039724Y020160D01*
X039689Y020127D01*
X039651Y020097D01*
X039611Y020070D01*
X039569Y020047D01*
X039525Y020027D01*
X039480Y020010D01*
X039434Y019998D01*
X039386Y019989D01*
X039338Y019984D01*
X039290Y019983D01*
X039242Y019986D01*
X039194Y019993D01*
X039147Y020004D01*
X039101Y020018D01*
X039056Y020036D01*
X039013Y020058D01*
X038972Y020083D01*
X038934Y020112D01*
X038897Y020144D01*
X038863Y020178D01*
X038833Y020215D01*
X038805Y020254D01*
X038780Y020296D01*
X038760Y020340D01*
X038742Y020385D01*
X038729Y020431D01*
X038719Y020478D01*
X038713Y020526D01*
X038711Y020574D01*
D11*
X000101Y010518D03*
D12*
X013471Y011015D02*
X013991Y011015D01*
X013991Y010015D02*
X013471Y010015D01*
X013471Y009015D02*
X013991Y009015D01*
X013991Y008015D02*
X013471Y008015D01*
X013471Y007015D02*
X013991Y007015D01*
X016471Y007015D02*
X016991Y007015D01*
X016991Y008015D02*
X016471Y008015D01*
X016471Y009015D02*
X016991Y009015D01*
X016991Y010015D02*
X016471Y010015D01*
X016471Y011015D02*
X016991Y011015D01*
X016991Y012015D02*
X016471Y012015D01*
X016471Y013015D02*
X016991Y013015D01*
X016991Y014015D02*
X016471Y014015D01*
X013991Y014015D02*
X013471Y014015D01*
X013471Y013015D02*
X013991Y013015D01*
X013991Y012015D02*
X013471Y012015D01*
X015470Y016203D02*
X015470Y016723D01*
X016470Y016723D02*
X016470Y016203D01*
X017470Y016203D02*
X017470Y016723D01*
X018470Y016723D02*
X018470Y016203D01*
X019470Y016203D02*
X019470Y016723D01*
X020470Y016723D02*
X020470Y016203D01*
X021470Y016203D02*
X021470Y016723D01*
X022470Y016723D02*
X022470Y016203D01*
X025855Y016075D02*
X025855Y016595D01*
X026855Y016595D02*
X026855Y016075D01*
X027855Y016075D02*
X027855Y016595D01*
X028855Y016595D02*
X028855Y016075D01*
X029855Y016075D02*
X029855Y016595D01*
X030855Y016595D02*
X030855Y016075D01*
X031855Y016075D02*
X031855Y016595D01*
X032855Y016595D02*
X032855Y016075D01*
X032855Y019075D02*
X032855Y019595D01*
X031855Y019595D02*
X031855Y019075D01*
X030855Y019075D02*
X030855Y019595D01*
X029855Y019595D02*
X029855Y019075D01*
X028855Y019075D02*
X028855Y019595D01*
X027855Y019595D02*
X027855Y019075D01*
X026855Y019075D02*
X026855Y019595D01*
X025855Y019595D02*
X025855Y019075D01*
X022470Y019203D02*
X022470Y019723D01*
X021470Y019723D02*
X021470Y019203D01*
X020470Y019203D02*
X020470Y019723D01*
X019470Y019723D02*
X019470Y019203D01*
X018470Y019203D02*
X018470Y019723D01*
X017470Y019723D02*
X017470Y019203D01*
X016470Y019203D02*
X016470Y019723D01*
X015470Y019723D02*
X015470Y019203D01*
D13*
X010195Y011559D03*
X010195Y011362D03*
X010195Y011165D03*
X010195Y010968D03*
X010195Y010771D03*
X010195Y010574D03*
X010195Y010377D03*
X010195Y010181D03*
X010195Y009984D03*
X010195Y009787D03*
X010195Y009590D03*
X010195Y009393D03*
X010195Y009196D03*
X010195Y009000D03*
X010195Y008803D03*
X010195Y008606D03*
X005707Y008606D03*
X005707Y008803D03*
X005707Y009000D03*
X005707Y009196D03*
X005707Y009393D03*
X005707Y009590D03*
X005707Y009787D03*
X005707Y009984D03*
X005707Y010181D03*
X005707Y010377D03*
X005707Y010574D03*
X005707Y010771D03*
X005707Y010968D03*
X005707Y011165D03*
X005707Y011362D03*
X005707Y011559D03*
D14*
X006474Y012326D03*
X006671Y012326D03*
X006868Y012326D03*
X007065Y012326D03*
X007262Y012326D03*
X007459Y012326D03*
X007656Y012326D03*
X007852Y012326D03*
X008049Y012326D03*
X008246Y012326D03*
X008443Y012326D03*
X008640Y012326D03*
X008837Y012326D03*
X009033Y012326D03*
X009230Y012326D03*
X009427Y012326D03*
X009427Y007838D03*
X009230Y007838D03*
X009033Y007838D03*
X008837Y007838D03*
X008640Y007838D03*
X008443Y007838D03*
X008246Y007838D03*
X008049Y007838D03*
X007852Y007838D03*
X007656Y007838D03*
X007459Y007838D03*
X007262Y007838D03*
X007065Y007838D03*
X006868Y007838D03*
X006671Y007838D03*
X006474Y007838D03*
D15*
X005747Y008606D03*
X005747Y008803D03*
X005747Y009000D03*
X005747Y009196D03*
X005747Y009393D03*
X005747Y009590D03*
X005747Y009787D03*
X005747Y009984D03*
X005747Y010181D03*
X005747Y010377D03*
X005747Y010574D03*
X005747Y010771D03*
X005747Y010968D03*
X005747Y011165D03*
X005747Y011362D03*
X005747Y011559D03*
X010155Y011559D03*
X010155Y011362D03*
X010155Y011165D03*
X010155Y010968D03*
X010155Y010771D03*
X010155Y010574D03*
X010155Y010377D03*
X010155Y010181D03*
X010155Y009984D03*
X010155Y009787D03*
X010155Y009590D03*
X010155Y009393D03*
X010155Y009196D03*
X010155Y009000D03*
X010155Y008803D03*
X010155Y008606D03*
D16*
X009427Y007878D03*
X009230Y007878D03*
X009033Y007878D03*
X008837Y007878D03*
X008640Y007878D03*
X008443Y007878D03*
X008246Y007878D03*
X008049Y007878D03*
X007852Y007878D03*
X007656Y007878D03*
X007459Y007878D03*
X007262Y007878D03*
X007065Y007878D03*
X006868Y007878D03*
X006671Y007878D03*
X006474Y007878D03*
X006474Y012286D03*
X006671Y012286D03*
X006868Y012286D03*
X007065Y012286D03*
X007262Y012286D03*
X007459Y012286D03*
X007656Y012286D03*
X007852Y012286D03*
X008049Y012286D03*
X008246Y012286D03*
X008443Y012286D03*
X008640Y012286D03*
X008837Y012286D03*
X009033Y012286D03*
X009230Y012286D03*
X009427Y012286D03*
D17*
X009132Y011263D03*
X008541Y011263D03*
X007951Y011263D03*
X007360Y011263D03*
X006770Y011263D03*
X006770Y010673D03*
X007360Y010673D03*
X007951Y010673D03*
X008541Y010673D03*
X009132Y010673D03*
X009132Y010082D03*
X008541Y010082D03*
X007951Y010082D03*
X007360Y010082D03*
X006770Y010082D03*
X006770Y009492D03*
X007360Y009492D03*
X007951Y009492D03*
X008541Y009492D03*
X009132Y009492D03*
X009132Y008901D03*
X008541Y008901D03*
X007951Y008901D03*
X007360Y008901D03*
X006770Y008901D03*
D18*
X008287Y002876D03*
X010287Y002876D03*
X012749Y002074D03*
X014749Y002074D03*
X010305Y001410D03*
X008305Y001410D03*
X007257Y016240D03*
X007257Y018240D03*
X013087Y018337D03*
X013087Y016337D03*
D19*
X037318Y017070D03*
X039483Y017070D03*
X039483Y015416D03*
X037318Y015416D03*
X037318Y013763D03*
X039483Y013763D03*
X039483Y012109D03*
X037318Y012109D03*
X037318Y010455D03*
X039483Y010455D03*
X039483Y008802D03*
X037318Y008802D03*
X037318Y007148D03*
X039483Y007148D03*
X039483Y005495D03*
X037318Y005495D03*
X037318Y003841D03*
X039483Y003841D03*
X039483Y018723D03*
X037318Y018723D03*
D20*
X017420Y004443D03*
X015420Y004443D03*
X005501Y014382D03*
X003501Y014382D03*
X003501Y015482D03*
X005501Y015482D03*
D21*
X005301Y015482D01*
X003701Y015482D02*
X003501Y015482D01*
X003501Y014382D02*
X003701Y014382D01*
X005301Y014382D02*
X005501Y014382D01*
X015420Y004443D02*
X015620Y004443D01*
X017220Y004443D02*
X017420Y004443D01*
D22*
X017120Y004193D02*
X017120Y004693D01*
X015720Y004693D02*
X015720Y004193D01*
X008914Y004537D02*
X007794Y004537D01*
X007794Y005057D01*
X008914Y005057D01*
X008914Y004537D01*
X005201Y014132D02*
X005201Y014632D01*
X003801Y014632D02*
X003801Y014132D01*
X003801Y015232D02*
X003801Y015732D01*
X005201Y015732D02*
X005201Y015232D01*
D23*
X005251Y015482D03*
X003751Y015482D03*
X003751Y014382D03*
X005251Y014382D03*
X015670Y004443D03*
X017170Y004443D03*
D24*
X002001Y003482D02*
X001401Y003482D01*
X001401Y002482D02*
X002001Y002482D01*
X001901Y006382D02*
X001301Y006382D01*
X001301Y007382D02*
X001901Y007382D01*
X001901Y010382D02*
X001301Y010382D01*
X001301Y011382D02*
X001901Y011382D01*
X001901Y014482D02*
X001301Y014482D01*
X001301Y015482D02*
X001901Y015482D01*
D25*
X001601Y015482D03*
X001601Y014482D03*
X001601Y011382D03*
X001601Y010382D03*
X001601Y007382D03*
X001601Y006382D03*
X001701Y003482D03*
X001701Y002482D03*
D26*
X011600Y004066D03*
X013608Y004066D03*
X013608Y005562D03*
X011600Y005562D03*
D27*
X011265Y005759D02*
X011265Y003869D01*
X013943Y003869D01*
X013943Y005759D01*
X011265Y005759D01*
X011035Y016607D02*
X009145Y016607D01*
X009145Y016803D01*
X011035Y016803D01*
X011035Y016607D01*
X011035Y016803D02*
X011035Y018103D01*
X009145Y018103D01*
X009145Y016803D01*
X009258Y021102D02*
X008667Y021102D01*
X008667Y021693D01*
X009258Y021693D01*
X009258Y021102D01*
X009667Y021102D02*
X009667Y021693D01*
X010258Y021693D01*
X010258Y021102D01*
X009667Y021102D01*
X010667Y021102D02*
X010667Y021693D01*
X011258Y021693D01*
X011258Y021102D01*
X010667Y021102D01*
X011667Y021102D02*
X011667Y021693D01*
X012258Y021693D01*
X012258Y021102D01*
X011667Y021102D01*
X012667Y021102D02*
X012667Y021693D01*
X013258Y021693D01*
X013258Y021102D01*
X012667Y021102D01*
X013667Y021102D02*
X013667Y021693D01*
X014258Y021693D01*
X014258Y021102D01*
X013667Y021102D01*
X014667Y021102D02*
X014667Y021693D01*
X015258Y021693D01*
X015258Y021102D01*
X014667Y021102D01*
X015667Y021102D02*
X015667Y021693D01*
X016258Y021693D01*
X016258Y021102D01*
X015667Y021102D01*
X016667Y021102D02*
X016667Y021693D01*
X017258Y021693D01*
X017258Y021102D01*
X016667Y021102D01*
X017667Y021102D02*
X017667Y021693D01*
X018258Y021693D01*
X018258Y021102D01*
X017667Y021102D01*
X018667Y021102D02*
X018667Y021693D01*
X019258Y021693D01*
X019258Y021102D01*
X018667Y021102D01*
X019667Y021102D02*
X019667Y021693D01*
X020258Y021693D01*
X020258Y021102D01*
X019667Y021102D01*
X020667Y021102D02*
X020667Y021693D01*
X021258Y021693D01*
X021258Y021102D01*
X020667Y021102D01*
X021667Y021102D02*
X021667Y021693D01*
X022258Y021693D01*
X022258Y021102D01*
X021667Y021102D01*
X022667Y021102D02*
X022667Y021693D01*
X023258Y021693D01*
X023258Y021102D01*
X022667Y021102D01*
X023667Y021102D02*
X023667Y021693D01*
X024258Y021693D01*
X024258Y021102D01*
X023667Y021102D01*
X024667Y021102D02*
X024667Y021693D01*
X025258Y021693D01*
X025258Y021102D01*
X024667Y021102D01*
X025667Y021102D02*
X025667Y021693D01*
X026258Y021693D01*
X026258Y021102D01*
X025667Y021102D01*
X026667Y021102D02*
X026667Y021693D01*
X027258Y021693D01*
X027258Y021102D01*
X026667Y021102D01*
X027667Y021102D02*
X027667Y021693D01*
X028258Y021693D01*
X028258Y021102D01*
X027667Y021102D01*
X027667Y022102D02*
X027667Y022693D01*
X028258Y022693D01*
X028258Y022102D01*
X027667Y022102D01*
X027258Y022102D02*
X027258Y022693D01*
X026667Y022693D01*
X026667Y022102D01*
X027258Y022102D01*
X026258Y022102D02*
X026258Y022693D01*
X025667Y022693D01*
X025667Y022102D01*
X026258Y022102D01*
X025258Y022102D02*
X025258Y022693D01*
X024667Y022693D01*
X024667Y022102D01*
X025258Y022102D01*
X024258Y022102D02*
X024258Y022693D01*
X023667Y022693D01*
X023667Y022102D01*
X024258Y022102D01*
X023258Y022102D02*
X023258Y022693D01*
X022667Y022693D01*
X022667Y022102D01*
X023258Y022102D01*
X022258Y022102D02*
X022258Y022693D01*
X021667Y022693D01*
X021667Y022102D01*
X022258Y022102D01*
X021258Y022102D02*
X021258Y022693D01*
X020667Y022693D01*
X020667Y022102D01*
X021258Y022102D01*
X020258Y022102D02*
X020258Y022693D01*
X019667Y022693D01*
X019667Y022102D01*
X020258Y022102D01*
X019258Y022102D02*
X019258Y022693D01*
X018667Y022693D01*
X018667Y022102D01*
X019258Y022102D01*
X018258Y022102D02*
X018258Y022693D01*
X017667Y022693D01*
X017667Y022102D01*
X018258Y022102D01*
X017258Y022102D02*
X017258Y022693D01*
X016667Y022693D01*
X016667Y022102D01*
X017258Y022102D01*
X016258Y022102D02*
X016258Y022693D01*
X015667Y022693D01*
X015667Y022102D01*
X016258Y022102D01*
X015258Y022102D02*
X015258Y022693D01*
X014667Y022693D01*
X014667Y022102D01*
X015258Y022102D01*
X014258Y022102D02*
X014258Y022693D01*
X013667Y022693D01*
X013667Y022102D01*
X014258Y022102D01*
X013258Y022102D02*
X013258Y022693D01*
X012667Y022693D01*
X012667Y022102D01*
X013258Y022102D01*
X012258Y022102D02*
X012258Y022693D01*
X011667Y022693D01*
X011667Y022102D01*
X012258Y022102D01*
X011258Y022102D02*
X011258Y022693D01*
X010667Y022693D01*
X010667Y022102D01*
X011258Y022102D01*
X010258Y022102D02*
X010258Y022693D01*
X009667Y022693D01*
X009667Y022102D01*
X010258Y022102D01*
X009258Y022102D02*
X009258Y022693D01*
X008667Y022693D01*
X008667Y022102D01*
X009258Y022102D01*
X008258Y022102D02*
X008258Y022693D01*
X007667Y022693D01*
X007667Y022102D01*
X008258Y022102D01*
X008258Y021693D02*
X007667Y021693D01*
X007667Y021102D01*
X008258Y021102D01*
X008258Y021693D01*
X007258Y021693D02*
X007258Y021102D01*
X006667Y021102D01*
X006667Y021693D01*
X007258Y021693D01*
X007258Y022102D02*
X006667Y022102D01*
X006667Y022693D01*
X007258Y022693D01*
X007258Y022102D01*
X042201Y016282D02*
X042201Y016132D01*
X042201Y016282D02*
X042401Y016482D01*
X043001Y016482D01*
X042901Y016282D02*
X043201Y016282D01*
X043251Y016132D02*
X043601Y016282D01*
X043901Y016282D01*
X043801Y016482D02*
X044401Y016482D01*
X044601Y016282D01*
X044601Y016132D01*
X044601Y014432D02*
X044601Y014282D01*
X044401Y014082D01*
X043801Y014082D01*
X043001Y014082D02*
X042401Y014082D01*
X042201Y014282D01*
X042201Y014432D01*
X046082Y012844D02*
X051909Y012844D01*
X051909Y008120D01*
X046082Y008120D01*
X049310Y008789D02*
X050216Y008789D01*
X050216Y009734D01*
X049310Y009734D01*
X049310Y008789D01*
X049310Y011230D02*
X050216Y011230D01*
X050216Y012175D01*
X049310Y012175D01*
X049310Y011230D01*
X047622Y006159D02*
X046087Y006159D01*
X046087Y001435D01*
X047622Y001435D01*
X047622Y006159D01*
D28*
X008728Y005230D03*
X007980Y005230D03*
X008354Y004364D03*
D29*
X008354Y004402D03*
X008724Y005192D03*
X007984Y005192D03*
D30*
X043001Y018702D02*
X043001Y019262D01*
X044001Y019262D02*
X044001Y018702D01*
D31*
X044001Y018982D03*
X043001Y018982D03*
D32*
X027965Y021400D03*
X026965Y021400D03*
X025965Y021400D03*
X024965Y021400D03*
X023965Y021400D03*
X022965Y021400D03*
X021965Y021400D03*
X020965Y021400D03*
X019965Y021400D03*
X018965Y021400D03*
X017965Y021400D03*
X016965Y021400D03*
X015965Y021400D03*
X014965Y021400D03*
X013965Y021400D03*
X012965Y021400D03*
X011965Y021400D03*
X010965Y021400D03*
X009965Y021400D03*
X008965Y021400D03*
X007965Y021400D03*
X006965Y021400D03*
X006965Y022400D03*
X007965Y022400D03*
X008965Y022400D03*
X009965Y022400D03*
X010965Y022400D03*
X011965Y022400D03*
X012965Y022400D03*
X013965Y022400D03*
X014965Y022400D03*
X015965Y022400D03*
X016965Y022400D03*
X017965Y022400D03*
X018965Y022400D03*
X019965Y022400D03*
X020965Y022400D03*
X021965Y022400D03*
X022965Y022400D03*
X023965Y022400D03*
X024965Y022400D03*
X025965Y022400D03*
X026965Y022400D03*
X027965Y022400D03*
D33*
X010840Y018378D03*
X010340Y018378D03*
X009840Y018378D03*
X009340Y018378D03*
X009340Y016331D03*
X009840Y016331D03*
X010340Y016331D03*
X010840Y016331D03*
D34*
X010840Y016351D03*
X010340Y016351D03*
X009840Y016351D03*
X009340Y016351D03*
X009340Y018359D03*
X009840Y018359D03*
X010340Y018359D03*
X010840Y018359D03*
D35*
X021092Y005360D03*
X021880Y005360D03*
X022667Y005360D03*
X023454Y005360D03*
X023454Y004573D03*
X022667Y004573D03*
X021880Y004573D03*
X021092Y004573D03*
D36*
X021092Y004573D03*
X021880Y004573D03*
X022667Y004573D03*
X023454Y004573D03*
X023454Y005360D03*
X022667Y005360D03*
X021880Y005360D03*
X021092Y005360D03*
D37*
X041921Y004289D03*
X042701Y004289D03*
X042701Y003305D03*
X041921Y003305D03*
D38*
X043771Y001427D03*
X043771Y006167D03*
D39*
X043956Y009104D03*
X043956Y010039D03*
X043956Y010926D03*
X043956Y011860D03*
X044291Y014002D03*
X042511Y014002D03*
X042511Y016562D03*
X044291Y016562D03*
D40*
X044901Y012766D03*
X044901Y008199D03*
D41*
X046456Y008551D02*
X046456Y008782D01*
X046533Y008858D01*
X046686Y008858D01*
X046763Y008782D01*
X046763Y008551D01*
X046916Y008551D02*
X046456Y008551D01*
X046533Y009012D02*
X046840Y009012D01*
X046916Y009088D01*
X046916Y009242D01*
X046840Y009319D01*
X046916Y009472D02*
X046456Y009472D01*
X046456Y009702D01*
X046533Y009779D01*
X046609Y009779D01*
X046686Y009702D01*
X046686Y009472D01*
X046533Y009319D02*
X046456Y009242D01*
X046456Y009088D01*
X046533Y009012D01*
X046916Y009472D02*
X046916Y009702D01*
X046840Y009779D01*
X046763Y009779D01*
X046686Y009702D01*
X046686Y010393D02*
X046686Y010546D01*
X046456Y010393D02*
X046916Y010393D01*
X046916Y010700D01*
X046840Y010853D02*
X046686Y010853D01*
X046609Y010930D01*
X046609Y011160D01*
X046456Y011160D02*
X046916Y011160D01*
X046916Y010930D01*
X046840Y010853D01*
X046456Y010700D02*
X046456Y010393D01*
X046686Y011314D02*
X046840Y011314D01*
X046916Y011390D01*
X046916Y011620D01*
X046993Y011620D02*
X046609Y011620D01*
X046609Y011390D01*
X046686Y011314D01*
X047070Y011467D02*
X047070Y011544D01*
X046993Y011620D01*
X046840Y011774D02*
X046916Y011851D01*
X046916Y012004D01*
X046763Y012081D02*
X046763Y011774D01*
X046840Y011774D02*
X046686Y011774D01*
X046609Y011851D01*
X046609Y012004D01*
X046686Y012081D01*
X046763Y012081D01*
D42*
X010573Y010164D02*
X010195Y010164D01*
X010180Y010164D01*
X010180Y010558D01*
X010195Y010558D01*
X010195Y010377D01*
X010195Y010164D01*
X010180Y010164D02*
X010195Y010149D01*
X010195Y009984D01*
X010195Y009787D01*
X010195Y009590D02*
X010195Y009393D01*
X010195Y009196D01*
X010195Y009000D01*
X010195Y008803D01*
X010195Y008606D01*
X010195Y008338D01*
X010180Y008314D01*
X009427Y007838D02*
X009235Y007838D01*
X009235Y008274D01*
X008054Y008274D01*
X008054Y007838D01*
X007852Y007838D01*
X008049Y007838D01*
X008049Y008274D01*
X007266Y008274D01*
X007266Y007841D01*
X007459Y007838D02*
X007656Y007838D01*
X007577Y007128D01*
X007384Y007054D01*
X007975Y006778D02*
X007975Y006542D01*
X007975Y006503D01*
X008014Y006463D01*
X008014Y006503D01*
X008054Y006503D01*
X007975Y006778D02*
X008246Y007050D01*
X008246Y007838D01*
X008443Y007838D02*
X008443Y006389D01*
X008723Y006030D01*
X008959Y006739D02*
X008644Y006936D01*
X008640Y006940D02*
X008640Y007838D01*
X008640Y007019D01*
X009038Y007290D02*
X008837Y007491D01*
X008837Y007838D01*
X008837Y007531D01*
X009033Y007838D02*
X009230Y007838D01*
X008054Y008274D02*
X008049Y008274D01*
X007266Y008274D02*
X006164Y008274D01*
X005807Y007962D01*
X006164Y008274D02*
X006164Y009393D01*
X006164Y010203D01*
X006164Y011857D01*
X006868Y011857D01*
X007660Y011857D01*
X008447Y011857D01*
X008447Y012329D01*
X008640Y012326D02*
X008640Y013270D01*
X008998Y013629D01*
X008211Y013668D02*
X008049Y013506D01*
X008049Y012326D01*
X007852Y012326D02*
X007656Y012326D01*
X007459Y012326D01*
X007262Y012326D02*
X007262Y013664D01*
X007266Y013983D01*
X006439Y013550D02*
X007065Y012924D01*
X007065Y012326D01*
X006868Y012326D02*
X006868Y011857D01*
X007660Y011857D02*
X007660Y012290D01*
X006671Y012326D02*
X006671Y012609D01*
X006203Y013077D01*
X006474Y012329D02*
X006474Y012326D01*
X005773Y012326D01*
X005691Y012408D01*
X005140Y012093D02*
X005557Y011559D01*
X005707Y011559D01*
X005707Y011362D02*
X004842Y011362D01*
X004842Y011368D01*
X004628Y011581D01*
X004842Y011362D01*
X004645Y011165D02*
X004235Y010912D01*
X004550Y010558D02*
X004920Y010968D01*
X005707Y010968D01*
X005707Y010771D02*
X005314Y010771D01*
X005298Y010755D02*
X005022Y010518D01*
X005707Y010574D02*
X005707Y010377D01*
X005707Y010181D01*
X005707Y009984D01*
X005707Y009787D01*
X005707Y009590D02*
X005393Y009590D01*
X005101Y009062D01*
X005707Y009393D02*
X006164Y009393D01*
X006164Y010203D02*
X005731Y010203D01*
X005707Y011165D02*
X004645Y011165D01*
X010195Y010771D02*
X010534Y010771D01*
X010195Y010377D02*
X010195Y010181D01*
X007065Y007838D02*
X007065Y007561D01*
X006597Y006975D01*
D43*
X006400Y006778D01*
X006400Y005007D01*
X006597Y004613D01*
X006912Y004298D01*
X007778Y004416D02*
X006991Y005203D01*
X006991Y006542D01*
X007384Y007054D01*
X007542Y007093D01*
X007542Y007133D01*
X007463Y007093D01*
X007975Y006542D02*
X007660Y005991D01*
X007975Y005400D01*
X007980Y005230D01*
X008728Y005230D02*
X008723Y005440D01*
X008743Y005459D02*
X009746Y005637D01*
X011557Y005558D01*
X011600Y005562D01*
X011715Y005597D01*
X011715Y009140D01*
X011026Y009829D01*
X011124Y009928D01*
X011518Y010085D01*
X013683Y010991D01*
X013731Y011015D01*
X013880Y011109D01*
X014569Y010420D01*
X014668Y010479D01*
X014668Y013865D01*
X014668Y014652D01*
X013093Y016227D01*
X013087Y016337D01*
X012896Y016424D01*
X010928Y016424D01*
X010840Y016331D01*
X009840Y016331D02*
X009840Y014509D01*
X009471Y013826D01*
X008998Y013629D01*
X009510Y013786D01*
X011203Y011424D01*
X011203Y010771D01*
X010534Y010771D01*
X010573Y010164D02*
X010691Y010164D01*
X011026Y009829D01*
X012699Y009140D02*
X013683Y010125D01*
X013731Y010015D01*
X014569Y010420D02*
X014668Y010400D01*
X014668Y009140D01*
X013880Y009140D01*
X013731Y009015D01*
X012699Y009140D02*
X012699Y005203D01*
X011715Y004219D01*
X011600Y004066D01*
X011518Y004219D01*
X010534Y004928D01*
X010337Y003983D02*
X009235Y005479D01*
X008762Y005440D01*
X008723Y006030D02*
X008644Y006148D01*
X008959Y006739D02*
X009707Y006109D01*
X010298Y006109D01*
X010888Y006896D01*
X009865Y006975D02*
X009786Y007014D01*
X009038Y007290D01*
X010180Y007920D02*
X010180Y008314D01*
X013731Y007015D02*
X013802Y006936D01*
X014668Y005873D01*
X014825Y005676D01*
X015258Y005203D01*
X016006Y004928D01*
X016833Y004219D01*
X017227Y003826D01*
X019786Y003786D01*
X019825Y010361D01*
X019392Y010833D01*
X019392Y015164D01*
X017975Y014534D02*
X016479Y015400D01*
X016479Y016385D01*
X016470Y016463D01*
X016439Y016621D01*
X015652Y017408D01*
X015652Y018196D01*
X014865Y018983D01*
X014865Y019967D01*
X015416Y020440D01*
X019550Y020440D01*
X019786Y021345D01*
X019965Y021400D01*
X021965Y021400D02*
X022148Y021345D01*
X023132Y020361D01*
X023132Y007566D01*
X022935Y007054D01*
X023723Y006975D02*
X023723Y020755D01*
X023132Y021345D01*
X022965Y021400D01*
X025061Y020558D02*
X025888Y021345D01*
X025965Y021400D01*
X025061Y020558D02*
X025061Y015833D01*
X026754Y012959D01*
X026754Y009337D01*
X022581Y010046D02*
X022581Y008432D01*
X021715Y007566D01*
X021715Y007133D01*
X022542Y006385D01*
X022542Y005400D01*
X022667Y005360D01*
X021880Y005360D02*
X021754Y005400D01*
X021754Y006424D01*
X021085Y006424D01*
X021085Y008353D01*
X021557Y008826D01*
X020534Y009219D02*
X020455Y005400D01*
X021092Y005360D01*
X021880Y004573D02*
X021951Y004416D01*
X022542Y003826D01*
X024471Y003786D01*
X024471Y011936D01*
X022581Y010046D02*
X022109Y010518D01*
X021361Y011266D02*
X021361Y016424D01*
X021470Y016463D01*
X020470Y016463D02*
X020376Y016424D01*
X020376Y013077D01*
X020258Y011818D01*
X017935Y011896D02*
X017935Y010361D01*
X018723Y009967D02*
X018723Y013707D01*
X018683Y014219D01*
X018487Y016266D01*
X018470Y016463D01*
X019470Y016463D02*
X019589Y016621D01*
X019589Y019377D01*
X019470Y019463D01*
X021361Y019377D02*
X021361Y018983D01*
X020416Y017763D01*
X021361Y019377D02*
X021470Y019463D01*
X024392Y019062D02*
X024392Y015400D01*
X025219Y014022D01*
X025180Y006148D01*
X023683Y006227D02*
X023723Y006975D01*
X019353Y005991D02*
X019117Y005558D01*
X019353Y005991D02*
X019353Y009219D01*
X019038Y009613D01*
X018723Y009967D01*
X017896Y009337D02*
X017857Y005558D01*
X017463Y004574D01*
X017420Y004443D01*
X016636Y003235D02*
X015455Y004416D01*
X015420Y004443D01*
X015258Y004613D01*
X013683Y004613D01*
X013683Y004219D01*
X013608Y004066D01*
X013487Y004022D01*
X013487Y002841D01*
X012896Y002251D01*
X012749Y002074D01*
X011321Y001857D02*
X011321Y001266D01*
X036124Y001266D01*
X038093Y003235D01*
X038093Y022133D01*
X032778Y022133D01*
X032581Y021936D01*
X032581Y019574D01*
X032778Y019377D01*
X032855Y019335D01*
X034392Y020203D02*
X036518Y017999D01*
X036518Y006385D01*
X036617Y006286D01*
X036518Y006188D01*
X036518Y003235D01*
X016636Y003235D01*
X013683Y004613D02*
X013683Y005400D01*
X013608Y005562D01*
X015180Y006424D02*
X016912Y005912D01*
X017148Y005873D01*
X018605Y006463D02*
X018605Y008077D01*
X017935Y011896D02*
X016833Y011896D01*
X016731Y012015D01*
X017975Y012802D02*
X017975Y014534D01*
X016731Y014015D02*
X016636Y013865D01*
X014668Y013865D01*
X012778Y015361D02*
X012778Y012133D01*
X013683Y012093D01*
X013731Y012015D01*
X009471Y013786D02*
X008998Y013629D01*
X008369Y013826D02*
X008211Y013668D01*
X008369Y013826D02*
X008369Y016424D01*
X009550Y017605D01*
X010337Y017605D01*
X010337Y018196D01*
X010340Y018378D01*
X010337Y018392D01*
X010337Y019849D01*
X012463Y019849D01*
X013014Y018432D01*
X013087Y018337D01*
X013487Y019849D02*
X014786Y017723D01*
X015455Y016621D02*
X013683Y016621D01*
X011597Y019140D01*
X010928Y021345D02*
X008565Y018983D01*
X008132Y017408D01*
X007257Y018240D02*
X007187Y018196D01*
X003644Y014652D01*
X003644Y014455D01*
X003501Y014382D01*
X002463Y013511D02*
X005061Y013511D01*
X005416Y013077D01*
X006203Y013077D01*
X006439Y013550D02*
X006361Y013629D01*
X005534Y014377D01*
X005501Y014382D01*
X007266Y013983D02*
X007266Y016227D01*
X007257Y016240D01*
X006597Y018589D02*
X003250Y018589D01*
X000691Y016030D01*
X000691Y001857D01*
X002266Y001857D01*
X005101Y004140D01*
X005101Y009062D01*
X003920Y009849D02*
X003920Y004622D01*
X001701Y002482D01*
X001701Y003482D02*
X001872Y003629D01*
X003526Y005361D01*
X003526Y010282D01*
X004235Y010912D01*
X004550Y010558D02*
X003920Y009849D01*
X004943Y009967D02*
X005022Y010518D01*
X004628Y011581D02*
X003054Y011581D01*
X003054Y006385D01*
X001601Y006385D01*
X001601Y006382D01*
X001601Y007382D02*
X002620Y008747D01*
X002620Y012093D01*
X005140Y012093D01*
X005691Y012408D02*
X004825Y012841D01*
X003329Y012841D01*
X005807Y007962D02*
X005809Y007959D01*
X007778Y004416D02*
X008172Y004416D01*
X008354Y004364D01*
X008369Y004219D01*
X008959Y004219D01*
X009156Y004022D01*
X009156Y003629D01*
X009431Y003392D01*
X009156Y003629D02*
X009156Y002251D01*
X008369Y001463D01*
X008305Y001410D01*
X010305Y001410D02*
X010337Y001463D01*
X010337Y002841D01*
X010287Y002876D01*
X010337Y003038D01*
X010337Y003983D01*
X028054Y012881D02*
X032935Y012841D01*
X033329Y014298D02*
X026991Y014259D01*
X032855Y016335D02*
X032975Y016424D01*
X033565Y017014D01*
X033565Y020558D01*
X033250Y021385D01*
X032502Y023077D02*
X026636Y023077D01*
X026085Y022526D01*
X025965Y022400D01*
X025455Y023314D02*
X021557Y023117D01*
X020967Y022526D01*
X020965Y022400D01*
X020376Y023235D02*
X004865Y023117D01*
X004943Y019416D01*
X006597Y018589D02*
X006991Y018983D01*
X007739Y019140D01*
X007778Y019140D01*
X006912Y019810D02*
X005691Y021739D01*
X010928Y021345D02*
X010965Y021400D01*
X015455Y016621D02*
X015470Y016463D01*
X025849Y018156D02*
X029825Y018196D01*
X029825Y019180D01*
X029855Y019335D01*
X030809Y019180D02*
X030855Y019335D01*
X030809Y019180D02*
X030809Y017487D01*
X029825Y017487D01*
X034156Y016424D02*
X033329Y014298D01*
X036046Y016700D02*
X036046Y008471D01*
X035376Y007723D01*
X036617Y006286D02*
X037306Y005597D01*
X037318Y005495D01*
X039483Y007148D02*
X039668Y007172D01*
X040849Y008353D01*
X040849Y010518D01*
X044195Y013865D01*
X044291Y014002D01*
X040258Y016227D02*
X040258Y009534D01*
X039668Y008944D01*
X039483Y008802D01*
X041243Y007959D02*
X042620Y009337D01*
X042620Y009731D01*
X043802Y010912D01*
X043956Y010926D01*
X043956Y010039D02*
X043802Y009928D01*
X043211Y009337D01*
X043211Y008550D01*
X044786Y006975D01*
X044786Y005400D01*
X042817Y003432D01*
X042701Y003305D01*
X041921Y003305D02*
X041833Y003432D01*
X041243Y004022D01*
X041243Y007959D01*
X040258Y016227D02*
X042817Y018786D01*
X043001Y018982D01*
X044001Y018982D02*
X043998Y018865D01*
X043998Y017487D01*
X042511Y016562D01*
X036046Y016700D02*
X035731Y017014D01*
D44*
X034156Y016424D03*
X029825Y017487D03*
X025849Y018156D03*
X024392Y019062D03*
X020416Y017763D03*
X019392Y015164D03*
X017975Y012802D03*
X020258Y011818D03*
X021361Y011266D03*
X022109Y010518D03*
X020534Y009219D03*
X021557Y008826D03*
X018605Y008077D03*
X017896Y009337D03*
X017935Y010361D03*
X024471Y011936D03*
X028054Y012881D03*
X026991Y014259D03*
X032935Y012841D03*
X026754Y009337D03*
X022935Y007054D03*
X023683Y006227D03*
X025180Y006148D03*
X019117Y005558D03*
X018605Y006463D03*
X017148Y005873D03*
X015180Y006424D03*
X010888Y006896D03*
X009865Y006975D03*
X008644Y006148D03*
X007660Y005991D03*
X007463Y007093D03*
X005809Y007959D03*
X004943Y009967D03*
X010180Y007920D03*
X010534Y004928D03*
X009431Y003392D03*
X006912Y004298D03*
X011321Y001857D03*
X003329Y012841D03*
X002463Y013511D03*
X009510Y013786D03*
X012778Y015361D03*
X008132Y017408D03*
X007778Y019140D03*
X006912Y019810D03*
X004943Y019416D03*
X005691Y021739D03*
X011597Y019140D03*
X013487Y019849D03*
X014786Y017723D03*
X020376Y023235D03*
X025455Y023314D03*
X033250Y021385D03*
X034392Y020203D03*
D45*
X032502Y023077D03*
X035731Y017014D03*
X035376Y007723D03*
M02*
