G75*
%MOIN*%
%OFA0B0*%
%FSLAX24Y24*%
%IPPOS*%
%LPD*%
%AMOC8*
5,1,8,0,0,1.08239X$1,22.5*
%
%ADD10C,0.0000*%
%ADD11C,0.1063*%
%ADD12R,0.2250X0.0750*%
%ADD13R,0.0750X0.2250*%
%ADD14OC8,0.0669*%
%ADD15R,0.0886X0.0378*%
%ADD16C,0.0739*%
%ADD17C,0.1136*%
%ADD18C,0.0819*%
%ADD19C,0.1102*%
%ADD20C,0.0512*%
%ADD21C,0.0596*%
%ADD22C,0.0748*%
%ADD23C,0.0669*%
%ADD24R,0.0591X0.1496*%
%ADD25R,0.1496X0.0591*%
D10*
X000942Y000150D02*
X000942Y029400D01*
X037942Y029400D01*
X037942Y000150D01*
X000942Y000150D01*
X013050Y001900D02*
X013052Y001944D01*
X013058Y001988D01*
X013068Y002031D01*
X013081Y002073D01*
X013099Y002113D01*
X013120Y002152D01*
X013144Y002189D01*
X013171Y002224D01*
X013202Y002256D01*
X013235Y002285D01*
X013271Y002311D01*
X013309Y002333D01*
X013349Y002352D01*
X013390Y002368D01*
X013433Y002380D01*
X013476Y002388D01*
X013520Y002392D01*
X013564Y002392D01*
X013608Y002388D01*
X013651Y002380D01*
X013694Y002368D01*
X013735Y002352D01*
X013775Y002333D01*
X013813Y002311D01*
X013849Y002285D01*
X013882Y002256D01*
X013913Y002224D01*
X013940Y002189D01*
X013964Y002152D01*
X013985Y002113D01*
X014003Y002073D01*
X014016Y002031D01*
X014026Y001988D01*
X014032Y001944D01*
X014034Y001900D01*
X014032Y001856D01*
X014026Y001812D01*
X014016Y001769D01*
X014003Y001727D01*
X013985Y001687D01*
X013964Y001648D01*
X013940Y001611D01*
X013913Y001576D01*
X013882Y001544D01*
X013849Y001515D01*
X013813Y001489D01*
X013775Y001467D01*
X013735Y001448D01*
X013694Y001432D01*
X013651Y001420D01*
X013608Y001412D01*
X013564Y001408D01*
X013520Y001408D01*
X013476Y001412D01*
X013433Y001420D01*
X013390Y001432D01*
X013349Y001448D01*
X013309Y001467D01*
X013271Y001489D01*
X013235Y001515D01*
X013202Y001544D01*
X013171Y001576D01*
X013144Y001611D01*
X013120Y001648D01*
X013099Y001687D01*
X013081Y001727D01*
X013068Y001769D01*
X013058Y001812D01*
X013052Y001856D01*
X013050Y001900D01*
X031450Y001900D02*
X031452Y001944D01*
X031458Y001988D01*
X031468Y002031D01*
X031481Y002073D01*
X031499Y002113D01*
X031520Y002152D01*
X031544Y002189D01*
X031571Y002224D01*
X031602Y002256D01*
X031635Y002285D01*
X031671Y002311D01*
X031709Y002333D01*
X031749Y002352D01*
X031790Y002368D01*
X031833Y002380D01*
X031876Y002388D01*
X031920Y002392D01*
X031964Y002392D01*
X032008Y002388D01*
X032051Y002380D01*
X032094Y002368D01*
X032135Y002352D01*
X032175Y002333D01*
X032213Y002311D01*
X032249Y002285D01*
X032282Y002256D01*
X032313Y002224D01*
X032340Y002189D01*
X032364Y002152D01*
X032385Y002113D01*
X032403Y002073D01*
X032416Y002031D01*
X032426Y001988D01*
X032432Y001944D01*
X032434Y001900D01*
X032432Y001856D01*
X032426Y001812D01*
X032416Y001769D01*
X032403Y001727D01*
X032385Y001687D01*
X032364Y001648D01*
X032340Y001611D01*
X032313Y001576D01*
X032282Y001544D01*
X032249Y001515D01*
X032213Y001489D01*
X032175Y001467D01*
X032135Y001448D01*
X032094Y001432D01*
X032051Y001420D01*
X032008Y001412D01*
X031964Y001408D01*
X031920Y001408D01*
X031876Y001412D01*
X031833Y001420D01*
X031790Y001432D01*
X031749Y001448D01*
X031709Y001467D01*
X031671Y001489D01*
X031635Y001515D01*
X031602Y001544D01*
X031571Y001576D01*
X031544Y001611D01*
X031520Y001648D01*
X031499Y001687D01*
X031481Y001727D01*
X031468Y001769D01*
X031458Y001812D01*
X031452Y001856D01*
X031450Y001900D01*
X030764Y015764D02*
X030766Y015793D01*
X030772Y015821D01*
X030781Y015849D01*
X030794Y015875D01*
X030811Y015898D01*
X030830Y015920D01*
X030852Y015939D01*
X030877Y015954D01*
X030903Y015967D01*
X030931Y015975D01*
X030959Y015980D01*
X030988Y015981D01*
X031017Y015978D01*
X031045Y015971D01*
X031072Y015961D01*
X031098Y015947D01*
X031121Y015930D01*
X031142Y015910D01*
X031160Y015887D01*
X031175Y015862D01*
X031186Y015835D01*
X031194Y015807D01*
X031198Y015778D01*
X031198Y015750D01*
X031194Y015721D01*
X031186Y015693D01*
X031175Y015666D01*
X031160Y015641D01*
X031142Y015618D01*
X031121Y015598D01*
X031098Y015581D01*
X031072Y015567D01*
X031045Y015557D01*
X031017Y015550D01*
X030988Y015547D01*
X030959Y015548D01*
X030931Y015553D01*
X030903Y015561D01*
X030877Y015574D01*
X030852Y015589D01*
X030830Y015608D01*
X030811Y015630D01*
X030794Y015653D01*
X030781Y015679D01*
X030772Y015707D01*
X030766Y015735D01*
X030764Y015764D01*
X030764Y017536D02*
X030766Y017565D01*
X030772Y017593D01*
X030781Y017621D01*
X030794Y017647D01*
X030811Y017670D01*
X030830Y017692D01*
X030852Y017711D01*
X030877Y017726D01*
X030903Y017739D01*
X030931Y017747D01*
X030959Y017752D01*
X030988Y017753D01*
X031017Y017750D01*
X031045Y017743D01*
X031072Y017733D01*
X031098Y017719D01*
X031121Y017702D01*
X031142Y017682D01*
X031160Y017659D01*
X031175Y017634D01*
X031186Y017607D01*
X031194Y017579D01*
X031198Y017550D01*
X031198Y017522D01*
X031194Y017493D01*
X031186Y017465D01*
X031175Y017438D01*
X031160Y017413D01*
X031142Y017390D01*
X031121Y017370D01*
X031098Y017353D01*
X031072Y017339D01*
X031045Y017329D01*
X031017Y017322D01*
X030988Y017319D01*
X030959Y017320D01*
X030931Y017325D01*
X030903Y017333D01*
X030877Y017346D01*
X030852Y017361D01*
X030830Y017380D01*
X030811Y017402D01*
X030794Y017425D01*
X030781Y017451D01*
X030772Y017479D01*
X030766Y017507D01*
X030764Y017536D01*
X031450Y027650D02*
X031452Y027694D01*
X031458Y027738D01*
X031468Y027781D01*
X031481Y027823D01*
X031499Y027863D01*
X031520Y027902D01*
X031544Y027939D01*
X031571Y027974D01*
X031602Y028006D01*
X031635Y028035D01*
X031671Y028061D01*
X031709Y028083D01*
X031749Y028102D01*
X031790Y028118D01*
X031833Y028130D01*
X031876Y028138D01*
X031920Y028142D01*
X031964Y028142D01*
X032008Y028138D01*
X032051Y028130D01*
X032094Y028118D01*
X032135Y028102D01*
X032175Y028083D01*
X032213Y028061D01*
X032249Y028035D01*
X032282Y028006D01*
X032313Y027974D01*
X032340Y027939D01*
X032364Y027902D01*
X032385Y027863D01*
X032403Y027823D01*
X032416Y027781D01*
X032426Y027738D01*
X032432Y027694D01*
X032434Y027650D01*
X032432Y027606D01*
X032426Y027562D01*
X032416Y027519D01*
X032403Y027477D01*
X032385Y027437D01*
X032364Y027398D01*
X032340Y027361D01*
X032313Y027326D01*
X032282Y027294D01*
X032249Y027265D01*
X032213Y027239D01*
X032175Y027217D01*
X032135Y027198D01*
X032094Y027182D01*
X032051Y027170D01*
X032008Y027162D01*
X031964Y027158D01*
X031920Y027158D01*
X031876Y027162D01*
X031833Y027170D01*
X031790Y027182D01*
X031749Y027198D01*
X031709Y027217D01*
X031671Y027239D01*
X031635Y027265D01*
X031602Y027294D01*
X031571Y027326D01*
X031544Y027361D01*
X031520Y027398D01*
X031499Y027437D01*
X031481Y027477D01*
X031468Y027519D01*
X031458Y027562D01*
X031452Y027606D01*
X031450Y027650D01*
X013050Y027650D02*
X013052Y027694D01*
X013058Y027738D01*
X013068Y027781D01*
X013081Y027823D01*
X013099Y027863D01*
X013120Y027902D01*
X013144Y027939D01*
X013171Y027974D01*
X013202Y028006D01*
X013235Y028035D01*
X013271Y028061D01*
X013309Y028083D01*
X013349Y028102D01*
X013390Y028118D01*
X013433Y028130D01*
X013476Y028138D01*
X013520Y028142D01*
X013564Y028142D01*
X013608Y028138D01*
X013651Y028130D01*
X013694Y028118D01*
X013735Y028102D01*
X013775Y028083D01*
X013813Y028061D01*
X013849Y028035D01*
X013882Y028006D01*
X013913Y027974D01*
X013940Y027939D01*
X013964Y027902D01*
X013985Y027863D01*
X014003Y027823D01*
X014016Y027781D01*
X014026Y027738D01*
X014032Y027694D01*
X014034Y027650D01*
X014032Y027606D01*
X014026Y027562D01*
X014016Y027519D01*
X014003Y027477D01*
X013985Y027437D01*
X013964Y027398D01*
X013940Y027361D01*
X013913Y027326D01*
X013882Y027294D01*
X013849Y027265D01*
X013813Y027239D01*
X013775Y027217D01*
X013735Y027198D01*
X013694Y027182D01*
X013651Y027170D01*
X013608Y027162D01*
X013564Y027158D01*
X013520Y027158D01*
X013476Y027162D01*
X013433Y027170D01*
X013390Y027182D01*
X013349Y027198D01*
X013309Y027217D01*
X013271Y027239D01*
X013235Y027265D01*
X013202Y027294D01*
X013171Y027326D01*
X013144Y027361D01*
X013120Y027398D01*
X013099Y027437D01*
X013081Y027477D01*
X013068Y027519D01*
X013058Y027562D01*
X013052Y027606D01*
X013050Y027650D01*
D11*
X013542Y027650D03*
X031942Y027650D03*
X031942Y001900D03*
X013542Y001900D03*
D12*
X024567Y000775D03*
X024567Y011775D03*
D13*
X019067Y006525D03*
X030067Y006275D03*
D14*
X013842Y006275D03*
X013842Y007275D03*
X013842Y008275D03*
X012842Y008275D03*
X012842Y007275D03*
X012842Y006275D03*
X012842Y005275D03*
X013842Y005275D03*
X013842Y004275D03*
X012842Y004275D03*
X012842Y009275D03*
X013842Y009275D03*
X013842Y010275D03*
X013842Y011275D03*
X012842Y011275D03*
X012842Y010275D03*
X012842Y012275D03*
X013842Y012275D03*
X013842Y013275D03*
X012842Y013275D03*
X012842Y014275D03*
X013842Y014275D03*
X013842Y015275D03*
X013842Y016275D03*
X012842Y016275D03*
X012842Y015275D03*
X012842Y017275D03*
X013842Y017275D03*
X013842Y018275D03*
X013842Y019275D03*
X012842Y019275D03*
X012842Y018275D03*
X012842Y020275D03*
X013842Y020275D03*
X013842Y021275D03*
X012842Y021275D03*
X012842Y022275D03*
X013842Y022275D03*
X013842Y023275D03*
X013842Y024275D03*
X012842Y024275D03*
X012842Y023275D03*
X012842Y025275D03*
X013842Y025275D03*
D15*
X026973Y010363D03*
X026973Y009863D03*
X026973Y009363D03*
X026973Y008863D03*
X028375Y008863D03*
X028375Y009363D03*
X028375Y009863D03*
X028375Y010363D03*
D16*
X032162Y008642D03*
X032942Y008642D03*
X032942Y007658D03*
X032162Y007658D03*
D17*
X034012Y005780D03*
X034012Y010520D03*
D18*
X029997Y015272D03*
X029997Y016206D03*
X029997Y017094D03*
X029997Y018028D03*
D19*
X030942Y018933D03*
X030942Y014367D03*
D20*
X030981Y015764D03*
X030981Y017536D03*
D21*
X028942Y012909D02*
X028942Y012391D01*
X027942Y012391D02*
X027942Y012909D01*
X006192Y022891D02*
X006192Y023409D01*
X005192Y023409D02*
X005192Y022891D01*
X005192Y024641D02*
X005192Y025159D01*
X006192Y025159D02*
X006192Y024641D01*
X006192Y026391D02*
X006192Y026909D01*
X005192Y026909D02*
X005192Y026391D01*
D22*
X002431Y026605D03*
X002431Y025227D03*
X002431Y023849D03*
X002431Y022471D03*
X002431Y021093D03*
X002431Y019715D03*
X002431Y018337D03*
X002431Y016959D03*
X002431Y015582D03*
X002431Y013985D03*
X002431Y012607D03*
X002431Y011229D03*
X002431Y009851D03*
X002431Y008473D03*
X002431Y007095D03*
X002431Y005717D03*
X002431Y004339D03*
X002431Y002962D03*
D23*
X018430Y022028D03*
X019430Y022028D03*
X025430Y022028D03*
X027430Y022028D03*
X027430Y028028D03*
X025430Y028028D03*
X019430Y028028D03*
X018430Y028028D03*
X017430Y028028D03*
D24*
X032192Y024455D03*
X032192Y021355D03*
D25*
X027987Y018150D03*
X024887Y018150D03*
M02*
