G75*
%MOIN*%
%OFA0B0*%
%FSLAX24Y24*%
%IPPOS*%
%LPD*%
%AMOC8*
5,1,8,0,0,1.08239X$1,22.5*
%
%ADD10C,0.0000*%
%ADD11C,0.0010*%
D10*
X000942Y000150D02*
X000942Y029400D01*
X037942Y029400D01*
X037942Y000150D01*
X000942Y000150D01*
X013050Y001900D02*
X013052Y001944D01*
X013058Y001988D01*
X013068Y002031D01*
X013081Y002073D01*
X013099Y002113D01*
X013120Y002152D01*
X013144Y002189D01*
X013171Y002224D01*
X013202Y002256D01*
X013235Y002285D01*
X013271Y002311D01*
X013309Y002333D01*
X013349Y002352D01*
X013390Y002368D01*
X013433Y002380D01*
X013476Y002388D01*
X013520Y002392D01*
X013564Y002392D01*
X013608Y002388D01*
X013651Y002380D01*
X013694Y002368D01*
X013735Y002352D01*
X013775Y002333D01*
X013813Y002311D01*
X013849Y002285D01*
X013882Y002256D01*
X013913Y002224D01*
X013940Y002189D01*
X013964Y002152D01*
X013985Y002113D01*
X014003Y002073D01*
X014016Y002031D01*
X014026Y001988D01*
X014032Y001944D01*
X014034Y001900D01*
X014032Y001856D01*
X014026Y001812D01*
X014016Y001769D01*
X014003Y001727D01*
X013985Y001687D01*
X013964Y001648D01*
X013940Y001611D01*
X013913Y001576D01*
X013882Y001544D01*
X013849Y001515D01*
X013813Y001489D01*
X013775Y001467D01*
X013735Y001448D01*
X013694Y001432D01*
X013651Y001420D01*
X013608Y001412D01*
X013564Y001408D01*
X013520Y001408D01*
X013476Y001412D01*
X013433Y001420D01*
X013390Y001432D01*
X013349Y001448D01*
X013309Y001467D01*
X013271Y001489D01*
X013235Y001515D01*
X013202Y001544D01*
X013171Y001576D01*
X013144Y001611D01*
X013120Y001648D01*
X013099Y001687D01*
X013081Y001727D01*
X013068Y001769D01*
X013058Y001812D01*
X013052Y001856D01*
X013050Y001900D01*
X031450Y001900D02*
X031452Y001944D01*
X031458Y001988D01*
X031468Y002031D01*
X031481Y002073D01*
X031499Y002113D01*
X031520Y002152D01*
X031544Y002189D01*
X031571Y002224D01*
X031602Y002256D01*
X031635Y002285D01*
X031671Y002311D01*
X031709Y002333D01*
X031749Y002352D01*
X031790Y002368D01*
X031833Y002380D01*
X031876Y002388D01*
X031920Y002392D01*
X031964Y002392D01*
X032008Y002388D01*
X032051Y002380D01*
X032094Y002368D01*
X032135Y002352D01*
X032175Y002333D01*
X032213Y002311D01*
X032249Y002285D01*
X032282Y002256D01*
X032313Y002224D01*
X032340Y002189D01*
X032364Y002152D01*
X032385Y002113D01*
X032403Y002073D01*
X032416Y002031D01*
X032426Y001988D01*
X032432Y001944D01*
X032434Y001900D01*
X032432Y001856D01*
X032426Y001812D01*
X032416Y001769D01*
X032403Y001727D01*
X032385Y001687D01*
X032364Y001648D01*
X032340Y001611D01*
X032313Y001576D01*
X032282Y001544D01*
X032249Y001515D01*
X032213Y001489D01*
X032175Y001467D01*
X032135Y001448D01*
X032094Y001432D01*
X032051Y001420D01*
X032008Y001412D01*
X031964Y001408D01*
X031920Y001408D01*
X031876Y001412D01*
X031833Y001420D01*
X031790Y001432D01*
X031749Y001448D01*
X031709Y001467D01*
X031671Y001489D01*
X031635Y001515D01*
X031602Y001544D01*
X031571Y001576D01*
X031544Y001611D01*
X031520Y001648D01*
X031499Y001687D01*
X031481Y001727D01*
X031468Y001769D01*
X031458Y001812D01*
X031452Y001856D01*
X031450Y001900D01*
X030764Y015764D02*
X030766Y015793D01*
X030772Y015821D01*
X030781Y015849D01*
X030794Y015875D01*
X030811Y015898D01*
X030830Y015920D01*
X030852Y015939D01*
X030877Y015954D01*
X030903Y015967D01*
X030931Y015975D01*
X030959Y015980D01*
X030988Y015981D01*
X031017Y015978D01*
X031045Y015971D01*
X031072Y015961D01*
X031098Y015947D01*
X031121Y015930D01*
X031142Y015910D01*
X031160Y015887D01*
X031175Y015862D01*
X031186Y015835D01*
X031194Y015807D01*
X031198Y015778D01*
X031198Y015750D01*
X031194Y015721D01*
X031186Y015693D01*
X031175Y015666D01*
X031160Y015641D01*
X031142Y015618D01*
X031121Y015598D01*
X031098Y015581D01*
X031072Y015567D01*
X031045Y015557D01*
X031017Y015550D01*
X030988Y015547D01*
X030959Y015548D01*
X030931Y015553D01*
X030903Y015561D01*
X030877Y015574D01*
X030852Y015589D01*
X030830Y015608D01*
X030811Y015630D01*
X030794Y015653D01*
X030781Y015679D01*
X030772Y015707D01*
X030766Y015735D01*
X030764Y015764D01*
X030764Y017536D02*
X030766Y017565D01*
X030772Y017593D01*
X030781Y017621D01*
X030794Y017647D01*
X030811Y017670D01*
X030830Y017692D01*
X030852Y017711D01*
X030877Y017726D01*
X030903Y017739D01*
X030931Y017747D01*
X030959Y017752D01*
X030988Y017753D01*
X031017Y017750D01*
X031045Y017743D01*
X031072Y017733D01*
X031098Y017719D01*
X031121Y017702D01*
X031142Y017682D01*
X031160Y017659D01*
X031175Y017634D01*
X031186Y017607D01*
X031194Y017579D01*
X031198Y017550D01*
X031198Y017522D01*
X031194Y017493D01*
X031186Y017465D01*
X031175Y017438D01*
X031160Y017413D01*
X031142Y017390D01*
X031121Y017370D01*
X031098Y017353D01*
X031072Y017339D01*
X031045Y017329D01*
X031017Y017322D01*
X030988Y017319D01*
X030959Y017320D01*
X030931Y017325D01*
X030903Y017333D01*
X030877Y017346D01*
X030852Y017361D01*
X030830Y017380D01*
X030811Y017402D01*
X030794Y017425D01*
X030781Y017451D01*
X030772Y017479D01*
X030766Y017507D01*
X030764Y017536D01*
X031450Y027650D02*
X031452Y027694D01*
X031458Y027738D01*
X031468Y027781D01*
X031481Y027823D01*
X031499Y027863D01*
X031520Y027902D01*
X031544Y027939D01*
X031571Y027974D01*
X031602Y028006D01*
X031635Y028035D01*
X031671Y028061D01*
X031709Y028083D01*
X031749Y028102D01*
X031790Y028118D01*
X031833Y028130D01*
X031876Y028138D01*
X031920Y028142D01*
X031964Y028142D01*
X032008Y028138D01*
X032051Y028130D01*
X032094Y028118D01*
X032135Y028102D01*
X032175Y028083D01*
X032213Y028061D01*
X032249Y028035D01*
X032282Y028006D01*
X032313Y027974D01*
X032340Y027939D01*
X032364Y027902D01*
X032385Y027863D01*
X032403Y027823D01*
X032416Y027781D01*
X032426Y027738D01*
X032432Y027694D01*
X032434Y027650D01*
X032432Y027606D01*
X032426Y027562D01*
X032416Y027519D01*
X032403Y027477D01*
X032385Y027437D01*
X032364Y027398D01*
X032340Y027361D01*
X032313Y027326D01*
X032282Y027294D01*
X032249Y027265D01*
X032213Y027239D01*
X032175Y027217D01*
X032135Y027198D01*
X032094Y027182D01*
X032051Y027170D01*
X032008Y027162D01*
X031964Y027158D01*
X031920Y027158D01*
X031876Y027162D01*
X031833Y027170D01*
X031790Y027182D01*
X031749Y027198D01*
X031709Y027217D01*
X031671Y027239D01*
X031635Y027265D01*
X031602Y027294D01*
X031571Y027326D01*
X031544Y027361D01*
X031520Y027398D01*
X031499Y027437D01*
X031481Y027477D01*
X031468Y027519D01*
X031458Y027562D01*
X031452Y027606D01*
X031450Y027650D01*
X013050Y027650D02*
X013052Y027694D01*
X013058Y027738D01*
X013068Y027781D01*
X013081Y027823D01*
X013099Y027863D01*
X013120Y027902D01*
X013144Y027939D01*
X013171Y027974D01*
X013202Y028006D01*
X013235Y028035D01*
X013271Y028061D01*
X013309Y028083D01*
X013349Y028102D01*
X013390Y028118D01*
X013433Y028130D01*
X013476Y028138D01*
X013520Y028142D01*
X013564Y028142D01*
X013608Y028138D01*
X013651Y028130D01*
X013694Y028118D01*
X013735Y028102D01*
X013775Y028083D01*
X013813Y028061D01*
X013849Y028035D01*
X013882Y028006D01*
X013913Y027974D01*
X013940Y027939D01*
X013964Y027902D01*
X013985Y027863D01*
X014003Y027823D01*
X014016Y027781D01*
X014026Y027738D01*
X014032Y027694D01*
X014034Y027650D01*
X014032Y027606D01*
X014026Y027562D01*
X014016Y027519D01*
X014003Y027477D01*
X013985Y027437D01*
X013964Y027398D01*
X013940Y027361D01*
X013913Y027326D01*
X013882Y027294D01*
X013849Y027265D01*
X013813Y027239D01*
X013775Y027217D01*
X013735Y027198D01*
X013694Y027182D01*
X013651Y027170D01*
X013608Y027162D01*
X013564Y027158D01*
X013520Y027158D01*
X013476Y027162D01*
X013433Y027170D01*
X013390Y027182D01*
X013349Y027198D01*
X013309Y027217D01*
X013271Y027239D01*
X013235Y027265D01*
X013202Y027294D01*
X013171Y027326D01*
X013144Y027361D01*
X013120Y027398D01*
X013099Y027437D01*
X013081Y027477D01*
X013068Y027519D01*
X013058Y027562D01*
X013052Y027606D01*
X013050Y027650D01*
D11*
X013152Y027650D02*
X013154Y027689D01*
X013160Y027727D01*
X013169Y027765D01*
X013183Y027801D01*
X013199Y027837D01*
X013220Y027870D01*
X013243Y027901D01*
X013270Y027929D01*
X013299Y027955D01*
X013330Y027978D01*
X013364Y027997D01*
X013400Y028013D01*
X013436Y028025D01*
X013474Y028034D01*
X013513Y028039D01*
X013552Y028040D01*
X013590Y028037D01*
X013629Y028030D01*
X013666Y028020D01*
X013702Y028005D01*
X013737Y027988D01*
X013770Y027967D01*
X013800Y027942D01*
X013828Y027915D01*
X013853Y027885D01*
X013875Y027853D01*
X013893Y027819D01*
X013908Y027783D01*
X013920Y027746D01*
X013928Y027708D01*
X013932Y027669D01*
X013932Y027631D01*
X013928Y027592D01*
X013920Y027554D01*
X013908Y027517D01*
X013893Y027481D01*
X013875Y027447D01*
X013853Y027415D01*
X013828Y027385D01*
X013800Y027358D01*
X013770Y027333D01*
X013737Y027312D01*
X013702Y027295D01*
X013666Y027280D01*
X013629Y027270D01*
X013590Y027263D01*
X013552Y027260D01*
X013513Y027261D01*
X013474Y027266D01*
X013436Y027275D01*
X013400Y027287D01*
X013364Y027303D01*
X013330Y027322D01*
X013299Y027345D01*
X013270Y027371D01*
X013243Y027399D01*
X013220Y027430D01*
X013199Y027463D01*
X013183Y027499D01*
X013169Y027535D01*
X013160Y027573D01*
X013154Y027611D01*
X013152Y027650D01*
X013142Y027250D02*
X013942Y028050D01*
X030581Y017536D02*
X031381Y017536D01*
X030981Y017936D01*
X030981Y017136D01*
X030581Y017536D01*
X030581Y015764D02*
X031381Y015764D01*
X030981Y016164D01*
X030981Y015364D01*
X030581Y015764D01*
X031552Y027650D02*
X031554Y027689D01*
X031560Y027727D01*
X031569Y027765D01*
X031583Y027801D01*
X031599Y027837D01*
X031620Y027870D01*
X031643Y027901D01*
X031670Y027929D01*
X031699Y027955D01*
X031730Y027978D01*
X031764Y027997D01*
X031800Y028013D01*
X031836Y028025D01*
X031874Y028034D01*
X031913Y028039D01*
X031952Y028040D01*
X031990Y028037D01*
X032029Y028030D01*
X032066Y028020D01*
X032102Y028005D01*
X032137Y027988D01*
X032170Y027967D01*
X032200Y027942D01*
X032228Y027915D01*
X032253Y027885D01*
X032275Y027853D01*
X032293Y027819D01*
X032308Y027783D01*
X032320Y027746D01*
X032328Y027708D01*
X032332Y027669D01*
X032332Y027631D01*
X032328Y027592D01*
X032320Y027554D01*
X032308Y027517D01*
X032293Y027481D01*
X032275Y027447D01*
X032253Y027415D01*
X032228Y027385D01*
X032200Y027358D01*
X032170Y027333D01*
X032137Y027312D01*
X032102Y027295D01*
X032066Y027280D01*
X032029Y027270D01*
X031990Y027263D01*
X031952Y027260D01*
X031913Y027261D01*
X031874Y027266D01*
X031836Y027275D01*
X031800Y027287D01*
X031764Y027303D01*
X031730Y027322D01*
X031699Y027345D01*
X031670Y027371D01*
X031643Y027399D01*
X031620Y027430D01*
X031599Y027463D01*
X031583Y027499D01*
X031569Y027535D01*
X031560Y027573D01*
X031554Y027611D01*
X031552Y027650D01*
X031542Y027250D02*
X032342Y028050D01*
X031552Y001900D02*
X031554Y001939D01*
X031560Y001977D01*
X031569Y002015D01*
X031583Y002051D01*
X031599Y002087D01*
X031620Y002120D01*
X031643Y002151D01*
X031670Y002179D01*
X031699Y002205D01*
X031730Y002228D01*
X031764Y002247D01*
X031800Y002263D01*
X031836Y002275D01*
X031874Y002284D01*
X031913Y002289D01*
X031952Y002290D01*
X031990Y002287D01*
X032029Y002280D01*
X032066Y002270D01*
X032102Y002255D01*
X032137Y002238D01*
X032170Y002217D01*
X032200Y002192D01*
X032228Y002165D01*
X032253Y002135D01*
X032275Y002103D01*
X032293Y002069D01*
X032308Y002033D01*
X032320Y001996D01*
X032328Y001958D01*
X032332Y001919D01*
X032332Y001881D01*
X032328Y001842D01*
X032320Y001804D01*
X032308Y001767D01*
X032293Y001731D01*
X032275Y001697D01*
X032253Y001665D01*
X032228Y001635D01*
X032200Y001608D01*
X032170Y001583D01*
X032137Y001562D01*
X032102Y001545D01*
X032066Y001530D01*
X032029Y001520D01*
X031990Y001513D01*
X031952Y001510D01*
X031913Y001511D01*
X031874Y001516D01*
X031836Y001525D01*
X031800Y001537D01*
X031764Y001553D01*
X031730Y001572D01*
X031699Y001595D01*
X031670Y001621D01*
X031643Y001649D01*
X031620Y001680D01*
X031599Y001713D01*
X031583Y001749D01*
X031569Y001785D01*
X031560Y001823D01*
X031554Y001861D01*
X031552Y001900D01*
X031542Y001500D02*
X032342Y002300D01*
X013152Y001900D02*
X013154Y001939D01*
X013160Y001977D01*
X013169Y002015D01*
X013183Y002051D01*
X013199Y002087D01*
X013220Y002120D01*
X013243Y002151D01*
X013270Y002179D01*
X013299Y002205D01*
X013330Y002228D01*
X013364Y002247D01*
X013400Y002263D01*
X013436Y002275D01*
X013474Y002284D01*
X013513Y002289D01*
X013552Y002290D01*
X013590Y002287D01*
X013629Y002280D01*
X013666Y002270D01*
X013702Y002255D01*
X013737Y002238D01*
X013770Y002217D01*
X013800Y002192D01*
X013828Y002165D01*
X013853Y002135D01*
X013875Y002103D01*
X013893Y002069D01*
X013908Y002033D01*
X013920Y001996D01*
X013928Y001958D01*
X013932Y001919D01*
X013932Y001881D01*
X013928Y001842D01*
X013920Y001804D01*
X013908Y001767D01*
X013893Y001731D01*
X013875Y001697D01*
X013853Y001665D01*
X013828Y001635D01*
X013800Y001608D01*
X013770Y001583D01*
X013737Y001562D01*
X013702Y001545D01*
X013666Y001530D01*
X013629Y001520D01*
X013590Y001513D01*
X013552Y001510D01*
X013513Y001511D01*
X013474Y001516D01*
X013436Y001525D01*
X013400Y001537D01*
X013364Y001553D01*
X013330Y001572D01*
X013299Y001595D01*
X013270Y001621D01*
X013243Y001649D01*
X013220Y001680D01*
X013199Y001713D01*
X013183Y001749D01*
X013169Y001785D01*
X013160Y001823D01*
X013154Y001861D01*
X013152Y001900D01*
X013142Y001500D02*
X013942Y002300D01*
M02*
