G75*
%MOIN*%
%OFA0B0*%
%FSLAX24Y24*%
%IPPOS*%
%LPD*%
%AMOC8*
5,1,8,0,0,1.08239X$1,22.5*
%
%ADD10C,0.0000*%
%ADD11C,0.1063*%
%ADD12R,0.0339X0.0879*%
%ADD13R,0.0394X0.0098*%
%ADD14R,0.3150X0.3150*%
%ADD15R,0.0709X0.1142*%
%ADD16R,0.1142X0.0709*%
%ADD17R,0.0512X0.0472*%
%ADD18R,0.0669X0.0709*%
%ADD19OC8,0.0669*%
%ADD20R,0.0315X0.0945*%
%ADD21C,0.0739*%
%ADD22C,0.1136*%
%ADD23C,0.0819*%
%ADD24C,0.1102*%
%ADD25C,0.0512*%
%ADD26C,0.0596*%
%ADD27R,0.0472X0.0512*%
%ADD28R,0.0591X0.0669*%
%ADD29R,0.0669X0.0591*%
%ADD30R,0.0630X0.0472*%
%ADD31C,0.0748*%
%ADD32C,0.0669*%
%ADD33R,0.0354X0.0413*%
D10*
X000942Y000150D02*
X000942Y029400D01*
X037942Y029400D01*
X037942Y000150D01*
X000942Y000150D01*
X013050Y001900D02*
X013052Y001944D01*
X013058Y001988D01*
X013068Y002031D01*
X013081Y002073D01*
X013099Y002113D01*
X013120Y002152D01*
X013144Y002189D01*
X013171Y002224D01*
X013202Y002256D01*
X013235Y002285D01*
X013271Y002311D01*
X013309Y002333D01*
X013349Y002352D01*
X013390Y002368D01*
X013433Y002380D01*
X013476Y002388D01*
X013520Y002392D01*
X013564Y002392D01*
X013608Y002388D01*
X013651Y002380D01*
X013694Y002368D01*
X013735Y002352D01*
X013775Y002333D01*
X013813Y002311D01*
X013849Y002285D01*
X013882Y002256D01*
X013913Y002224D01*
X013940Y002189D01*
X013964Y002152D01*
X013985Y002113D01*
X014003Y002073D01*
X014016Y002031D01*
X014026Y001988D01*
X014032Y001944D01*
X014034Y001900D01*
X014032Y001856D01*
X014026Y001812D01*
X014016Y001769D01*
X014003Y001727D01*
X013985Y001687D01*
X013964Y001648D01*
X013940Y001611D01*
X013913Y001576D01*
X013882Y001544D01*
X013849Y001515D01*
X013813Y001489D01*
X013775Y001467D01*
X013735Y001448D01*
X013694Y001432D01*
X013651Y001420D01*
X013608Y001412D01*
X013564Y001408D01*
X013520Y001408D01*
X013476Y001412D01*
X013433Y001420D01*
X013390Y001432D01*
X013349Y001448D01*
X013309Y001467D01*
X013271Y001489D01*
X013235Y001515D01*
X013202Y001544D01*
X013171Y001576D01*
X013144Y001611D01*
X013120Y001648D01*
X013099Y001687D01*
X013081Y001727D01*
X013068Y001769D01*
X013058Y001812D01*
X013052Y001856D01*
X013050Y001900D01*
X031450Y001900D02*
X031452Y001944D01*
X031458Y001988D01*
X031468Y002031D01*
X031481Y002073D01*
X031499Y002113D01*
X031520Y002152D01*
X031544Y002189D01*
X031571Y002224D01*
X031602Y002256D01*
X031635Y002285D01*
X031671Y002311D01*
X031709Y002333D01*
X031749Y002352D01*
X031790Y002368D01*
X031833Y002380D01*
X031876Y002388D01*
X031920Y002392D01*
X031964Y002392D01*
X032008Y002388D01*
X032051Y002380D01*
X032094Y002368D01*
X032135Y002352D01*
X032175Y002333D01*
X032213Y002311D01*
X032249Y002285D01*
X032282Y002256D01*
X032313Y002224D01*
X032340Y002189D01*
X032364Y002152D01*
X032385Y002113D01*
X032403Y002073D01*
X032416Y002031D01*
X032426Y001988D01*
X032432Y001944D01*
X032434Y001900D01*
X032432Y001856D01*
X032426Y001812D01*
X032416Y001769D01*
X032403Y001727D01*
X032385Y001687D01*
X032364Y001648D01*
X032340Y001611D01*
X032313Y001576D01*
X032282Y001544D01*
X032249Y001515D01*
X032213Y001489D01*
X032175Y001467D01*
X032135Y001448D01*
X032094Y001432D01*
X032051Y001420D01*
X032008Y001412D01*
X031964Y001408D01*
X031920Y001408D01*
X031876Y001412D01*
X031833Y001420D01*
X031790Y001432D01*
X031749Y001448D01*
X031709Y001467D01*
X031671Y001489D01*
X031635Y001515D01*
X031602Y001544D01*
X031571Y001576D01*
X031544Y001611D01*
X031520Y001648D01*
X031499Y001687D01*
X031481Y001727D01*
X031468Y001769D01*
X031458Y001812D01*
X031452Y001856D01*
X031450Y001900D01*
X030764Y015764D02*
X030766Y015793D01*
X030772Y015821D01*
X030781Y015849D01*
X030794Y015875D01*
X030811Y015898D01*
X030830Y015920D01*
X030852Y015939D01*
X030877Y015954D01*
X030903Y015967D01*
X030931Y015975D01*
X030959Y015980D01*
X030988Y015981D01*
X031017Y015978D01*
X031045Y015971D01*
X031072Y015961D01*
X031098Y015947D01*
X031121Y015930D01*
X031142Y015910D01*
X031160Y015887D01*
X031175Y015862D01*
X031186Y015835D01*
X031194Y015807D01*
X031198Y015778D01*
X031198Y015750D01*
X031194Y015721D01*
X031186Y015693D01*
X031175Y015666D01*
X031160Y015641D01*
X031142Y015618D01*
X031121Y015598D01*
X031098Y015581D01*
X031072Y015567D01*
X031045Y015557D01*
X031017Y015550D01*
X030988Y015547D01*
X030959Y015548D01*
X030931Y015553D01*
X030903Y015561D01*
X030877Y015574D01*
X030852Y015589D01*
X030830Y015608D01*
X030811Y015630D01*
X030794Y015653D01*
X030781Y015679D01*
X030772Y015707D01*
X030766Y015735D01*
X030764Y015764D01*
X030764Y017536D02*
X030766Y017565D01*
X030772Y017593D01*
X030781Y017621D01*
X030794Y017647D01*
X030811Y017670D01*
X030830Y017692D01*
X030852Y017711D01*
X030877Y017726D01*
X030903Y017739D01*
X030931Y017747D01*
X030959Y017752D01*
X030988Y017753D01*
X031017Y017750D01*
X031045Y017743D01*
X031072Y017733D01*
X031098Y017719D01*
X031121Y017702D01*
X031142Y017682D01*
X031160Y017659D01*
X031175Y017634D01*
X031186Y017607D01*
X031194Y017579D01*
X031198Y017550D01*
X031198Y017522D01*
X031194Y017493D01*
X031186Y017465D01*
X031175Y017438D01*
X031160Y017413D01*
X031142Y017390D01*
X031121Y017370D01*
X031098Y017353D01*
X031072Y017339D01*
X031045Y017329D01*
X031017Y017322D01*
X030988Y017319D01*
X030959Y017320D01*
X030931Y017325D01*
X030903Y017333D01*
X030877Y017346D01*
X030852Y017361D01*
X030830Y017380D01*
X030811Y017402D01*
X030794Y017425D01*
X030781Y017451D01*
X030772Y017479D01*
X030766Y017507D01*
X030764Y017536D01*
X031450Y027650D02*
X031452Y027694D01*
X031458Y027738D01*
X031468Y027781D01*
X031481Y027823D01*
X031499Y027863D01*
X031520Y027902D01*
X031544Y027939D01*
X031571Y027974D01*
X031602Y028006D01*
X031635Y028035D01*
X031671Y028061D01*
X031709Y028083D01*
X031749Y028102D01*
X031790Y028118D01*
X031833Y028130D01*
X031876Y028138D01*
X031920Y028142D01*
X031964Y028142D01*
X032008Y028138D01*
X032051Y028130D01*
X032094Y028118D01*
X032135Y028102D01*
X032175Y028083D01*
X032213Y028061D01*
X032249Y028035D01*
X032282Y028006D01*
X032313Y027974D01*
X032340Y027939D01*
X032364Y027902D01*
X032385Y027863D01*
X032403Y027823D01*
X032416Y027781D01*
X032426Y027738D01*
X032432Y027694D01*
X032434Y027650D01*
X032432Y027606D01*
X032426Y027562D01*
X032416Y027519D01*
X032403Y027477D01*
X032385Y027437D01*
X032364Y027398D01*
X032340Y027361D01*
X032313Y027326D01*
X032282Y027294D01*
X032249Y027265D01*
X032213Y027239D01*
X032175Y027217D01*
X032135Y027198D01*
X032094Y027182D01*
X032051Y027170D01*
X032008Y027162D01*
X031964Y027158D01*
X031920Y027158D01*
X031876Y027162D01*
X031833Y027170D01*
X031790Y027182D01*
X031749Y027198D01*
X031709Y027217D01*
X031671Y027239D01*
X031635Y027265D01*
X031602Y027294D01*
X031571Y027326D01*
X031544Y027361D01*
X031520Y027398D01*
X031499Y027437D01*
X031481Y027477D01*
X031468Y027519D01*
X031458Y027562D01*
X031452Y027606D01*
X031450Y027650D01*
X013050Y027650D02*
X013052Y027694D01*
X013058Y027738D01*
X013068Y027781D01*
X013081Y027823D01*
X013099Y027863D01*
X013120Y027902D01*
X013144Y027939D01*
X013171Y027974D01*
X013202Y028006D01*
X013235Y028035D01*
X013271Y028061D01*
X013309Y028083D01*
X013349Y028102D01*
X013390Y028118D01*
X013433Y028130D01*
X013476Y028138D01*
X013520Y028142D01*
X013564Y028142D01*
X013608Y028138D01*
X013651Y028130D01*
X013694Y028118D01*
X013735Y028102D01*
X013775Y028083D01*
X013813Y028061D01*
X013849Y028035D01*
X013882Y028006D01*
X013913Y027974D01*
X013940Y027939D01*
X013964Y027902D01*
X013985Y027863D01*
X014003Y027823D01*
X014016Y027781D01*
X014026Y027738D01*
X014032Y027694D01*
X014034Y027650D01*
X014032Y027606D01*
X014026Y027562D01*
X014016Y027519D01*
X014003Y027477D01*
X013985Y027437D01*
X013964Y027398D01*
X013940Y027361D01*
X013913Y027326D01*
X013882Y027294D01*
X013849Y027265D01*
X013813Y027239D01*
X013775Y027217D01*
X013735Y027198D01*
X013694Y027182D01*
X013651Y027170D01*
X013608Y027162D01*
X013564Y027158D01*
X013520Y027158D01*
X013476Y027162D01*
X013433Y027170D01*
X013390Y027182D01*
X013349Y027198D01*
X013309Y027217D01*
X013271Y027239D01*
X013235Y027265D01*
X013202Y027294D01*
X013171Y027326D01*
X013144Y027361D01*
X013120Y027398D01*
X013099Y027437D01*
X013081Y027477D01*
X013068Y027519D01*
X013058Y027562D01*
X013052Y027606D01*
X013050Y027650D01*
D11*
X013542Y027650D03*
X031942Y027650D03*
X031942Y001900D03*
X013542Y001900D03*
D12*
X017442Y008440D03*
X017942Y008440D03*
X018442Y008440D03*
X018942Y008440D03*
X019442Y008440D03*
X019942Y008440D03*
X020442Y008440D03*
X020942Y008440D03*
X020942Y010860D03*
X020442Y010860D03*
X019942Y010860D03*
X019442Y010860D03*
X018942Y010860D03*
X018442Y010860D03*
X017942Y010860D03*
X017442Y010860D03*
X017442Y012940D03*
X017942Y012940D03*
X018442Y012940D03*
X018942Y012940D03*
X019442Y012940D03*
X019942Y012940D03*
X020442Y012940D03*
X020942Y012940D03*
X020942Y015360D03*
X020442Y015360D03*
X019942Y015360D03*
X019442Y015360D03*
X018942Y015360D03*
X018442Y015360D03*
X017942Y015360D03*
X017442Y015360D03*
X017442Y017440D03*
X017942Y017440D03*
X018442Y017440D03*
X018942Y017440D03*
X019442Y017440D03*
X019942Y017440D03*
X020442Y017440D03*
X020942Y017440D03*
X020942Y019860D03*
X020442Y019860D03*
X019942Y019860D03*
X019442Y019860D03*
X018942Y019860D03*
X018442Y019860D03*
X017942Y019860D03*
X017442Y019860D03*
D13*
G36*
X007812Y010177D02*
X008089Y010454D01*
X008158Y010385D01*
X007881Y010108D01*
X007812Y010177D01*
G37*
G36*
X007951Y010038D02*
X008228Y010315D01*
X008297Y010246D01*
X008020Y009969D01*
X007951Y010038D01*
G37*
G36*
X008090Y009898D02*
X008367Y010175D01*
X008436Y010106D01*
X008159Y009829D01*
X008090Y009898D01*
G37*
G36*
X008229Y009759D02*
X008506Y010036D01*
X008575Y009967D01*
X008298Y009690D01*
X008229Y009759D01*
G37*
G36*
X008368Y009620D02*
X008645Y009897D01*
X008714Y009828D01*
X008437Y009551D01*
X008368Y009620D01*
G37*
G36*
X008507Y009481D02*
X008784Y009758D01*
X008853Y009689D01*
X008576Y009412D01*
X008507Y009481D01*
G37*
G36*
X008647Y009342D02*
X008924Y009619D01*
X008993Y009550D01*
X008716Y009273D01*
X008647Y009342D01*
G37*
G36*
X008786Y009202D02*
X009063Y009479D01*
X009132Y009410D01*
X008855Y009133D01*
X008786Y009202D01*
G37*
G36*
X008925Y009063D02*
X009202Y009340D01*
X009271Y009271D01*
X008994Y008994D01*
X008925Y009063D01*
G37*
G36*
X009064Y008924D02*
X009341Y009201D01*
X009410Y009132D01*
X009133Y008855D01*
X009064Y008924D01*
G37*
G36*
X009203Y008785D02*
X009480Y009062D01*
X009549Y008993D01*
X009272Y008716D01*
X009203Y008785D01*
G37*
G36*
X009343Y008646D02*
X009620Y008923D01*
X009689Y008854D01*
X009412Y008577D01*
X009343Y008646D01*
G37*
G36*
X009482Y008506D02*
X009759Y008783D01*
X009828Y008714D01*
X009551Y008437D01*
X009482Y008506D01*
G37*
G36*
X009621Y008367D02*
X009898Y008644D01*
X009967Y008575D01*
X009690Y008298D01*
X009621Y008367D01*
G37*
G36*
X009760Y008228D02*
X010037Y008505D01*
X010106Y008436D01*
X009829Y008159D01*
X009760Y008228D01*
G37*
G36*
X009899Y008089D02*
X010176Y008366D01*
X010245Y008297D01*
X009968Y008020D01*
X009899Y008089D01*
G37*
G36*
X009968Y007280D02*
X010245Y007003D01*
X010176Y006934D01*
X009899Y007211D01*
X009968Y007280D01*
G37*
G36*
X009829Y007141D02*
X010106Y006864D01*
X010037Y006795D01*
X009760Y007072D01*
X009829Y007141D01*
G37*
G36*
X009690Y007002D02*
X009967Y006725D01*
X009898Y006656D01*
X009621Y006933D01*
X009690Y007002D01*
G37*
G36*
X009551Y006863D02*
X009828Y006586D01*
X009759Y006517D01*
X009482Y006794D01*
X009551Y006863D01*
G37*
G36*
X009412Y006723D02*
X009689Y006446D01*
X009620Y006377D01*
X009343Y006654D01*
X009412Y006723D01*
G37*
G36*
X009272Y006584D02*
X009549Y006307D01*
X009480Y006238D01*
X009203Y006515D01*
X009272Y006584D01*
G37*
G36*
X009133Y006445D02*
X009410Y006168D01*
X009341Y006099D01*
X009064Y006376D01*
X009133Y006445D01*
G37*
G36*
X008994Y006306D02*
X009271Y006029D01*
X009202Y005960D01*
X008925Y006237D01*
X008994Y006306D01*
G37*
G36*
X008855Y006167D02*
X009132Y005890D01*
X009063Y005821D01*
X008786Y006098D01*
X008855Y006167D01*
G37*
G36*
X008716Y006027D02*
X008993Y005750D01*
X008924Y005681D01*
X008647Y005958D01*
X008716Y006027D01*
G37*
G36*
X008576Y005888D02*
X008853Y005611D01*
X008784Y005542D01*
X008507Y005819D01*
X008576Y005888D01*
G37*
G36*
X008437Y005749D02*
X008714Y005472D01*
X008645Y005403D01*
X008368Y005680D01*
X008437Y005749D01*
G37*
G36*
X008298Y005610D02*
X008575Y005333D01*
X008506Y005264D01*
X008229Y005541D01*
X008298Y005610D01*
G37*
G36*
X008159Y005471D02*
X008436Y005194D01*
X008367Y005125D01*
X008090Y005402D01*
X008159Y005471D01*
G37*
G36*
X008020Y005331D02*
X008297Y005054D01*
X008228Y004985D01*
X007951Y005262D01*
X008020Y005331D01*
G37*
G36*
X007881Y005192D02*
X008158Y004915D01*
X008089Y004846D01*
X007812Y005123D01*
X007881Y005192D01*
G37*
G36*
X007072Y005123D02*
X006795Y004846D01*
X006726Y004915D01*
X007003Y005192D01*
X007072Y005123D01*
G37*
G36*
X006933Y005262D02*
X006656Y004985D01*
X006587Y005054D01*
X006864Y005331D01*
X006933Y005262D01*
G37*
G36*
X006793Y005402D02*
X006516Y005125D01*
X006447Y005194D01*
X006724Y005471D01*
X006793Y005402D01*
G37*
G36*
X006654Y005541D02*
X006377Y005264D01*
X006308Y005333D01*
X006585Y005610D01*
X006654Y005541D01*
G37*
G36*
X006515Y005680D02*
X006238Y005403D01*
X006169Y005472D01*
X006446Y005749D01*
X006515Y005680D01*
G37*
G36*
X006376Y005819D02*
X006099Y005542D01*
X006030Y005611D01*
X006307Y005888D01*
X006376Y005819D01*
G37*
G36*
X006237Y005958D02*
X005960Y005681D01*
X005891Y005750D01*
X006168Y006027D01*
X006237Y005958D01*
G37*
G36*
X006097Y006098D02*
X005820Y005821D01*
X005751Y005890D01*
X006028Y006167D01*
X006097Y006098D01*
G37*
G36*
X005958Y006237D02*
X005681Y005960D01*
X005612Y006029D01*
X005889Y006306D01*
X005958Y006237D01*
G37*
G36*
X005819Y006376D02*
X005542Y006099D01*
X005473Y006168D01*
X005750Y006445D01*
X005819Y006376D01*
G37*
G36*
X005680Y006515D02*
X005403Y006238D01*
X005334Y006307D01*
X005611Y006584D01*
X005680Y006515D01*
G37*
G36*
X005541Y006654D02*
X005264Y006377D01*
X005195Y006446D01*
X005472Y006723D01*
X005541Y006654D01*
G37*
G36*
X005401Y006794D02*
X005124Y006517D01*
X005055Y006586D01*
X005332Y006863D01*
X005401Y006794D01*
G37*
G36*
X005262Y006933D02*
X004985Y006656D01*
X004916Y006725D01*
X005193Y007002D01*
X005262Y006933D01*
G37*
G36*
X005123Y007072D02*
X004846Y006795D01*
X004777Y006864D01*
X005054Y007141D01*
X005123Y007072D01*
G37*
G36*
X004984Y007211D02*
X004707Y006934D01*
X004638Y007003D01*
X004915Y007280D01*
X004984Y007211D01*
G37*
G36*
X004915Y008020D02*
X004638Y008297D01*
X004707Y008366D01*
X004984Y008089D01*
X004915Y008020D01*
G37*
G36*
X005054Y008159D02*
X004777Y008436D01*
X004846Y008505D01*
X005123Y008228D01*
X005054Y008159D01*
G37*
G36*
X005193Y008298D02*
X004916Y008575D01*
X004985Y008644D01*
X005262Y008367D01*
X005193Y008298D01*
G37*
G36*
X005332Y008437D02*
X005055Y008714D01*
X005124Y008783D01*
X005401Y008506D01*
X005332Y008437D01*
G37*
G36*
X005472Y008577D02*
X005195Y008854D01*
X005264Y008923D01*
X005541Y008646D01*
X005472Y008577D01*
G37*
G36*
X005611Y008716D02*
X005334Y008993D01*
X005403Y009062D01*
X005680Y008785D01*
X005611Y008716D01*
G37*
G36*
X005750Y008855D02*
X005473Y009132D01*
X005542Y009201D01*
X005819Y008924D01*
X005750Y008855D01*
G37*
G36*
X005889Y008994D02*
X005612Y009271D01*
X005681Y009340D01*
X005958Y009063D01*
X005889Y008994D01*
G37*
G36*
X006028Y009133D02*
X005751Y009410D01*
X005820Y009479D01*
X006097Y009202D01*
X006028Y009133D01*
G37*
G36*
X006168Y009273D02*
X005891Y009550D01*
X005960Y009619D01*
X006237Y009342D01*
X006168Y009273D01*
G37*
G36*
X006307Y009412D02*
X006030Y009689D01*
X006099Y009758D01*
X006376Y009481D01*
X006307Y009412D01*
G37*
G36*
X006446Y009551D02*
X006169Y009828D01*
X006238Y009897D01*
X006515Y009620D01*
X006446Y009551D01*
G37*
G36*
X006585Y009690D02*
X006308Y009967D01*
X006377Y010036D01*
X006654Y009759D01*
X006585Y009690D01*
G37*
G36*
X006724Y009829D02*
X006447Y010106D01*
X006516Y010175D01*
X006793Y009898D01*
X006724Y009829D01*
G37*
G36*
X006864Y009969D02*
X006587Y010246D01*
X006656Y010315D01*
X006933Y010038D01*
X006864Y009969D01*
G37*
G36*
X007003Y010108D02*
X006726Y010385D01*
X006795Y010454D01*
X007072Y010177D01*
X007003Y010108D01*
G37*
D14*
G36*
X009669Y007650D02*
X007442Y005423D01*
X005215Y007650D01*
X007442Y009877D01*
X009669Y007650D01*
G37*
D15*
X009990Y005150D03*
X011093Y005150D03*
D16*
X008842Y003851D03*
X008842Y002749D03*
X006192Y012349D03*
X006192Y013451D03*
D17*
X004842Y013185D03*
X004842Y012515D03*
X004842Y011785D03*
X004842Y011115D03*
X007607Y014900D03*
X008276Y014900D03*
X008442Y015815D03*
X007692Y015815D03*
X007692Y016485D03*
X008442Y016485D03*
X008442Y017565D03*
X007692Y017565D03*
X007692Y018235D03*
X008442Y018235D03*
X008442Y019315D03*
X007692Y019315D03*
X007692Y019985D03*
X008442Y019985D03*
X008442Y021065D03*
X007692Y021065D03*
X007692Y021735D03*
X008442Y021735D03*
X005192Y021735D03*
X005192Y021065D03*
X005192Y019985D03*
X005192Y019315D03*
X005192Y018235D03*
X005192Y017565D03*
X005192Y016485D03*
X005192Y015815D03*
X017442Y024565D03*
X017442Y025235D03*
X019192Y026315D03*
X019192Y026985D03*
X026872Y009420D03*
X026872Y008750D03*
X016776Y003300D03*
X016107Y003300D03*
D18*
X015694Y004146D03*
X017190Y004146D03*
X017190Y006154D03*
X015694Y006154D03*
D19*
X013842Y006275D03*
X013842Y007275D03*
X013842Y008275D03*
X012842Y008275D03*
X012842Y007275D03*
X012842Y006275D03*
X012842Y005275D03*
X013842Y005275D03*
X013842Y004275D03*
X012842Y004275D03*
X012842Y009275D03*
X013842Y009275D03*
X013842Y010275D03*
X013842Y011275D03*
X012842Y011275D03*
X012842Y010275D03*
X012842Y012275D03*
X013842Y012275D03*
X013842Y013275D03*
X012842Y013275D03*
X012842Y014275D03*
X013842Y014275D03*
X013842Y015275D03*
X013842Y016275D03*
X012842Y016275D03*
X012842Y015275D03*
X012842Y017275D03*
X013842Y017275D03*
X013842Y018275D03*
X013842Y019275D03*
X012842Y019275D03*
X012842Y018275D03*
X012842Y020275D03*
X013842Y020275D03*
X013842Y021275D03*
X012842Y021275D03*
X012842Y022275D03*
X013842Y022275D03*
X013842Y023275D03*
X013842Y024275D03*
X012842Y024275D03*
X012842Y023275D03*
X012842Y025275D03*
X013842Y025275D03*
D20*
X008942Y013674D03*
X008442Y013674D03*
X007942Y013674D03*
X007442Y013674D03*
X007442Y011626D03*
X007942Y011626D03*
X008442Y011626D03*
X008942Y011626D03*
D21*
X032162Y008642D03*
X032942Y008642D03*
X032942Y007658D03*
X032162Y007658D03*
D22*
X034012Y005780D03*
X034012Y010520D03*
D23*
X029997Y015272D03*
X029997Y016206D03*
X029997Y017094D03*
X029997Y018028D03*
D24*
X030942Y018933D03*
X030942Y014367D03*
D25*
X030981Y015764D03*
X030981Y017536D03*
D26*
X028942Y012909D02*
X028942Y012391D01*
X027942Y012391D02*
X027942Y012909D01*
X006192Y022891D02*
X006192Y023409D01*
X005192Y023409D02*
X005192Y022891D01*
X005192Y024641D02*
X005192Y025159D01*
X006192Y025159D02*
X006192Y024641D01*
X006192Y026391D02*
X006192Y026909D01*
X005192Y026909D02*
X005192Y026391D01*
D27*
X016442Y018985D03*
X016442Y018315D03*
X016442Y014485D03*
X016442Y013815D03*
X016442Y009985D03*
X016442Y009315D03*
D28*
X009776Y010650D03*
X009107Y010650D03*
X006276Y011150D03*
X005607Y011150D03*
D29*
X004842Y010485D03*
X004842Y009815D03*
X005442Y004985D03*
X005442Y004315D03*
D30*
X010009Y003650D03*
X010875Y003276D03*
X010875Y004024D03*
X006875Y015776D03*
X006875Y016524D03*
X006009Y016150D03*
X006875Y017526D03*
X006875Y018274D03*
X006009Y017900D03*
X006875Y019276D03*
X006009Y019650D03*
X006875Y020024D03*
X006875Y021026D03*
X006009Y021400D03*
X006875Y021774D03*
X017509Y026650D03*
X018375Y027024D03*
X018375Y026276D03*
X018259Y025274D03*
X019125Y024900D03*
X018259Y024526D03*
D31*
X002431Y023849D03*
X002431Y022471D03*
X002431Y021093D03*
X002431Y019715D03*
X002431Y018337D03*
X002431Y016959D03*
X002431Y015582D03*
X002431Y013985D03*
X002431Y012607D03*
X002431Y011229D03*
X002431Y009851D03*
X002431Y008473D03*
X002431Y007095D03*
X002431Y005717D03*
X002431Y004339D03*
X002431Y002962D03*
X002431Y025227D03*
X002431Y026605D03*
D32*
X017430Y028028D03*
X018430Y028028D03*
X019430Y028028D03*
X025430Y028028D03*
X027430Y028028D03*
X027430Y022028D03*
X025430Y022028D03*
X019430Y022028D03*
X018430Y022028D03*
D33*
X010692Y010926D03*
X010692Y010296D03*
M02*
