%
M48
M72
T01C0.0118
T02C0.0276
T03C0.0360
T04C0.0394
T05C0.0433
T06C0.0866
T07C0.0900
%
T01
X1942Y2400
X1942Y3400
X1942Y3900
X1942Y4900
X2942Y4650
X3442Y4900
X3192Y5400
X3942Y5400
X3592Y6150
X3092Y6150
X3092Y6650
X3592Y6650
X3692Y7500
X4192Y7500
X4692Y7750
X4192Y8050
X3692Y8050
X3192Y8050
X3192Y7500
X1942Y7650
X1942Y6650
X1942Y6150
X4192Y4150
X3692Y3650
X3192Y3150
X3192Y2400
X4692Y4650
X5942Y4315
X6342Y4850
X5642Y5550
X5042Y5950
X6189Y7232
X6606Y7650
X7024Y7232
X7442Y7650
X7859Y7232
X8277Y7650
X8694Y7232
X9112Y7650
X8694Y8068
X8277Y8485
X7859Y8068
X7442Y8485
X7859Y8903
X7442Y9320
X7024Y8903
X6606Y8485
X6189Y8068
X5771Y7650
X6606Y6815
X7024Y6397
X7442Y5980
X7859Y6397
X7442Y6815
X8277Y6815
X9342Y5611
X8942Y4950
X8442Y4750
X9642Y4200
X11642Y5150
X11292Y6750
X10242Y6650
X9942Y8950
X10242Y9850
X10692Y9900
X9776Y10065
X8542Y10350
X10692Y11400
X11692Y11400
X11592Y10800
X11442Y12400
X8442Y14350
X7442Y14450
X6192Y14050
X4842Y14500
X7692Y16900
X6875Y17000
X7692Y18650
X6875Y18750
X7692Y20400
X6875Y20500
X6875Y22250
X7692Y22150
X15442Y16400
X15942Y16750
X16317Y17275
X16442Y17900
X17942Y19150
X16692Y19650
X18442Y16750
X18942Y16650
X17442Y16050
X16692Y15150
X17942Y14650
X18442Y14650
X17942Y14150
X18442Y13650
X19442Y13650
X20942Y13650
X21792Y13950
X22192Y14300
X21392Y14650
X19942Y14650
X20942Y16150
X20442Y16650
X20942Y18150
X23942Y18150
X24192Y16150
X23692Y15900
X28942Y18150
X32192Y20400
X32192Y25400
X18259Y23900
X16192Y23315
X14692Y16150
X15442Y13650
X15942Y13650
X16442Y13300
X15442Y12900
X16692Y10650
X18442Y10150
X19442Y10150
X20942Y9150
X21392Y11650
X19942Y11650
X22692Y11650
X26211Y9420
X26192Y8863
X29192Y10363
X17792Y6150
X17192Y3300
X10692Y2150
X10192Y2650
X7024Y8068
X5642Y9750
X4942Y9350
X4042Y9750
X3442Y9400
X2942Y9400
X3192Y8900
X3692Y8900
X1942Y8900
X1942Y9400
X1942Y10400
X2942Y10400
X3442Y10400
X3942Y10400
X5607Y10485
X6242Y10350
X6192Y11750
X16442Y8900
T02
X18430Y22028
X19430Y22028
X25430Y22028
X27430Y22028
X27430Y28028
X25430Y28028
X19430Y28028
X18430Y28028
X17430Y28028
T03
X6192Y26650
X5192Y26650
X5192Y24900
X6192Y24900
X6192Y23150
X5192Y23150
X27942Y12650
X28942Y12650
X29997Y15272
X29997Y16206
X29997Y17094
X29997Y18028
X32162Y8642
X32942Y8642
X32942Y7658
X32162Y7658
T04
X13842Y7275
X13842Y6275
X12842Y6275
X12842Y7275
X12842Y8275
X13842Y8275
X13842Y9275
X13842Y10275
X13842Y11275
X12842Y11275
X12842Y10275
X12842Y9275
X12842Y12275
X13842Y12275
X13842Y13275
X12842Y13275
X12842Y14275
X13842Y14275
X13842Y15275
X13842Y16275
X12842Y16275
X12842Y15275
X12842Y17275
X13842Y17275
X13842Y18275
X13842Y19275
X12842Y19275
X12842Y18275
X12842Y20275
X13842Y20275
X13842Y21275
X12842Y21275
X12842Y22275
X13842Y22275
X13842Y23275
X13842Y24275
X12842Y24275
X12842Y23275
X12842Y25275
X13842Y25275
X13842Y5275
X13842Y4275
X12842Y4275
X12842Y5275
T05
X2431Y5717
X2431Y7095
X2431Y8473
X2431Y9851
X2431Y11229
X2431Y12607
X2431Y13985
X2431Y15582
X2431Y16959
X2431Y18337
X2431Y19715
X2431Y21093
X2431Y22471
X2431Y23849
X2431Y25227
X2431Y26605
X2431Y4339
X2431Y2962
T06
X30942Y14367
X30942Y18933
T07
X34012Y10520
X34012Y5780
M30
