G75*
%MOIN*%
%OFA0B0*%
%FSLAX24Y24*%
%IPPOS*%
%LPD*%
%AMOC8*
5,1,8,0,0,1.08239X$1,22.5*
%
%ADD10C,0.0000*%
%ADD11R,0.2250X0.0750*%
%ADD12R,0.0750X0.2250*%
%ADD13R,0.0787X0.0787*%
%ADD14OC8,0.0591*%
%ADD15R,0.0807X0.0299*%
%ADD16C,0.0660*%
%ADD17C,0.1057*%
%ADD18C,0.0740*%
%ADD19C,0.1024*%
%ADD20C,0.0517*%
%ADD21C,0.0669*%
%ADD22C,0.0591*%
%ADD23R,0.0512X0.1417*%
%ADD24R,0.1417X0.0512*%
%ADD25C,0.0276*%
%ADD26C,0.0400*%
%ADD27C,0.0200*%
%ADD28C,0.0120*%
D10*
X000942Y000150D02*
X000942Y029400D01*
X037942Y029400D01*
X037942Y000150D01*
X000942Y000150D01*
X013050Y001900D02*
X013052Y001944D01*
X013058Y001988D01*
X013068Y002031D01*
X013081Y002073D01*
X013099Y002113D01*
X013120Y002152D01*
X013144Y002189D01*
X013171Y002224D01*
X013202Y002256D01*
X013235Y002285D01*
X013271Y002311D01*
X013309Y002333D01*
X013349Y002352D01*
X013390Y002368D01*
X013433Y002380D01*
X013476Y002388D01*
X013520Y002392D01*
X013564Y002392D01*
X013608Y002388D01*
X013651Y002380D01*
X013694Y002368D01*
X013735Y002352D01*
X013775Y002333D01*
X013813Y002311D01*
X013849Y002285D01*
X013882Y002256D01*
X013913Y002224D01*
X013940Y002189D01*
X013964Y002152D01*
X013985Y002113D01*
X014003Y002073D01*
X014016Y002031D01*
X014026Y001988D01*
X014032Y001944D01*
X014034Y001900D01*
X014032Y001856D01*
X014026Y001812D01*
X014016Y001769D01*
X014003Y001727D01*
X013985Y001687D01*
X013964Y001648D01*
X013940Y001611D01*
X013913Y001576D01*
X013882Y001544D01*
X013849Y001515D01*
X013813Y001489D01*
X013775Y001467D01*
X013735Y001448D01*
X013694Y001432D01*
X013651Y001420D01*
X013608Y001412D01*
X013564Y001408D01*
X013520Y001408D01*
X013476Y001412D01*
X013433Y001420D01*
X013390Y001432D01*
X013349Y001448D01*
X013309Y001467D01*
X013271Y001489D01*
X013235Y001515D01*
X013202Y001544D01*
X013171Y001576D01*
X013144Y001611D01*
X013120Y001648D01*
X013099Y001687D01*
X013081Y001727D01*
X013068Y001769D01*
X013058Y001812D01*
X013052Y001856D01*
X013050Y001900D01*
X031450Y001900D02*
X031452Y001944D01*
X031458Y001988D01*
X031468Y002031D01*
X031481Y002073D01*
X031499Y002113D01*
X031520Y002152D01*
X031544Y002189D01*
X031571Y002224D01*
X031602Y002256D01*
X031635Y002285D01*
X031671Y002311D01*
X031709Y002333D01*
X031749Y002352D01*
X031790Y002368D01*
X031833Y002380D01*
X031876Y002388D01*
X031920Y002392D01*
X031964Y002392D01*
X032008Y002388D01*
X032051Y002380D01*
X032094Y002368D01*
X032135Y002352D01*
X032175Y002333D01*
X032213Y002311D01*
X032249Y002285D01*
X032282Y002256D01*
X032313Y002224D01*
X032340Y002189D01*
X032364Y002152D01*
X032385Y002113D01*
X032403Y002073D01*
X032416Y002031D01*
X032426Y001988D01*
X032432Y001944D01*
X032434Y001900D01*
X032432Y001856D01*
X032426Y001812D01*
X032416Y001769D01*
X032403Y001727D01*
X032385Y001687D01*
X032364Y001648D01*
X032340Y001611D01*
X032313Y001576D01*
X032282Y001544D01*
X032249Y001515D01*
X032213Y001489D01*
X032175Y001467D01*
X032135Y001448D01*
X032094Y001432D01*
X032051Y001420D01*
X032008Y001412D01*
X031964Y001408D01*
X031920Y001408D01*
X031876Y001412D01*
X031833Y001420D01*
X031790Y001432D01*
X031749Y001448D01*
X031709Y001467D01*
X031671Y001489D01*
X031635Y001515D01*
X031602Y001544D01*
X031571Y001576D01*
X031544Y001611D01*
X031520Y001648D01*
X031499Y001687D01*
X031481Y001727D01*
X031468Y001769D01*
X031458Y001812D01*
X031452Y001856D01*
X031450Y001900D01*
X030764Y015764D02*
X030766Y015793D01*
X030772Y015821D01*
X030781Y015849D01*
X030794Y015875D01*
X030811Y015898D01*
X030830Y015920D01*
X030852Y015939D01*
X030877Y015954D01*
X030903Y015967D01*
X030931Y015975D01*
X030959Y015980D01*
X030988Y015981D01*
X031017Y015978D01*
X031045Y015971D01*
X031072Y015961D01*
X031098Y015947D01*
X031121Y015930D01*
X031142Y015910D01*
X031160Y015887D01*
X031175Y015862D01*
X031186Y015835D01*
X031194Y015807D01*
X031198Y015778D01*
X031198Y015750D01*
X031194Y015721D01*
X031186Y015693D01*
X031175Y015666D01*
X031160Y015641D01*
X031142Y015618D01*
X031121Y015598D01*
X031098Y015581D01*
X031072Y015567D01*
X031045Y015557D01*
X031017Y015550D01*
X030988Y015547D01*
X030959Y015548D01*
X030931Y015553D01*
X030903Y015561D01*
X030877Y015574D01*
X030852Y015589D01*
X030830Y015608D01*
X030811Y015630D01*
X030794Y015653D01*
X030781Y015679D01*
X030772Y015707D01*
X030766Y015735D01*
X030764Y015764D01*
X030764Y017536D02*
X030766Y017565D01*
X030772Y017593D01*
X030781Y017621D01*
X030794Y017647D01*
X030811Y017670D01*
X030830Y017692D01*
X030852Y017711D01*
X030877Y017726D01*
X030903Y017739D01*
X030931Y017747D01*
X030959Y017752D01*
X030988Y017753D01*
X031017Y017750D01*
X031045Y017743D01*
X031072Y017733D01*
X031098Y017719D01*
X031121Y017702D01*
X031142Y017682D01*
X031160Y017659D01*
X031175Y017634D01*
X031186Y017607D01*
X031194Y017579D01*
X031198Y017550D01*
X031198Y017522D01*
X031194Y017493D01*
X031186Y017465D01*
X031175Y017438D01*
X031160Y017413D01*
X031142Y017390D01*
X031121Y017370D01*
X031098Y017353D01*
X031072Y017339D01*
X031045Y017329D01*
X031017Y017322D01*
X030988Y017319D01*
X030959Y017320D01*
X030931Y017325D01*
X030903Y017333D01*
X030877Y017346D01*
X030852Y017361D01*
X030830Y017380D01*
X030811Y017402D01*
X030794Y017425D01*
X030781Y017451D01*
X030772Y017479D01*
X030766Y017507D01*
X030764Y017536D01*
X031450Y027650D02*
X031452Y027694D01*
X031458Y027738D01*
X031468Y027781D01*
X031481Y027823D01*
X031499Y027863D01*
X031520Y027902D01*
X031544Y027939D01*
X031571Y027974D01*
X031602Y028006D01*
X031635Y028035D01*
X031671Y028061D01*
X031709Y028083D01*
X031749Y028102D01*
X031790Y028118D01*
X031833Y028130D01*
X031876Y028138D01*
X031920Y028142D01*
X031964Y028142D01*
X032008Y028138D01*
X032051Y028130D01*
X032094Y028118D01*
X032135Y028102D01*
X032175Y028083D01*
X032213Y028061D01*
X032249Y028035D01*
X032282Y028006D01*
X032313Y027974D01*
X032340Y027939D01*
X032364Y027902D01*
X032385Y027863D01*
X032403Y027823D01*
X032416Y027781D01*
X032426Y027738D01*
X032432Y027694D01*
X032434Y027650D01*
X032432Y027606D01*
X032426Y027562D01*
X032416Y027519D01*
X032403Y027477D01*
X032385Y027437D01*
X032364Y027398D01*
X032340Y027361D01*
X032313Y027326D01*
X032282Y027294D01*
X032249Y027265D01*
X032213Y027239D01*
X032175Y027217D01*
X032135Y027198D01*
X032094Y027182D01*
X032051Y027170D01*
X032008Y027162D01*
X031964Y027158D01*
X031920Y027158D01*
X031876Y027162D01*
X031833Y027170D01*
X031790Y027182D01*
X031749Y027198D01*
X031709Y027217D01*
X031671Y027239D01*
X031635Y027265D01*
X031602Y027294D01*
X031571Y027326D01*
X031544Y027361D01*
X031520Y027398D01*
X031499Y027437D01*
X031481Y027477D01*
X031468Y027519D01*
X031458Y027562D01*
X031452Y027606D01*
X031450Y027650D01*
X013050Y027650D02*
X013052Y027694D01*
X013058Y027738D01*
X013068Y027781D01*
X013081Y027823D01*
X013099Y027863D01*
X013120Y027902D01*
X013144Y027939D01*
X013171Y027974D01*
X013202Y028006D01*
X013235Y028035D01*
X013271Y028061D01*
X013309Y028083D01*
X013349Y028102D01*
X013390Y028118D01*
X013433Y028130D01*
X013476Y028138D01*
X013520Y028142D01*
X013564Y028142D01*
X013608Y028138D01*
X013651Y028130D01*
X013694Y028118D01*
X013735Y028102D01*
X013775Y028083D01*
X013813Y028061D01*
X013849Y028035D01*
X013882Y028006D01*
X013913Y027974D01*
X013940Y027939D01*
X013964Y027902D01*
X013985Y027863D01*
X014003Y027823D01*
X014016Y027781D01*
X014026Y027738D01*
X014032Y027694D01*
X014034Y027650D01*
X014032Y027606D01*
X014026Y027562D01*
X014016Y027519D01*
X014003Y027477D01*
X013985Y027437D01*
X013964Y027398D01*
X013940Y027361D01*
X013913Y027326D01*
X013882Y027294D01*
X013849Y027265D01*
X013813Y027239D01*
X013775Y027217D01*
X013735Y027198D01*
X013694Y027182D01*
X013651Y027170D01*
X013608Y027162D01*
X013564Y027158D01*
X013520Y027158D01*
X013476Y027162D01*
X013433Y027170D01*
X013390Y027182D01*
X013349Y027198D01*
X013309Y027217D01*
X013271Y027239D01*
X013235Y027265D01*
X013202Y027294D01*
X013171Y027326D01*
X013144Y027361D01*
X013120Y027398D01*
X013099Y027437D01*
X013081Y027477D01*
X013068Y027519D01*
X013058Y027562D01*
X013052Y027606D01*
X013050Y027650D01*
D11*
X024567Y011775D03*
X024567Y000775D03*
D12*
X030067Y006275D03*
X019067Y006525D03*
D13*
G36*
X009667Y007650D02*
X009112Y007095D01*
X008557Y007650D01*
X009112Y008205D01*
X009667Y007650D01*
G37*
G36*
X009249Y008068D02*
X008694Y007513D01*
X008139Y008068D01*
X008694Y008623D01*
X009249Y008068D01*
G37*
G36*
X008832Y008485D02*
X008277Y007930D01*
X007722Y008485D01*
X008277Y009040D01*
X008832Y008485D01*
G37*
G36*
X008414Y008068D02*
X007859Y007513D01*
X007304Y008068D01*
X007859Y008623D01*
X008414Y008068D01*
G37*
G36*
X008832Y007650D02*
X008277Y007095D01*
X007722Y007650D01*
X008277Y008205D01*
X008832Y007650D01*
G37*
G36*
X009249Y007232D02*
X008694Y006677D01*
X008139Y007232D01*
X008694Y007787D01*
X009249Y007232D01*
G37*
G36*
X008832Y006815D02*
X008277Y006260D01*
X007722Y006815D01*
X008277Y007370D01*
X008832Y006815D01*
G37*
G36*
X008414Y007232D02*
X007859Y006677D01*
X007304Y007232D01*
X007859Y007787D01*
X008414Y007232D01*
G37*
G36*
X007997Y006815D02*
X007442Y006260D01*
X006887Y006815D01*
X007442Y007370D01*
X007997Y006815D01*
G37*
G36*
X008414Y006397D02*
X007859Y005842D01*
X007304Y006397D01*
X007859Y006952D01*
X008414Y006397D01*
G37*
G36*
X007997Y005980D02*
X007442Y005425D01*
X006887Y005980D01*
X007442Y006535D01*
X007997Y005980D01*
G37*
G36*
X007579Y006397D02*
X007024Y005842D01*
X006469Y006397D01*
X007024Y006952D01*
X007579Y006397D01*
G37*
G36*
X007161Y006815D02*
X006606Y006260D01*
X006051Y006815D01*
X006606Y007370D01*
X007161Y006815D01*
G37*
G36*
X007579Y007232D02*
X007024Y006677D01*
X006469Y007232D01*
X007024Y007787D01*
X007579Y007232D01*
G37*
G36*
X007997Y007650D02*
X007442Y007095D01*
X006887Y007650D01*
X007442Y008205D01*
X007997Y007650D01*
G37*
G36*
X007579Y008068D02*
X007024Y007513D01*
X006469Y008068D01*
X007024Y008623D01*
X007579Y008068D01*
G37*
G36*
X007997Y008485D02*
X007442Y007930D01*
X006887Y008485D01*
X007442Y009040D01*
X007997Y008485D01*
G37*
G36*
X008414Y008903D02*
X007859Y008348D01*
X007304Y008903D01*
X007859Y009458D01*
X008414Y008903D01*
G37*
G36*
X007997Y009320D02*
X007442Y008765D01*
X006887Y009320D01*
X007442Y009875D01*
X007997Y009320D01*
G37*
G36*
X007579Y008903D02*
X007024Y008348D01*
X006469Y008903D01*
X007024Y009458D01*
X007579Y008903D01*
G37*
G36*
X007161Y008485D02*
X006606Y007930D01*
X006051Y008485D01*
X006606Y009040D01*
X007161Y008485D01*
G37*
G36*
X006744Y008068D02*
X006189Y007513D01*
X005634Y008068D01*
X006189Y008623D01*
X006744Y008068D01*
G37*
G36*
X007161Y007650D02*
X006606Y007095D01*
X006051Y007650D01*
X006606Y008205D01*
X007161Y007650D01*
G37*
G36*
X006744Y007232D02*
X006189Y006677D01*
X005634Y007232D01*
X006189Y007787D01*
X006744Y007232D01*
G37*
G36*
X006326Y007650D02*
X005771Y007095D01*
X005216Y007650D01*
X005771Y008205D01*
X006326Y007650D01*
G37*
D14*
X012842Y007275D03*
X013842Y007275D03*
X013842Y006275D03*
X012842Y006275D03*
X012842Y005275D03*
X013842Y005275D03*
X013842Y004275D03*
X012842Y004275D03*
X012842Y008275D03*
X013842Y008275D03*
X013842Y009275D03*
X013842Y010275D03*
X013842Y011275D03*
X012842Y011275D03*
X012842Y010275D03*
X012842Y009275D03*
X012842Y012275D03*
X013842Y012275D03*
X013842Y013275D03*
X012842Y013275D03*
X012842Y014275D03*
X013842Y014275D03*
X013842Y015275D03*
X013842Y016275D03*
X012842Y016275D03*
X012842Y015275D03*
X012842Y017275D03*
X013842Y017275D03*
X013842Y018275D03*
X013842Y019275D03*
X012842Y019275D03*
X012842Y018275D03*
X012842Y020275D03*
X013842Y020275D03*
X013842Y021275D03*
X012842Y021275D03*
X012842Y022275D03*
X013842Y022275D03*
X013842Y023275D03*
X013842Y024275D03*
X012842Y024275D03*
X012842Y023275D03*
X012842Y025275D03*
X013842Y025275D03*
D15*
X026973Y010363D03*
X026973Y009863D03*
X026973Y009363D03*
X026973Y008863D03*
X028375Y008863D03*
X028375Y009363D03*
X028375Y009863D03*
X028375Y010363D03*
D16*
X032162Y008642D03*
X032942Y008642D03*
X032942Y007658D03*
X032162Y007658D03*
D17*
X034012Y005780D03*
X034012Y010520D03*
D18*
X029997Y015272D03*
X029997Y016206D03*
X029997Y017094D03*
X029997Y018028D03*
D19*
X030942Y018933D03*
X030942Y014367D03*
D20*
X028942Y012909D02*
X028942Y012391D01*
X027942Y012391D02*
X027942Y012909D01*
X006192Y022891D02*
X006192Y023409D01*
X005192Y023409D02*
X005192Y022891D01*
X005192Y024641D02*
X005192Y025159D01*
X006192Y025159D02*
X006192Y024641D01*
X006192Y026391D02*
X006192Y026909D01*
X005192Y026909D02*
X005192Y026391D01*
D21*
X002431Y026605D03*
X002431Y025227D03*
X002431Y023849D03*
X002431Y022471D03*
X002431Y021093D03*
X002431Y019715D03*
X002431Y018337D03*
X002431Y016959D03*
X002431Y015582D03*
X002431Y013985D03*
X002431Y012607D03*
X002431Y011229D03*
X002431Y009851D03*
X002431Y008473D03*
X002431Y007095D03*
X002431Y005717D03*
X002431Y004339D03*
X002431Y002962D03*
D22*
X018430Y022028D03*
X019430Y022028D03*
X025430Y022028D03*
X027430Y022028D03*
X027430Y028028D03*
X025430Y028028D03*
X019430Y028028D03*
X018430Y028028D03*
X017430Y028028D03*
D23*
X032192Y024455D03*
X032192Y021355D03*
D24*
X027987Y018150D03*
X024887Y018150D03*
D25*
X023942Y018150D03*
X024192Y016150D03*
X023692Y015900D03*
X022192Y014300D03*
X021792Y013950D03*
X020942Y013650D03*
X019442Y013650D03*
X018442Y013650D03*
X017942Y014150D03*
X017942Y014650D03*
X018442Y014650D03*
X019942Y014650D03*
X021392Y014650D03*
X020942Y016150D03*
X020442Y016650D03*
X018942Y016650D03*
X018442Y016750D03*
X017442Y016050D03*
X016692Y015150D03*
X015442Y016400D03*
X015942Y016750D03*
X016317Y017275D03*
X016442Y017900D03*
X017942Y019150D03*
X016692Y019650D03*
X020942Y018150D03*
X014692Y016150D03*
X015442Y013650D03*
X015942Y013650D03*
X016442Y013300D03*
X015442Y012900D03*
X016692Y010650D03*
X018442Y010150D03*
X019442Y010150D03*
X020942Y009150D03*
X021392Y011650D03*
X019942Y011650D03*
X022692Y011650D03*
X026211Y009420D03*
X026192Y008863D03*
X029192Y010363D03*
X028942Y018150D03*
X032192Y020400D03*
X032192Y025400D03*
X018259Y023900D03*
X016192Y023315D03*
X007692Y022150D03*
X006875Y022250D03*
X006875Y020500D03*
X007692Y020400D03*
X006875Y018750D03*
X007692Y018650D03*
X006875Y017000D03*
X007692Y016900D03*
X007442Y014450D03*
X008442Y014350D03*
X006192Y014050D03*
X004842Y014500D03*
X006192Y011750D03*
X005607Y010485D03*
X006242Y010350D03*
X005642Y009750D03*
X004942Y009350D03*
X004042Y009750D03*
X003442Y009400D03*
X002942Y009400D03*
X003192Y008900D03*
X003692Y008900D03*
X003692Y008050D03*
X004192Y008050D03*
X004692Y007750D03*
X004192Y007500D03*
X003692Y007500D03*
X003192Y007500D03*
X003192Y008050D03*
X001942Y007650D03*
X001942Y006650D03*
X001942Y006150D03*
X003092Y006150D03*
X003592Y006150D03*
X003592Y006650D03*
X003092Y006650D03*
X003192Y005400D03*
X003442Y004900D03*
X002942Y004650D03*
X001942Y004900D03*
X001942Y003900D03*
X001942Y003400D03*
X001942Y002400D03*
X003192Y002400D03*
X003192Y003150D03*
X003692Y003650D03*
X004192Y004150D03*
X004692Y004650D03*
X003942Y005400D03*
X005042Y005950D03*
X005642Y005550D03*
X006342Y004850D03*
X005942Y004315D03*
X008442Y004750D03*
X008942Y004950D03*
X009342Y005611D03*
X010242Y006650D03*
X011292Y006750D03*
X011642Y005150D03*
X009642Y004200D03*
X010192Y002650D03*
X010692Y002150D03*
X017192Y003300D03*
X017792Y006150D03*
X016442Y008900D03*
X011592Y010800D03*
X011692Y011400D03*
X010692Y011400D03*
X011442Y012400D03*
X008542Y010350D03*
X009776Y010065D03*
X010242Y009850D03*
X010692Y009900D03*
X009942Y008950D03*
X003942Y010400D03*
X003442Y010400D03*
X002942Y010400D03*
X001942Y010400D03*
X001942Y009400D03*
X001942Y008900D03*
D26*
X018430Y022028D02*
X013808Y026650D01*
X008442Y026650D01*
X006192Y026650D01*
X005192Y026650D02*
X003942Y026650D01*
X003897Y026605D01*
X002431Y026605D01*
X023942Y018150D02*
X024887Y018150D01*
X027987Y018150D02*
X028942Y018150D01*
X032192Y020400D02*
X032192Y021355D01*
X032192Y024455D02*
X032192Y025400D01*
D27*
X029997Y017094D02*
X030440Y016650D01*
X031442Y016650D01*
X032162Y015930D01*
X032162Y008642D01*
X029192Y010363D02*
X028375Y010363D01*
X026973Y008863D02*
X026192Y008863D01*
X010242Y009850D02*
X010242Y019200D01*
X011792Y020750D01*
X013317Y020750D01*
X013842Y021275D01*
X008442Y016900D02*
X008442Y026650D01*
X005192Y024900D02*
X004141Y023849D01*
X002431Y023849D01*
X004488Y023150D02*
X005192Y023150D01*
X004488Y023150D02*
X002431Y021093D01*
X001692Y020354D01*
X001692Y018337D01*
X002431Y018337D01*
X001692Y018337D02*
X001692Y015582D01*
X002431Y015582D01*
X001692Y015582D02*
X001692Y013347D01*
X002431Y012607D01*
X004842Y014500D02*
X006242Y015900D01*
X007442Y015900D01*
X008442Y016900D01*
D28*
X010692Y017900D02*
X010692Y012150D01*
X011042Y011800D01*
X011042Y007000D01*
X009942Y005900D01*
X009942Y005499D01*
X009093Y004650D01*
X008792Y004650D01*
X008692Y004750D01*
X008442Y004750D01*
X009642Y004200D02*
X009642Y003200D01*
X010192Y002650D01*
X010692Y002150D02*
X012142Y003600D01*
X012142Y005350D01*
X012542Y005750D01*
X014242Y005750D01*
X017942Y009450D01*
X017942Y010650D01*
X019442Y012150D01*
X020692Y012150D01*
X022692Y014150D01*
X022692Y015150D01*
X021692Y016150D01*
X020942Y016150D01*
X020442Y016650D02*
X019817Y017275D01*
X016317Y017275D01*
X015942Y016750D02*
X018442Y016750D01*
X018692Y016400D02*
X015442Y016400D01*
X014692Y016150D02*
X014692Y021815D01*
X016192Y023315D01*
X013842Y020275D02*
X013317Y019750D01*
X012542Y019750D01*
X010692Y017900D01*
X010942Y017150D02*
X010942Y012400D01*
X011292Y012050D01*
X011292Y006750D01*
X012317Y008275D02*
X012842Y008275D01*
X012317Y008275D02*
X011592Y009000D01*
X011592Y010800D01*
X011942Y011150D02*
X011942Y009550D01*
X012217Y009275D01*
X012842Y009275D01*
X012342Y009750D02*
X013367Y009750D01*
X013842Y009275D01*
X012342Y009750D02*
X012192Y009900D01*
X012192Y011650D01*
X011442Y012400D01*
X011692Y011400D02*
X011942Y011150D01*
X013842Y013275D02*
X014317Y013275D01*
X017092Y016050D01*
X017442Y016050D01*
X018692Y016400D02*
X018942Y016650D01*
X018442Y014650D02*
X018792Y014300D01*
X022192Y014300D01*
X021792Y013950D02*
X018642Y013950D01*
X017942Y014650D01*
X017942Y014150D02*
X015942Y014150D01*
X015442Y013650D01*
X015942Y013650D02*
X018442Y013650D01*
X018692Y012900D02*
X016192Y012900D01*
X015442Y012900D01*
X018692Y012900D02*
X019442Y013650D01*
X019942Y014650D02*
X021392Y014650D01*
X023692Y015900D02*
X026192Y013400D01*
X026192Y010150D01*
X026479Y009863D01*
X026973Y009863D01*
X026973Y010363D02*
X026973Y013369D01*
X024192Y016150D01*
X028942Y012650D02*
X029692Y011900D01*
X029692Y010150D01*
X029404Y009863D01*
X028375Y009863D01*
X027904Y009863D01*
X027692Y009650D01*
X027692Y008400D01*
X027442Y008150D01*
X026192Y008150D01*
X022692Y011650D01*
X021392Y011650D02*
X019942Y011650D01*
X026211Y009420D02*
X026268Y009363D01*
X026973Y009363D01*
X013842Y019275D02*
X013317Y018750D01*
X012542Y018750D01*
X010942Y017150D01*
X006192Y011750D02*
X005942Y011500D01*
X005942Y010050D01*
X005642Y009750D01*
M02*
