<?xml version="1.0" encoding="UTF-8" standalone="no"?>
<svg
   xmlns:dc="http://purl.org/dc/elements/1.1/"
   xmlns:cc="http://creativecommons.org/ns#"
   xmlns:rdf="http://www.w3.org/1999/02/22-rdf-syntax-ns#"
   xmlns:svg="http://www.w3.org/2000/svg"
   xmlns="http://www.w3.org/2000/svg"
   xmlns:xlink="http://www.w3.org/1999/xlink"
   xmlns:sodipodi="http://sodipodi.sourceforge.net/DTD/sodipodi-0.dtd"
   xmlns:inkscape="http://www.inkscape.org/namespaces/inkscape"
   version="1.1"
   viewBox="0 0 863.78856 309.30606"
   stroke-miterlimit="10"
   id="svg2"
   inkscape:version="0.48.3.1 r9886"
   width="100%"
   height="100%"
   sodipodi:docname="architecture.svg"
   style="fill:none;stroke:none"
   inkscape:export-filename="/home/workspace/mia_vita/documentation/newsletter/architecture.png"
   inkscape:export-xdpi="90"
   inkscape:export-ydpi="90">
  <metadata
     id="metadata147">
    <rdf:RDF>
      <cc:Work
         rdf:about="">
        <dc:format>image/svg+xml</dc:format>
        <dc:type
           rdf:resource="http://purl.org/dc/dcmitype/StillImage" />
        <dc:title></dc:title>
      </cc:Work>
    </rdf:RDF>
  </metadata>
  <defs
     id="defs145">
    <linearGradient
       inkscape:collect="always"
       id="linearGradient4049">
      <stop
         style="stop-color:#000000;stop-opacity:1;"
         offset="0"
         id="stop4051" />
      <stop
         style="stop-color:#000000;stop-opacity:0;"
         offset="1"
         id="stop4053" />
    </linearGradient>
    <linearGradient
       inkscape:collect="always"
       id="linearGradient4039">
      <stop
         style="stop-color:#000000;stop-opacity:1;"
         offset="0"
         id="stop4041" />
      <stop
         style="stop-color:#000000;stop-opacity:0;"
         offset="1"
         id="stop4043" />
    </linearGradient>
    <radialGradient
       inkscape:collect="always"
       xlink:href="#linearGradient4039"
       id="radialGradient4047"
       cx="102.5"
       cy="31.5"
       fx="102.5"
       fy="31.5"
       r="102.5"
       gradientTransform="matrix(1,0,0,0.30731707,0,21.819512)"
       gradientUnits="userSpaceOnUse" />
    <linearGradient
       inkscape:collect="always"
       xlink:href="#linearGradient4049"
       id="linearGradient4055"
       x1="0"
       y1="31.5"
       x2="205"
       y2="31.5"
       gradientUnits="userSpaceOnUse" />
  </defs>
  <sodipodi:namedview
     pagecolor="#ffffff"
     bordercolor="#666666"
     borderopacity="1"
     objecttolerance="10"
     gridtolerance="10"
     guidetolerance="10"
     inkscape:pageopacity="0"
     inkscape:pageshadow="2"
     inkscape:window-width="1280"
     inkscape:window-height="1006"
     id="namedview143"
     showgrid="false"
     fit-margin-top="0"
     fit-margin-left="0"
     fit-margin-right="0"
     fit-margin-bottom="0"
     inkscape:zoom="0.65555556"
     inkscape:cx="559.75604"
     inkscape:cy="245.23866"
     inkscape:window-x="0"
     inkscape:window-y="18"
     inkscape:window-maximized="1"
     inkscape:current-layer="svg2" />
  <clipPath
     id="p27.0">
    <path
       d="M 0,0 960,0 960,720 0,720 0,0 z"
       clip-rule="nonzero"
       id="path5"
       inkscape:connector-curvature="0" />
  </clipPath>
  <path
     style="stroke:#000000;stroke-width:1;stroke-linecap:round;stroke-linejoin:round"
     inkscape:connector-curvature="0"
     id="path83"
     d="m 296.60556,23.16327 248.4437,89.535" />
  <path
     style="stroke:#000000;stroke-width:1;stroke-linecap:round;stroke-miterlimit:8"
     inkscape:connector-curvature="0"
     id="path113"
     d="m 390.25421,172.6568 64.79425,0"
     stroke-miterlimit="8.0" />
  <path
     style="stroke:#000000;stroke-width:1;stroke-linecap:round;stroke-linejoin:round"
     inkscape:connector-curvature="0"
     id="path135"
     d="m 131.02646,216.5347 21.64887,-39.09283" />
  <path
     style="stroke:#000000;stroke-width:1;stroke-linecap:round;stroke-miterlimit:8"
     inkscape:connector-curvature="0"
     id="path115"
     d="m 152.67532,177.44183 107.9904,0"
     stroke-miterlimit="8.0" />
  <path
     style="stroke:#000000;stroke-width:1;stroke-linecap:round;stroke-linejoin:round"
     inkscape:connector-curvature="0"
     id="path133"
     d="m 131.02646,138.34903 21.64887,39.09283" />
  <rect
     style="fill:#ffff66;fill-opacity:1;stroke:none;stroke-width:0.59999999999999998;stroke-miterlimit:9.55555533999999973;stroke-opacity:1;stroke-dasharray:none;stroke-dashoffset:0;opacity:1"
     id="rect4057"
     width="132.67241"
     height="45.302773"
     x="1.0786375"
     y="115.15131"
     transform="translate(-6.0048537e-6,0)" />
  <rect
     style="fill:#9f9fe8;fill-opacity:1;stroke:none;stroke-width:0.59999999999999998;stroke-miterlimit:9.55555533999999973;stroke-dasharray:none;opacity:1"
     id="rect4061"
     width="183.36836"
     height="121.88603"
     x="209.79497"
     y="112.45473" />
  <rect
     style="fill:#9f9fe8;fill-opacity:1;stroke:none;stroke-width:0.59999999999999998;stroke-miterlimit:9.55555533999999973;stroke-opacity:1;stroke-dasharray:none;stroke-dashoffset:0;opacity:1"
     id="rect4063"
     width="85.212357"
     height="48.538685"
     x="257.79434"
     y="-0.26289129"
     transform="translate(-6.0048537e-6,0)" />
  <rect
     style="fill:#9f9fe8;fill-opacity:1;stroke:none;stroke-width:0.59999999999999998;stroke-miterlimit:9.55555533999999973;stroke-opacity:1;stroke-dasharray:none;stroke-dashoffset:0;opacity:1"
     id="rect4065"
     width="182.28973"
     height="122.96467"
     x="454.10638"
     y="111.91541"
     transform="translate(-6.0048537e-6,0)" />
  <rect
     style="fill:#ffff66;fill-opacity:1;stroke:none;stroke-width:0.59999999999999998;stroke-miterlimit:9.55555533999999973;stroke-dasharray:none;opacity:1"
     id="rect4067"
     width="182.28973"
     height="66.875526"
     x="680.85748"
     y="241.3519" />
  <rect
     style="fill:#ffff66;fill-opacity:1;stroke:none;stroke-width:0.59999999999999998;stroke-miterlimit:9.55555533999999973;stroke-opacity:1;stroke-dasharray:none;stroke-dashoffset:0;opacity:1"
     id="rect4069"
     width="183.60561"
     height="67.954163"
     x="679.54163"
     y="139.95998" />
  <rect
     style="fill:#ffff66;fill-opacity:1;stroke:none;stroke-width:0.59999999999999998;stroke-miterlimit:9.55555533999999973;stroke-dasharray:none;opacity:1"
     id="rect4071"
     width="183.36836"
     height="62.560974"
     x="679.77887"
     y="42.882607" />
  <rect
     style="fill:#ffff66;fill-opacity:1;stroke:none;stroke-width:0.59999999999999998;stroke-miterlimit:9.55555533999999973;stroke-dasharray:none;opacity:1"
     id="rect4057-5"
     width="132.67241"
     height="45.302773"
     x="1.0786315"
     y="194.97049" />
  <g
     id="g3253"
     transform="translate(-64.611844,-239.49008)">
    <path
       d="m 793.237,308.30942 0,-17.1875 2.32812,0 9.03125,13.5 0,-13.5 2.17188,0 0,17.1875 -2.32813,0 -9.01562,-13.5 0,13.5 -2.1875,0 z m 25.61328,-4.01563 2.17188,0.28125 q -0.51563,1.90625 -1.90625,2.96875 -1.39063,1.04688 -3.5625,1.04688 -2.73438,0 -4.34375,-1.67188 -1.59375,-1.6875 -1.59375,-4.73437 0,-3.14063 1.60937,-4.875 1.625,-1.73438 4.20313,-1.73438 2.5,0 4.07812,1.70313 1.59375,1.70312 1.59375,4.78125 0,0.1875 -0.0156,0.5625 l -9.28125,0 q 0.10937,2.04687 1.15625,3.14062 1.04687,1.09375 2.60937,1.09375 1.15625,0 1.96875,-0.60937 0.82813,-0.60938 1.3125,-1.95313 z m -6.9375,-3.40625 6.95313,0 q -0.14063,-1.5625 -0.79688,-2.35937 -1,-1.21875 -2.60937,-1.21875 -1.45313,0 -2.45313,0.98437 -0.98437,0.96875 -1.09375,2.59375 z m 16.36328,5.53125 0.3125,1.85938 q -0.89062,0.20312 -1.59375,0.20312 -1.15625,0 -1.79687,-0.35937 -0.625,-0.375 -0.89063,-0.96875 -0.25,-0.59375 -0.25,-2.48438 l 0,-7.17187 -1.54687,0 0,-1.64063 1.54687,0 0,-3.07812 2.09375,-1.26563 0,4.34375 2.125,0 0,1.64063 -2.125,0 0,7.28125 q 0,0.90625 0.10938,1.17187 0.125,0.25 0.375,0.40625 0.25,0.14063 0.71875,0.14063 0.34375,0 0.92187,-0.0781 z m 4.35547,1.89063 -3.79687,-12.45313 2.17187,0 1.98438,7.1875 0.73437,2.67188 q 0.0469,-0.20313 0.64063,-2.5625 l 1.98437,-7.29688 2.17188,0 1.85937,7.21875 0.625,2.39063 0.71875,-2.40625 2.125,-7.20313 2.04688,0 -3.89063,12.45313 -2.1875,0 -1.98437,-7.45313 -0.46875,-2.125 -2.53125,9.57813 -2.20313,0 z m 14.25391,-6.21875 q 0,-3.46875 1.92187,-5.125 1.60938,-1.39063 3.92188,-1.39063 2.5625,0 4.1875,1.6875 1.625,1.6875 1.625,4.64063 0,2.40625 -0.71875,3.78125 -0.71875,1.375 -2.09375,2.14062 -1.375,0.76563 -3,0.76563 -2.625,0 -4.23438,-1.67188 -1.60937,-1.6875 -1.60937,-4.82812 z m 2.17187,0 q 0,2.39062 1.03125,3.57812 1.04688,1.1875 2.64063,1.1875 1.5625,0 2.60937,-1.1875 1.04688,-1.20312 1.04688,-3.65625 0,-2.3125 -1.0625,-3.5 -1.04688,-1.1875 -2.59375,-1.1875 -1.59375,0 -2.64063,1.1875 -1.03125,1.1875 -1.03125,3.57813 z m 11.94141,6.21875 0,-12.45313 1.89062,0 0,1.89063 q 0.73438,-1.32813 1.34375,-1.75 0.625,-0.42188 1.35938,-0.42188 1.0625,0 2.17187,0.6875 l -0.73437,1.95313 q -0.76563,-0.45313 -1.54688,-0.45313 -0.6875,0 -1.25,0.42188 -0.54687,0.40625 -0.78125,1.14062 -0.34375,1.125 -0.34375,2.46875 l 0,6.51563 -2.10937,0 z m 8.02344,0 0,-17.1875 2.10937,0 0,9.79687 5,-5.0625 2.71875,0 -4.75,4.625 5.23438,7.82813 -2.59375,0 -4.125,-6.35938 -1.48438,1.42188 0,4.9375 -2.10937,0 z"
       id="path63"
       inkscape:connector-curvature="0"
       style="fill:#000000;fill-rule:nonzero" />
    <path
       d="m 784.95966,335.90317 0,-17.1875 2.28125,0 0,17.1875 -2.28125,0 z m 6.01172,0 0,-12.45313 1.90625,0 0,1.78125 q 1.375,-2.0625 3.95312,-2.0625 1.125,0 2.0625,0.40625 0.95313,0.40625 1.42188,1.0625 0.46875,0.65625 0.65625,1.5625 0.125,0.57813 0.125,2.04688 l 0,7.65625 -2.10938,0 0,-7.57813 q 0,-1.28125 -0.25,-1.92187 -0.25,-0.64063 -0.875,-1.01563 -0.625,-0.39062 -1.46875,-0.39062 -1.34375,0 -2.32812,0.85937 -0.98438,0.85938 -0.98438,3.25 l 0,6.79688 -2.10937,0 z m 17.95703,-1.89063 0.3125,1.85938 q -0.89063,0.20312 -1.59375,0.20312 -1.15625,0 -1.79688,-0.35937 -0.625,-0.375 -0.89062,-0.96875 -0.25,-0.59375 -0.25,-2.48438 l 0,-7.17187 -1.54688,0 0,-1.64063 1.54688,0 0,-3.07812 2.09375,-1.26563 0,4.34375 2.125,0 0,1.64063 -2.125,0 0,7.28125 q 0,0.90625 0.10937,1.17187 0.125,0.25 0.375,0.40625 0.25,0.14063 0.71875,0.14063 0.34375,0 0.92188,-0.0781 z m 10.58984,-2.125 2.17188,0.28125 q -0.51563,1.90625 -1.90625,2.96875 -1.39063,1.04688 -3.5625,1.04688 -2.73438,0 -4.34375,-1.67188 -1.59375,-1.6875 -1.59375,-4.73437 0,-3.14063 1.60937,-4.875 1.625,-1.73438 4.20313,-1.73438 2.5,0 4.07812,1.70313 1.59375,1.70312 1.59375,4.78125 0,0.1875 -0.0156,0.5625 l -9.28125,0 q 0.10937,2.04687 1.15625,3.14062 1.04687,1.09375 2.60937,1.09375 1.15625,0 1.96875,-0.60937 0.82813,-0.60938 1.3125,-1.95313 z m -6.9375,-3.40625 6.95313,0 q -0.14063,-1.5625 -0.79688,-2.35937 -1,-1.21875 -2.60937,-1.21875 -1.45313,0 -2.45313,0.98437 -0.98437,0.96875 -1.09375,2.59375 z m 11.73828,7.42188 0,-12.45313 1.89063,0 0,1.89063 q 0.73437,-1.32813 1.34375,-1.75 0.625,-0.42188 1.35937,-0.42188 1.0625,0 2.17188,0.6875 l -0.73438,1.95313 q -0.76562,-0.45313 -1.54687,-0.45313 -0.6875,0 -1.25,0.42188 -0.54688,0.40625 -0.78125,1.14062 -0.34375,1.125 -0.34375,2.46875 l 0,6.51563 -2.10938,0 z m 8.52344,0 0,-10.8125 -1.875,0 0,-1.64063 1.875,0 0,-1.3125 q 0,-1.26562 0.21875,-1.875 0.29688,-0.8125 1.0625,-1.3125 0.78125,-0.51562 2.15625,-0.51562 0.89063,0 1.96875,0.20312 l -0.3125,1.84375 q -0.65625,-0.125 -1.25,-0.125 -0.95312,0 -1.35937,0.42188 -0.39063,0.40625 -0.39063,1.53125 l 0,1.14062 2.42188,0 0,1.64063 -2.42188,0 0,10.8125 -2.09375,0 z m 14.27735,-1.53125 q -1.17188,0.98437 -2.26563,1.40625 -1.07812,0.40625 -2.3125,0.40625 -2.04687,0 -3.15625,-1 -1.09375,-1 -1.09375,-2.5625 0,-0.92188 0.40625,-1.67188 0.42188,-0.75 1.09375,-1.20312 0.67188,-0.46875 1.51563,-0.70313 0.625,-0.15625 1.875,-0.3125 2.5625,-0.3125 3.76562,-0.73437 0.0156,-0.42188 0.0156,-0.54688 0,-1.28125 -0.60938,-1.8125 -0.79687,-0.71875 -2.39062,-0.71875 -1.5,0 -2.20313,0.53125 -0.70312,0.51563 -1.04687,1.84375 l -2.0625,-0.28125 q 0.28125,-1.32812 0.92187,-2.14062 0.64063,-0.8125 1.85938,-1.25 1.21875,-0.45313 2.82812,-0.45313 1.59375,0 2.59375,0.375 1,0.375 1.46875,0.95313 0.46875,0.5625 0.65625,1.4375 0.0937,0.53125 0.0937,1.9375 l 0,2.8125 q 0,2.9375 0.14063,3.71875 0.14062,0.78125 0.53125,1.5 l -2.20313,0 q -0.32812,-0.65625 -0.42187,-1.53125 z m -0.17188,-4.71875 q -1.15625,0.46875 -3.45312,0.79687 -1.29688,0.1875 -1.84375,0.42188 -0.53125,0.23437 -0.82813,0.6875 -0.28125,0.45312 -0.28125,1 0,0.84375 0.625,1.40625 0.64063,0.5625 1.875,0.5625 1.21875,0 2.17188,-0.53125 0.95312,-0.53125 1.39062,-1.45313 0.34375,-0.71875 0.34375,-2.10937 l 0,-0.78125 z m 13.51953,1.6875 2.07813,0.26562 q -0.34375,2.15625 -1.75,3.375 -1.39063,1.20313 -3.4375,1.20313 -2.54688,0 -4.10938,-1.67188 -1.54687,-1.67187 -1.54687,-4.78125 0,-2.01562 0.67187,-3.53125 0.67188,-1.51562 2.03125,-2.26562 1.35938,-0.76563 2.96875,-0.76563 2.03125,0 3.3125,1.03125 1.29688,1.03125 1.65625,2.90625 l -2.04687,0.32813 q -0.29688,-1.26563 -1.04688,-1.89063 -0.73437,-0.64062 -1.79687,-0.64062 -1.59375,0 -2.59375,1.15625 -0.98438,1.14062 -0.98438,3.60937 0,2.5 0.95313,3.64063 0.96875,1.14062 2.51562,1.14062 1.23438,0 2.0625,-0.76562 0.84375,-0.76563 1.0625,-2.34375 z m 12.40625,0.54687 2.17188,0.28125 q -0.51563,1.90625 -1.90625,2.96875 -1.39063,1.04688 -3.5625,1.04688 -2.73438,0 -4.34375,-1.67188 -1.59375,-1.6875 -1.59375,-4.73437 0,-3.14063 1.60937,-4.875 1.625,-1.73438 4.20313,-1.73438 2.5,0 4.07812,1.70313 1.59375,1.70312 1.59375,4.78125 0,0.1875 -0.0156,0.5625 l -9.28125,0 q 0.10937,2.04687 1.15625,3.14062 1.04687,1.09375 2.60937,1.09375 1.15625,0 1.96875,-0.60937 0.82813,-0.60938 1.3125,-1.95313 z m -6.9375,-3.40625 6.95313,0 q -0.14063,-1.5625 -0.79688,-2.35937 -1,-1.21875 -2.60937,-1.21875 -1.45313,0 -2.45313,0.98437 -0.98437,0.96875 -1.09375,2.59375 z m 10.91016,3.70313 2.09375,-0.32813 q 0.17187,1.25 0.96875,1.92188 0.8125,0.67187 2.25,0.67187 1.45312,0 2.15625,-0.59375 0.70312,-0.59375 0.70312,-1.39062 0,-0.71875 -0.625,-1.125 -0.42187,-0.28125 -2.15625,-0.71875 -2.3125,-0.57813 -3.21875,-1 -0.89062,-0.4375 -1.35937,-1.1875 -0.45313,-0.76563 -0.45313,-1.67188 0,-0.82812 0.375,-1.53125 0.39063,-0.71875 1.04688,-1.1875 0.48437,-0.35937 1.32812,-0.60937 0.85938,-0.26563 1.82813,-0.26563 1.46875,0 2.57812,0.42188 1.10938,0.42187 1.625,1.15625 0.53125,0.71875 0.73438,1.92187 l -2.0625,0.28125 q -0.14063,-0.96875 -0.8125,-1.5 -0.67188,-0.54687 -1.90625,-0.54687 -1.45313,0 -2.07813,0.48437 -0.625,0.48438 -0.625,1.125 0,0.40625 0.26563,0.73438 0.25,0.34375 0.8125,0.5625 0.3125,0.125 1.85937,0.54687 2.23438,0.59375 3.10938,0.98438 0.89062,0.375 1.39062,1.10937 0.51563,0.71875 0.51563,1.79688 0,1.04687 -0.625,1.98437 -0.60938,0.9375 -1.76563,1.45313 -1.15625,0.5 -2.625,0.5 -2.42187,0 -3.70312,-1 -1.26563,-1.01563 -1.625,-3 z"
       id="path65"
       inkscape:connector-curvature="0"
       style="fill:#000000;fill-rule:nonzero" />
  </g>
  <g
     id="g3261"
     transform="translate(-63.53348,-240.33125)">
    <path
       d="m 763.19794,501.5506 q 0,-4.26563 2.29688,-6.6875 2.29687,-2.42188 5.9375,-2.42188 2.375,0 4.28125,1.14063 1.92187,1.125 2.92187,3.17187 1,2.03125 1,4.60938 0,2.60937 -1.0625,4.67187 -1.04687,2.0625 -2.98437,3.125 -1.9375,1.0625 -4.17188,1.0625 -2.42187,0 -4.34375,-1.17187 -1.90625,-1.17188 -2.89062,-3.20313 -0.98438,-2.03125 -0.98438,-4.29687 z m 2.34375,0.0469 q 0,3.09375 1.67188,4.89063 1.67187,1.78125 4.1875,1.78125 2.57812,0 4.23437,-1.79688 1.65625,-1.8125 1.65625,-5.125 0,-2.09375 -0.71875,-3.65625 -0.70312,-1.57812 -2.07812,-2.4375 -1.35938,-0.85937 -3.04688,-0.85937 -2.42187,0 -4.17187,1.65625 -1.73438,1.65625 -1.73438,5.54687 z m 24.90234,8.32813 0,-1.82813 q -1.45312,2.10938 -3.9375,2.10938 -1.10937,0 -2.0625,-0.42188 -0.95312,-0.42187 -1.42187,-1.0625 -0.45313,-0.64062 -0.64063,-1.5625 -0.14062,-0.625 -0.14062,-1.96875 l 0,-7.71875 2.10937,0 0,6.90625 q 0,1.65625 0.14063,2.23438 0.1875,0.82812 0.82812,1.3125 0.65625,0.46875 1.60938,0.46875 0.9375,0 1.76562,-0.48438 0.84375,-0.5 1.1875,-1.32812 0.34375,-0.84375 0.34375,-2.4375 l 0,-6.67188 2.10938,0 0,12.45313 -1.89063,0 z m 9.80079,-1.89063 0.3125,1.85938 q -0.89063,0.20312 -1.59375,0.20312 -1.15625,0 -1.79688,-0.35937 -0.625,-0.375 -0.89062,-0.96875 -0.25,-0.59375 -0.25,-2.48438 l 0,-7.17187 -1.54688,0 0,-1.64063 1.54688,0 0,-3.07812 2.09375,-1.26563 0,4.34375 2.125,0 0,1.64063 -2.125,0 0,7.28125 q 0,0.90625 0.10937,1.17187 0.125,0.25 0.375,0.40625 0.25,0.14063 0.71875,0.14063 0.34375,0 0.92188,-0.0781 z m 2.05859,6.65626 0,-17.21875 1.92187,0 0,1.625 q 0.6875,-0.95313 1.53125,-1.42188 0.85938,-0.48437 2.07813,-0.48437 1.59375,0 2.8125,0.82812 1.21875,0.8125 1.84375,2.3125 0.625,1.5 0.625,3.28125 0,1.90625 -0.6875,3.4375 -0.6875,1.53125 -2,2.34375 -1.29688,0.8125 -2.73438,0.8125 -1.0625,0 -1.90625,-0.4375 -0.82812,-0.45312 -1.375,-1.14062 l 0,6.0625 -2.10937,0 z m 1.92187,-10.92188 q 0,2.40625 0.96875,3.5625 0.96875,1.14063 2.35938,1.14063 1.40625,0 2.40625,-1.1875 1,-1.1875 1,-3.6875 0,-2.375 -0.98438,-3.5625 -0.96875,-1.1875 -2.32812,-1.1875 -1.35938,0 -2.39063,1.26562 -1.03125,1.25 -1.03125,3.65625 z m 19.58203,6.15625 0,-1.82812 q -1.45312,2.10937 -3.9375,2.10937 -1.10937,0 -2.0625,-0.42187 -0.95312,-0.42188 -1.42187,-1.0625 -0.45313,-0.64063 -0.64063,-1.5625 -0.14062,-0.625 -0.14062,-1.96875 l 0,-7.71875 2.10937,0 0,6.90625 q 0,1.65625 0.14063,2.23437 0.1875,0.82813 0.82812,1.3125 0.65625,0.46875 1.60938,0.46875 0.9375,0 1.76562,-0.48437 0.84375,-0.5 1.1875,-1.32813 0.34375,-0.84375 0.34375,-2.4375 l 0,-6.67187 2.10938,0 0,12.45312 -1.89063,0 z m 9.80079,-1.89062 0.3125,1.85937 q -0.89063,0.20313 -1.59375,0.20313 -1.15625,0 -1.79688,-0.35938 -0.625,-0.375 -0.89062,-0.96875 -0.25,-0.59375 -0.25,-2.48437 l 0,-7.17188 -1.54688,0 0,-1.64062 1.54688,0 0,-3.07813 2.09375,-1.26562 0,4.34375 2.125,0 0,1.64062 -2.125,0 0,7.28125 q 0,0.90625 0.10937,1.17188 0.125,0.25 0.375,0.40625 0.25,0.14062 0.71875,0.14062 0.34375,0 0.92188,-0.0781 z m 8.22656,-3.625 2.14062,-0.1875 q 0.15625,1.28125 0.70313,2.10937 0.5625,0.82813 1.73437,1.34375 1.17188,0.5 2.64063,0.5 1.29687,0 2.29687,-0.375 1,-0.39062 1.48438,-1.0625 0.48437,-0.6875 0.48437,-1.48437 0,-0.79688 -0.46875,-1.40625 -0.46875,-0.60938 -1.54687,-1.01563 -0.6875,-0.26562 -3.0625,-0.82812 -2.35938,-0.57813 -3.3125,-1.07813 -1.23438,-0.64062 -1.84375,-1.59375 -0.59375,-0.96875 -0.59375,-2.14062 0,-1.3125 0.73437,-2.4375 0.75,-1.125 2.15625,-1.70313 1.42188,-0.59375 3.15625,-0.59375 1.90625,0 3.35938,0.60938 1.46875,0.60937 2.25,1.8125 0.79687,1.1875 0.84375,2.70312 l -2.17188,0.17188 q -0.17187,-1.64063 -1.1875,-2.46875 -1.01562,-0.82813 -3,-0.82813 -2.0625,0 -3.01562,0.76563 -0.9375,0.75 -0.9375,1.8125 0,0.92187 0.67187,1.51562 0.65625,0.60938 3.42188,1.23438 2.78125,0.625 3.8125,1.09375 1.5,0.6875 2.20312,1.75 0.71875,1.0625 0.71875,2.4375 0,1.375 -0.78125,2.59375 -0.78125,1.20312 -2.25,1.89062 -1.46875,0.67188 -3.3125,0.67188 -2.32812,0 -3.90625,-0.67188 -1.57812,-0.6875 -2.48437,-2.04687 -0.89063,-1.375 -0.9375,-3.09375 z m 21.11719,3.625 0.3125,1.85937 q -0.89063,0.20313 -1.59375,0.20313 -1.15625,0 -1.79688,-0.35938 -0.625,-0.375 -0.89062,-0.96875 -0.25,-0.59375 -0.25,-2.48437 l 0,-7.17188 -1.54688,0 0,-1.64062 1.54688,0 0,-3.07813 2.09375,-1.26562 0,4.34375 2.125,0 0,1.64062 -2.125,0 0,7.28125 q 0,0.90625 0.10937,1.17188 0.125,0.25 0.375,0.40625 0.25,0.14062 0.71875,0.14062 0.34375,0 0.92188,-0.0781 z m 10.18359,0.35937 q -1.17187,0.98438 -2.26562,1.40625 -1.07813,0.40625 -2.3125,0.40625 -2.04688,0 -3.15625,-1 -1.09375,-1 -1.09375,-2.5625 0,-0.92187 0.40625,-1.67187 0.42187,-0.75 1.09375,-1.20313 0.67187,-0.46875 1.51562,-0.70312 0.625,-0.15625 1.875,-0.3125 2.5625,-0.3125 3.76563,-0.73438 0.0156,-0.42187 0.0156,-0.54687 0,-1.28125 -0.60937,-1.8125 -0.79688,-0.71875 -2.39063,-0.71875 -1.5,0 -2.20312,0.53125 -0.70313,0.51562 -1.04688,1.84375 l -2.0625,-0.28125 q 0.28125,-1.32813 0.92188,-2.14063 0.64062,-0.8125 1.85937,-1.25 1.21875,-0.45312 2.82813,-0.45312 1.59375,0 2.59375,0.375 1,0.375 1.46875,0.95312 0.46875,0.5625 0.65625,1.4375 0.0937,0.53125 0.0937,1.9375 l 0,2.8125 q 0,2.9375 0.14062,3.71875 0.14063,0.78125 0.53125,1.5 l -2.20312,0 q -0.32813,-0.65625 -0.42188,-1.53125 z m -0.17187,-4.71875 q -1.15625,0.46875 -3.45313,0.79688 -1.29687,0.1875 -1.84375,0.42187 -0.53125,0.23438 -0.82812,0.6875 -0.28125,0.45313 -0.28125,1 0,0.84375 0.625,1.40625 0.64062,0.5625 1.875,0.5625 1.21875,0 2.17187,-0.53125 0.95313,-0.53125 1.39063,-1.45312 0.34375,-0.71875 0.34375,-2.10938 l 0,-0.78125 z m 10.0039,4.35938 0.3125,1.85937 q -0.89062,0.20313 -1.59375,0.20313 -1.15625,0 -1.79687,-0.35938 -0.625,-0.375 -0.89063,-0.96875 -0.25,-0.59375 -0.25,-2.48437 l 0,-7.17188 -1.54687,0 0,-1.64062 1.54687,0 0,-3.07813 2.09375,-1.26562 0,4.34375 2.125,0 0,1.64062 -2.125,0 0,7.28125 q 0,0.90625 0.10938,1.17188 0.125,0.25 0.375,0.40625 0.25,0.14062 0.71875,0.14062 0.34375,0 0.92187,-0.0781 z m 10.21485,1.89062 0,-1.82812 q -1.45313,2.10937 -3.9375,2.10937 -1.10938,0 -2.0625,-0.42187 -0.95313,-0.42188 -1.42188,-1.0625 -0.45312,-0.64063 -0.64062,-1.5625 -0.14063,-0.625 -0.14063,-1.96875 l 0,-7.71875 2.10938,0 0,6.90625 q 0,1.65625 0.14062,2.23437 0.1875,0.82813 0.82813,1.3125 0.65625,0.46875 1.60937,0.46875 0.9375,0 1.76563,-0.48437 0.84375,-0.5 1.1875,-1.32813 0.34375,-0.84375 0.34375,-2.4375 l 0,-6.67187 2.10937,0 0,12.45312 -1.89062,0 z m 4.34765,-3.71875 2.09375,-0.32812 q 0.17188,1.25 0.96875,1.92187 0.8125,0.67188 2.25,0.67188 1.45313,0 2.15625,-0.59375 0.70313,-0.59375 0.70313,-1.39063 0,-0.71875 -0.625,-1.125 -0.42188,-0.28125 -2.15625,-0.71875 -2.3125,-0.57812 -3.21875,-1 -0.89063,-0.4375 -1.35938,-1.1875 -0.45312,-0.76562 -0.45312,-1.67187 0,-0.82813 0.375,-1.53125 0.39062,-0.71875 1.04687,-1.1875 0.48438,-0.35938 1.32813,-0.60938 0.85937,-0.26562 1.82812,-0.26562 1.46875,0 2.57813,0.42187 1.10937,0.42188 1.625,1.15625 0.53125,0.71875 0.73437,1.92188 l -2.0625,0.28125 q -0.14062,-0.96875 -0.8125,-1.5 -0.67187,-0.54688 -1.90625,-0.54688 -1.45312,0 -2.07812,0.48438 -0.625,0.48437 -0.625,1.125 0,0.40625 0.26562,0.73437 0.25,0.34375 0.8125,0.5625 0.3125,0.125 1.85938,0.54688 2.23437,0.59375 3.10937,0.98437 0.89063,0.375 1.39063,1.10938 0.51562,0.71875 0.51562,1.79687 0,1.04688 -0.625,1.98438 -0.60937,0.9375 -1.76562,1.45312 -1.15625,0.5 -2.625,0.5 -2.42188,0 -3.70313,-1 -1.26562,-1.01562 -1.625,-3 z"
       id="path71"
       inkscape:connector-curvature="0"
       style="fill:#000000;fill-rule:nonzero" />
    <path
       d="m 777.6237,537.51935 0,-17.1875 2.28125,0 0,17.1875 -2.28125,0 z m 6.01172,0 0,-12.45312 1.90625,0 0,1.78125 q 1.375,-2.0625 3.95312,-2.0625 1.125,0 2.0625,0.40625 0.95313,0.40625 1.42188,1.0625 0.46875,0.65625 0.65625,1.5625 0.125,0.57812 0.125,2.04687 l 0,7.65625 -2.10938,0 0,-7.57812 q 0,-1.28125 -0.25,-1.92188 -0.25,-0.64062 -0.875,-1.01562 -0.625,-0.39063 -1.46875,-0.39063 -1.34375,0 -2.32812,0.85938 -0.98438,0.85937 -0.98438,3.25 l 0,6.79687 -2.10937,0 z m 13.86328,0 0,-10.8125 -1.875,0 0,-1.64062 1.875,0 0,-1.3125 q 0,-1.26563 0.21875,-1.875 0.29687,-0.8125 1.0625,-1.3125 0.78125,-0.51563 2.15625,-0.51563 0.89062,0 1.96875,0.20313 l -0.3125,1.84375 q -0.65625,-0.125 -1.25,-0.125 -0.95313,0 -1.35938,0.42187 -0.39062,0.40625 -0.39062,1.53125 l 0,1.14063 2.42187,0 0,1.64062 -2.42187,0 0,10.8125 -2.09375,0 z m 5.37109,-6.21875 q 0,-3.46875 1.92188,-5.125 1.60937,-1.39062 3.92187,-1.39062 2.5625,0 4.1875,1.6875 1.625,1.6875 1.625,4.64062 0,2.40625 -0.71875,3.78125 -0.71875,1.375 -2.09375,2.14063 -1.375,0.76562 -3,0.76562 -2.625,0 -4.23437,-1.67187 -1.60938,-1.6875 -1.60938,-4.82813 z m 2.17188,0 q 0,2.39063 1.03125,3.57813 1.04687,1.1875 2.64062,1.1875 1.5625,0 2.60938,-1.1875 1.04687,-1.20313 1.04687,-3.65625 0,-2.3125 -1.0625,-3.5 -1.04687,-1.1875 -2.59375,-1.1875 -1.59375,0 -2.64062,1.1875 -1.03125,1.1875 -1.03125,3.57812 z m 11.9414,6.21875 0,-12.45312 1.89063,0 0,1.89062 q 0.73437,-1.32812 1.34375,-1.75 0.625,-0.42187 1.35937,-0.42187 1.0625,0 2.17188,0.6875 l -0.73438,1.95312 q -0.76562,-0.45312 -1.54687,-0.45312 -0.6875,0 -1.25,0.42187 -0.54688,0.40625 -0.78125,1.14063 -0.34375,1.125 -0.34375,2.46875 l 0,6.51562 -2.10938,0 z m 8.00782,0 0,-12.45312 1.89062,0 0,1.75 q 0.59375,-0.90625 1.5625,-1.46875 0.96875,-0.5625 2.21875,-0.5625 1.375,0 2.25,0.57812 0.89063,0.57813 1.26563,1.60938 1.46875,-2.1875 3.84375,-2.1875 1.84375,0 2.84375,1.03125 1,1.03125 1,3.15625 l 0,8.54687 -2.10938,0 0,-7.84375 q 0,-1.26562 -0.20312,-1.8125 -0.20313,-0.5625 -0.75,-0.90625 -0.53125,-0.34375 -1.25,-0.34375 -1.3125,0 -2.1875,0.875 -0.85938,0.875 -0.85938,2.79688 l 0,7.23437 -2.10937,0 0,-8.09375 q 0,-1.40625 -0.51563,-2.10937 -0.51562,-0.70313 -1.6875,-0.70313 -0.89062,0 -1.65625,0.46875 -0.75,0.46875 -1.09375,1.375 -0.34375,0.90625 -0.34375,2.60938 l 0,6.45312 -2.10937,0 z m 28.11719,-1.53125 q -1.17188,0.98438 -2.26563,1.40625 -1.07812,0.40625 -2.3125,0.40625 -2.04687,0 -3.15625,-1 -1.09375,-1 -1.09375,-2.5625 0,-0.92187 0.40625,-1.67187 0.42188,-0.75 1.09375,-1.20313 0.67188,-0.46875 1.51563,-0.70312 0.625,-0.15625 1.875,-0.3125 2.5625,-0.3125 3.76562,-0.73438 0.0156,-0.42187 0.0156,-0.54687 0,-1.28125 -0.60938,-1.8125 -0.79687,-0.71875 -2.39062,-0.71875 -1.5,0 -2.20313,0.53125 -0.70312,0.51562 -1.04687,1.84375 l -2.0625,-0.28125 q 0.28125,-1.32813 0.92187,-2.14063 0.64063,-0.8125 1.85938,-1.25 1.21875,-0.45312 2.82812,-0.45312 1.59375,0 2.59375,0.375 1,0.375 1.46875,0.95312 0.46875,0.5625 0.65625,1.4375 0.0937,0.53125 0.0937,1.9375 l 0,2.8125 q 0,2.9375 0.14063,3.71875 0.14062,0.78125 0.53125,1.5 l -2.20313,0 q -0.32812,-0.65625 -0.42187,-1.53125 z m -0.17188,-4.71875 q -1.15625,0.46875 -3.45312,0.79688 -1.29688,0.1875 -1.84375,0.42187 -0.53125,0.23438 -0.82813,0.6875 -0.28125,0.45313 -0.28125,1 0,0.84375 0.625,1.40625 0.64063,0.5625 1.875,0.5625 1.21875,0 2.17188,-0.53125 0.95312,-0.53125 1.39062,-1.45312 0.34375,-0.71875 0.34375,-2.10938 l 0,-0.78125 z m 10.00391,4.35938 0.3125,1.85937 q -0.89063,0.20313 -1.59375,0.20313 -1.15625,0 -1.79688,-0.35938 -0.625,-0.375 -0.89062,-0.96875 -0.25,-0.59375 -0.25,-2.48437 l 0,-7.17188 -1.54688,0 0,-1.64062 1.54688,0 0,-3.07813 2.09375,-1.26562 0,4.34375 2.125,0 0,1.64062 -2.125,0 0,7.28125 q 0,0.90625 0.10937,1.17188 0.125,0.25 0.375,0.40625 0.25,0.14062 0.71875,0.14062 0.34375,0 0.92188,-0.0781 z m 2.07421,-12.85938 0,-2.4375 2.10938,0 0,2.4375 -2.10938,0 z m 0,14.75 0,-12.45312 2.10938,0 0,12.45312 -2.10938,0 z m 4.53516,-6.21875 q 0,-3.46875 1.92188,-5.125 1.60937,-1.39062 3.92187,-1.39062 2.5625,0 4.1875,1.6875 1.625,1.6875 1.625,4.64062 0,2.40625 -0.71875,3.78125 -0.71875,1.375 -2.09375,2.14063 -1.375,0.76562 -3,0.76562 -2.625,0 -4.23437,-1.67187 -1.60938,-1.6875 -1.60938,-4.82813 z m 2.17188,0 q 0,2.39063 1.03125,3.57813 1.04687,1.1875 2.64062,1.1875 1.5625,0 2.60938,-1.1875 1.04687,-1.20313 1.04687,-3.65625 0,-2.3125 -1.0625,-3.5 -1.04687,-1.1875 -2.59375,-1.1875 -1.59375,0 -2.64062,1.1875 -1.03125,1.1875 -1.03125,3.57812 z m 11.95703,6.21875 0,-12.45312 1.90625,0 0,1.78125 q 1.375,-2.0625 3.95312,-2.0625 1.125,0 2.0625,0.40625 0.95313,0.40625 1.42188,1.0625 0.46875,0.65625 0.65625,1.5625 0.125,0.57812 0.125,2.04687 l 0,7.65625 -2.10938,0 0,-7.57812 q 0,-1.28125 -0.25,-1.92188 -0.25,-0.64062 -0.875,-1.01562 -0.625,-0.39063 -1.46875,-0.39063 -1.34375,0 -2.32812,0.85938 -0.98438,0.85937 -0.98438,3.25 l 0,6.79687 -2.10937,0 z"
       id="path73"
       inkscape:connector-curvature="0"
       style="fill:#000000;fill-rule:nonzero" />
  </g>
  <g
     id="g3257"
     transform="translate(-64.462901,-238.6902)">
    <path
       d="m 763.1335,407.42413 0,-17.1875 2.26563,0 0,15.15625 8.46875,0 0,2.03125 -10.73438,0 z m 12.37891,-6.21875 q 0,-3.46875 1.92187,-5.125 1.60938,-1.39063 3.92188,-1.39063 2.5625,0 4.1875,1.6875 1.625,1.6875 1.625,4.64063 0,2.40625 -0.71875,3.78125 -0.71875,1.375 -2.09375,2.14062 -1.375,0.76563 -3,0.76563 -2.625,0 -4.23438,-1.67188 -1.60937,-1.6875 -1.60937,-4.82812 z m 2.17187,0 q 0,2.39062 1.03125,3.57812 1.04688,1.1875 2.64063,1.1875 1.5625,0 2.60937,-1.1875 1.04688,-1.20312 1.04688,-3.65625 0,-2.3125 -1.0625,-3.5 -1.04688,-1.1875 -2.59375,-1.1875 -1.59375,0 -2.64063,1.1875 -1.03125,1.1875 -1.03125,3.57813 z m 20.08203,1.65625 2.07813,0.26562 q -0.34375,2.15625 -1.75,3.375 -1.39063,1.20313 -3.4375,1.20313 -2.54688,0 -4.10938,-1.67188 -1.54687,-1.67187 -1.54687,-4.78125 0,-2.01562 0.67187,-3.53125 0.67188,-1.51562 2.03125,-2.26562 1.35938,-0.76563 2.96875,-0.76563 2.03125,0 3.3125,1.03125 1.29688,1.03125 1.65625,2.90625 l -2.04687,0.32813 q -0.29688,-1.26563 -1.04688,-1.89063 -0.73437,-0.64062 -1.79687,-0.64062 -1.59375,0 -2.59375,1.15625 -0.98438,1.14062 -0.98438,3.60937 0,2.5 0.95313,3.64063 0.96875,1.14062 2.51562,1.14062 1.23438,0 2.0625,-0.76562 0.84375,-0.76563 1.0625,-2.34375 z m 12,3.03125 q -1.17187,0.98437 -2.26562,1.40625 -1.07813,0.40625 -2.3125,0.40625 -2.04688,0 -3.15625,-1 -1.09375,-1 -1.09375,-2.5625 0,-0.92188 0.40625,-1.67188 0.42187,-0.75 1.09375,-1.20312 0.67187,-0.46875 1.51562,-0.70313 0.625,-0.15625 1.875,-0.3125 2.5625,-0.3125 3.76563,-0.73437 0.0156,-0.42188 0.0156,-0.54688 0,-1.28125 -0.60937,-1.8125 -0.79688,-0.71875 -2.39063,-0.71875 -1.5,0 -2.20312,0.53125 -0.70313,0.51563 -1.04688,1.84375 l -2.0625,-0.28125 q 0.28125,-1.32812 0.92188,-2.14062 0.64062,-0.8125 1.85937,-1.25 1.21875,-0.45313 2.82813,-0.45313 1.59375,0 2.59375,0.375 1,0.375 1.46875,0.95313 0.46875,0.5625 0.65625,1.4375 0.0937,0.53125 0.0937,1.9375 l 0,2.8125 q 0,2.9375 0.14062,3.71875 0.14063,0.78125 0.53125,1.5 l -2.20312,0 q -0.32813,-0.65625 -0.42188,-1.53125 z m -0.17187,-4.71875 q -1.15625,0.46875 -3.45313,0.79687 -1.29687,0.1875 -1.84375,0.42188 -0.53125,0.23437 -0.82812,0.6875 -0.28125,0.45312 -0.28125,1 0,0.84375 0.625,1.40625 0.64062,0.5625 1.875,0.5625 1.21875,0 2.17187,-0.53125 0.95313,-0.53125 1.39063,-1.45313 0.34375,-0.71875 0.34375,-2.10937 l 0,-0.78125 z m 5.34765,6.25 0,-17.1875 2.10938,0 0,17.1875 -2.10938,0 z m 11.54688,-5.51563 2.14062,-0.1875 q 0.15625,1.28125 0.70313,2.10938 0.5625,0.82812 1.73437,1.34375 1.17188,0.5 2.64063,0.5 1.29687,0 2.29687,-0.375 1,-0.39063 1.48438,-1.0625 0.48437,-0.6875 0.48437,-1.48438 0,-0.79687 -0.46875,-1.40625 -0.46875,-0.60937 -1.54687,-1.01562 -0.6875,-0.26563 -3.0625,-0.82813 -2.35938,-0.57812 -3.3125,-1.07812 -1.23438,-0.64063 -1.84375,-1.59375 -0.59375,-0.96875 -0.59375,-2.14063 0,-1.3125 0.73437,-2.4375 0.75,-1.125 2.15625,-1.70312 1.42188,-0.59375 3.15625,-0.59375 1.90625,0 3.35938,0.60937 1.46875,0.60938 2.25,1.8125 0.79687,1.1875 0.84375,2.70313 l -2.17188,0.17187 q -0.17187,-1.64062 -1.1875,-2.46875 -1.01562,-0.82812 -3,-0.82812 -2.0625,0 -3.01562,0.76562 -0.9375,0.75 -0.9375,1.8125 0,0.92188 0.67187,1.51563 0.65625,0.60937 3.42188,1.23437 2.78125,0.625 3.8125,1.09375 1.5,0.6875 2.20312,1.75 0.71875,1.0625 0.71875,2.4375 0,1.375 -0.78125,2.59375 -0.78125,1.20313 -2.25,1.89063 -1.46875,0.67187 -3.3125,0.67187 -2.32812,0 -3.90625,-0.67187 -1.57812,-0.6875 -2.48437,-2.04688 -0.89063,-1.375 -0.9375,-3.09375 z m 21.11719,3.625 0.3125,1.85938 q -0.89063,0.20312 -1.59375,0.20312 -1.15625,0 -1.79688,-0.35937 -0.625,-0.375 -0.89062,-0.96875 -0.25,-0.59375 -0.25,-2.48438 l 0,-7.17187 -1.54688,0 0,-1.64063 1.54688,0 0,-3.07812 2.09375,-1.26563 0,4.34375 2.125,0 0,1.64063 -2.125,0 0,7.28125 q 0,0.90625 0.10937,1.17187 0.125,0.25 0.375,0.40625 0.25,0.14063 0.71875,0.14063 0.34375,0 0.92188,-0.0781 z m 1.27734,-4.32812 q 0,-3.46875 1.92188,-5.125 1.60937,-1.39063 3.92187,-1.39063 2.5625,0 4.1875,1.6875 1.625,1.6875 1.625,4.64063 0,2.40625 -0.71875,3.78125 -0.71875,1.375 -2.09375,2.14062 -1.375,0.76563 -3,0.76563 -2.625,0 -4.23437,-1.67188 -1.60938,-1.6875 -1.60938,-4.82812 z m 2.17188,0 q 0,2.39062 1.03125,3.57812 1.04687,1.1875 2.64062,1.1875 1.5625,0 2.60938,-1.1875 1.04687,-1.20312 1.04687,-3.65625 0,-2.3125 -1.0625,-3.5 -1.04687,-1.1875 -2.59375,-1.1875 -1.59375,0 -2.64062,1.1875 -1.03125,1.1875 -1.03125,3.57813 z m 11.9414,6.21875 0,-12.45313 1.89063,0 0,1.89063 q 0.73437,-1.32813 1.34375,-1.75 0.625,-0.42188 1.35937,-0.42188 1.0625,0 2.17188,0.6875 l -0.73438,1.95313 q -0.76562,-0.45313 -1.54687,-0.45313 -0.6875,0 -1.25,0.42188 -0.54688,0.40625 -0.78125,1.14062 -0.34375,1.125 -0.34375,2.46875 l 0,6.51563 -2.10938,0 z m 16.13281,-1.53125 q -1.17187,0.98437 -2.26562,1.40625 -1.07813,0.40625 -2.3125,0.40625 -2.04688,0 -3.15625,-1 -1.09375,-1 -1.09375,-2.5625 0,-0.92188 0.40625,-1.67188 0.42187,-0.75 1.09375,-1.20312 0.67187,-0.46875 1.51562,-0.70313 0.625,-0.15625 1.875,-0.3125 2.5625,-0.3125 3.76563,-0.73437 0.0156,-0.42188 0.0156,-0.54688 0,-1.28125 -0.60937,-1.8125 -0.79688,-0.71875 -2.39063,-0.71875 -1.5,0 -2.20312,0.53125 -0.70313,0.51563 -1.04688,1.84375 l -2.0625,-0.28125 q 0.28125,-1.32812 0.92188,-2.14062 0.64062,-0.8125 1.85937,-1.25 1.21875,-0.45313 2.82813,-0.45313 1.59375,0 2.59375,0.375 1,0.375 1.46875,0.95313 0.46875,0.5625 0.65625,1.4375 0.0937,0.53125 0.0937,1.9375 l 0,2.8125 q 0,2.9375 0.14062,3.71875 0.14063,0.78125 0.53125,1.5 l -2.20312,0 q -0.32813,-0.65625 -0.42188,-1.53125 z m -0.17187,-4.71875 q -1.15625,0.46875 -3.45313,0.79687 -1.29687,0.1875 -1.84375,0.42188 -0.53125,0.23437 -0.82812,0.6875 -0.28125,0.45312 -0.28125,1 0,0.84375 0.625,1.40625 0.64062,0.5625 1.875,0.5625 1.21875,0 2.17187,-0.53125 0.95313,-0.53125 1.39063,-1.45313 0.34375,-0.71875 0.34375,-2.10937 l 0,-0.78125 z m 5.01953,7.28125 2.04687,0.3125 q 0.125,0.9375 0.71875,1.375 0.78125,0.59375 2.14063,0.59375 1.46875,0 2.26562,-0.59375 0.79688,-0.57813 1.07813,-1.64063 0.15625,-0.64062 0.14062,-2.70312 -1.375,1.625 -3.4375,1.625 -2.5625,0 -3.96875,-1.84375 -1.40625,-1.85938 -1.40625,-4.45313 0,-1.78125 0.64063,-3.28125 0.64062,-1.51562 1.85937,-2.32812 1.23438,-0.82813 2.89063,-0.82813 2.20312,0 3.625,1.78125 l 0,-1.5 1.95312,0 0,10.76563 q 0,2.90625 -0.59375,4.10937 -0.59375,1.21875 -1.875,1.92188 -1.28125,0.70312 -3.15625,0.70312 -2.23437,0 -3.60937,-1 -1.35938,-1 -1.3125,-3.01562 z m 1.73437,-7.48438 q 0,2.45313 0.96875,3.57813 0.98438,1.125 2.45313,1.125 1.45312,0 2.4375,-1.10938 0.98437,-1.125 0.98437,-3.51562 0,-2.28125 -1.01562,-3.4375 -1.01563,-1.17188 -2.45313,-1.17188 -1.40625,0 -2.39062,1.14063 -0.98438,1.14062 -0.98438,3.39062 z m 20.51954,2.4375 2.17187,0.28125 q -0.51562,1.90625 -1.90625,2.96875 -1.39062,1.04688 -3.5625,1.04688 -2.73437,0 -4.34375,-1.67188 -1.59375,-1.6875 -1.59375,-4.73437 0,-3.14063 1.60938,-4.875 1.625,-1.73438 4.20312,-1.73438 2.5,0 4.07813,1.70313 1.59375,1.70312 1.59375,4.78125 0,0.1875 -0.0156,0.5625 l -9.28125,0 q 0.10938,2.04687 1.15625,3.14062 1.04688,1.09375 2.60938,1.09375 1.15625,0 1.96875,-0.60937 0.82812,-0.60938 1.3125,-1.95313 z m -6.9375,-3.40625 6.95312,0 q -0.14062,-1.5625 -0.79687,-2.35937 -1,-1.21875 -2.60938,-1.21875 -1.45312,0 -2.45312,0.98437 -0.98438,0.96875 -1.09375,2.59375 z"
       id="path79"
       inkscape:connector-curvature="0"
       style="fill:#000000;fill-rule:nonzero" />
    <path
       d="m 810.3874,435.01788 0,-1.57813 q -1.1875,1.85938 -3.48438,1.85938 -1.48437,0 -2.73437,-0.8125 -1.25,-0.82813 -1.9375,-2.29688 -0.67188,-1.46875 -0.67188,-3.39062 0,-1.85938 0.60938,-3.375 0.625,-1.51563 1.85937,-2.32813 1.25,-0.8125 2.78125,-0.8125 1.125,0 2,0.48438 0.89063,0.46875 1.4375,1.23437 l 0,-6.17187 2.09375,0 0,17.1875 -1.95312,0 z m -6.67188,-6.21875 q 0,2.39062 1,3.57812 1.01563,1.1875 2.39063,1.1875 1.39062,0 2.34375,-1.125 0.96875,-1.14062 0.96875,-3.45312 0,-2.5625 -0.98438,-3.75 -0.98437,-1.20313 -2.42187,-1.20313 -1.40625,0 -2.35938,1.15625 -0.9375,1.14063 -0.9375,3.60938 z m 20.47266,2.20312 2.17188,0.28125 q -0.51563,1.90625 -1.90625,2.96875 -1.39063,1.04688 -3.5625,1.04688 -2.73438,0 -4.34375,-1.67188 -1.59375,-1.6875 -1.59375,-4.73437 0,-3.14063 1.60937,-4.875 1.625,-1.73438 4.20313,-1.73438 2.5,0 4.07812,1.70313 1.59375,1.70312 1.59375,4.78125 0,0.1875 -0.0156,0.5625 l -9.28125,0 q 0.10937,2.04687 1.15625,3.14062 1.04687,1.09375 2.60937,1.09375 1.15625,0 1.96875,-0.60937 0.82813,-0.60938 1.3125,-1.95313 z m -6.9375,-3.40625 6.95313,0 q -0.14063,-1.5625 -0.79688,-2.35937 -1,-1.21875 -2.60937,-1.21875 -1.45313,0 -2.45313,0.98437 -0.98437,0.96875 -1.09375,2.59375 z m 15.22266,7.42188 -4.73438,-12.45313 2.21875,0 2.67188,7.45313 q 0.4375,1.21875 0.79687,2.51562 0.28125,-0.98437 0.78125,-2.375 l 2.76563,-7.59375 2.17187,0 -4.70312,12.45313 -1.96875,0 z m 8.54687,-14.75 0,-2.4375 2.10938,0 0,2.4375 -2.10938,0 z m 0,14.75 0,-12.45313 2.10938,0 0,12.45313 -2.10938,0 z m 13.44141,-4.5625 2.07812,0.26562 q -0.34375,2.15625 -1.75,3.375 -1.39062,1.20313 -3.4375,1.20313 -2.54687,0 -4.10937,-1.67188 -1.54688,-1.67187 -1.54688,-4.78125 0,-2.01562 0.67188,-3.53125 0.67187,-1.51562 2.03125,-2.26562 1.35937,-0.76563 2.96875,-0.76563 2.03125,0 3.3125,1.03125 1.29687,1.03125 1.65625,2.90625 l -2.04688,0.32813 q -0.29687,-1.26563 -1.04687,-1.89063 -0.73438,-0.64062 -1.79688,-0.64062 -1.59375,0 -2.59375,1.15625 -0.98437,1.14062 -0.98437,3.60937 0,2.5 0.95312,3.64063 0.96875,1.14062 2.51563,1.14062 1.23437,0 2.0625,-0.76562 0.84375,-0.76563 1.0625,-2.34375 z m 12.40625,0.54687 2.17187,0.28125 q -0.51562,1.90625 -1.90625,2.96875 -1.39062,1.04688 -3.5625,1.04688 -2.73437,0 -4.34375,-1.67188 -1.59375,-1.6875 -1.59375,-4.73437 0,-3.14063 1.60938,-4.875 1.625,-1.73438 4.20312,-1.73438 2.5,0 4.07813,1.70313 1.59375,1.70312 1.59375,4.78125 0,0.1875 -0.0156,0.5625 l -9.28125,0 q 0.10938,2.04687 1.15625,3.14062 1.04688,1.09375 2.60938,1.09375 1.15625,0 1.96875,-0.60937 0.82812,-0.60938 1.3125,-1.95313 z m -6.9375,-3.40625 6.95312,0 q -0.14062,-1.5625 -0.79687,-2.35937 -1,-1.21875 -2.60938,-1.21875 -1.45312,0 -2.45312,0.98437 -0.98438,0.96875 -1.09375,2.59375 z"
       id="path81"
       inkscape:connector-curvature="0"
       style="fill:#000000;fill-rule:nonzero" />
  </g>
  <path
     style="stroke:#000000;stroke-width:1;stroke-linecap:round;stroke-linejoin:round"
     inkscape:connector-curvature="0"
     id="path85"
     d="m 300.25673,47.76947 0,64.9288" />
  <path
     style="fill:#000000;fill-rule:nonzero"
     inkscape:connector-curvature="0"
     id="path91"
     d="m 284.56148,26.50636 0,-2.01563 7.28125,-0.0156 0,6.375 q -1.67188,1.32812 -3.45313,2.01562 -1.78125,0.67188 -3.65625,0.67188 -2.53125,0 -4.60937,-1.07813 -2.0625,-1.09375 -3.125,-3.14062 -1.04688,-2.0625 -1.04688,-4.59375 0,-2.5 1.04688,-4.67186 1.04687,-2.17187 3.01562,-3.21875 1.96875,-1.0625 4.53125,-1.0625 1.875,0 3.375,0.60938 1.5,0.59375 2.35938,1.67187 0.85937,1.07813 1.29687,2.81248 l -2.04687,0.5625 q -0.39063,-1.31248 -0.96875,-2.06248 -0.5625,-0.75 -1.64063,-1.20312 -1.0625,-0.45313 -2.35937,-0.45313 -1.5625,0 -2.70313,0.48438 -1.125,0.46875 -1.82812,1.25 -0.6875,0.76562 -1.07813,1.68748 -0.65625,1.59375 -0.65625,3.45312 0,2.29688 0.78125,3.84375 0.79688,1.54688 2.3125,2.29688 1.51563,0.75 3.20313,0.75 1.48437,0 2.89062,-0.5625 1.40625,-0.5625 2.125,-1.21875 l 0,-3.1875 -5.04687,0 z m 10.63672,6.73437 0,-17.18748 6.46875,0 q 1.71875,0 2.625,0.17187 1.26562,0.20313 2.10937,0.79688 0.85938,0.59375 1.375,1.67187 0.53125,1.0625 0.53125,2.32811 0,2.20313 -1.40625,3.71875 -1.39062,1.51563 -5.03125,1.51563 l -4.40625,0 0,6.98437 -2.26562,0 z m 2.26562,-9.01562 4.4375,0 q 2.20313,0 3.125,-0.8125 0.9375,-0.82813 0.9375,-2.3125 0,-1.07811 -0.54687,-1.84373 -0.54688,-0.76563 -1.4375,-1.01563 -0.57813,-0.15625 -2.125,-0.15625 l -4.39063,0 0,6.14061 z m 12.96094,3.5 2.14063,-0.1875 q 0.15625,1.28125 0.70312,2.10937 0.5625,0.82813 1.73438,1.34375 1.17187,0.5 2.64062,0.5 1.29688,0 2.29688,-0.375 1,-0.39062 1.48437,-1.0625 0.48438,-0.6875 0.48438,-1.48437 0,-0.79688 -0.46875,-1.40625 -0.46875,-0.60938 -1.54688,-1.01563 -0.6875,-0.26562 -3.0625,-0.82812 -2.35937,-0.57813 -3.3125,-1.07813 -1.23437,-0.64062 -1.84375,-1.59375 -0.59375,-0.96875 -0.59375,-2.1406 0,-1.3125 0.73438,-2.4375 0.75,-1.125 2.15625,-1.70313 1.42187,-0.59375 3.15625,-0.59375 1.90625,0 3.35937,0.60938 1.46875,0.60937 2.25,1.8125 0.79688,1.1875 0.84375,2.7031 l -2.17187,0.17188 q -0.17188,-1.64061 -1.1875,-2.46873 -1.01563,-0.82813 -3,-0.82813 -2.0625,0 -3.01563,0.76563 -0.9375,0.75 -0.9375,1.8125 0,0.92186 0.67188,1.5156 0.65625,0.60938 3.42187,1.23438 2.78125,0.625 3.8125,1.09375 1.5,0.6875 2.20313,1.75 0.71875,1.0625 0.71875,2.4375 0,1.375 -0.78125,2.59375 -0.78125,1.20312 -2.25,1.89062 -1.46875,0.67188 -3.3125,0.67188 -2.32813,0 -3.90625,-0.67188 -1.57813,-0.6875 -2.48438,-2.04687 -0.89062,-1.375 -0.9375,-3.09375 z" />
  <path
     style="stroke:#000000;stroke-width:1;stroke-linecap:round;stroke-linejoin:round"
     inkscape:connector-curvature="0"
     id="path93"
     d="m 635.06055,172.70577 46.83124,-0.15881" />
  <path
     style="stroke:#000000;stroke-width:1;stroke-linecap:round;stroke-linejoin:round"
     inkscape:connector-curvature="0"
     id="path95"
     d="M 633.91799,136.38062 681.86766,73.49417"
     sodipodi:nodetypes="cc" />
  <path
     style="stroke:#000000;stroke-width:1;stroke-linecap:round;stroke-linejoin:round"
     inkscape:connector-curvature="0"
     id="path99"
     d="m 635.31571,211.84669 47.18694,73.56441"
     sodipodi:nodetypes="cc" />
  <g
     id="g3248"
     transform="translate(-63.058602,-226.39362)">
    <path
       d="m 581.8482,379.85214 6.59375,-17.1875 2.45313,0 7.03125,17.1875 -2.59375,0 -2,-5.20312 -7.1875,0 -1.89063,5.20312 -2.40625,0 z m 4.95313,-7.0625 5.82812,0 -1.79687,-4.75 q -0.8125,-2.17187 -1.21875,-3.5625 -0.32813,1.65625 -0.92188,3.28125 l -1.89062,5.03125 z m 12.97656,7.0625 0,-17.1875 7.60937,0 q 2.29688,0 3.48438,0.46875 1.20312,0.46875 1.92187,1.64063 0.71875,1.17187 0.71875,2.57812 0,1.82813 -1.1875,3.09375 -1.1875,1.25 -3.65625,1.59375 0.90625,0.42188 1.375,0.84375 1,0.92188 1.89063,2.29688 l 2.98437,4.67187 -2.85937,0 -2.28125,-3.57812 q -0.98438,-1.54688 -1.64063,-2.35938 -0.64062,-0.82812 -1.15625,-1.15625 -0.5,-0.32812 -1.03125,-0.45312 -0.39062,-0.0781 -1.26562,-0.0781 l -2.64063,0 0,7.625 -2.26562,0 z m 2.26562,-9.59375 4.89063,0 q 1.5625,0 2.4375,-0.32812 0.875,-0.32813 1.32812,-1.03125 0.46875,-0.70313 0.46875,-1.54688 0,-1.21875 -0.89062,-2 -0.875,-0.78125 -2.79688,-0.78125 l -5.4375,0 0,5.6875 z m 14.95703,9.59375 0,-17.1875 3.42188,0 4.0625,12.17188 q 0.5625,1.70312 0.82812,2.54687 0.29688,-0.9375 0.90625,-2.76562 l 4.125,-11.95313 3.04688,0 0,17.1875 -2.1875,0 0,-14.375 -4.98438,14.375 -2.0625,0 -4.96875,-14.625 0,14.625 -2.1875,0 z"
       id="path107"
       inkscape:connector-curvature="0"
       style="fill:#000000;fill-rule:nonzero" />
    <path
       d="m 564.6236,401.41464 2.28125,0.57813 q -0.71875,2.79687 -2.57813,4.28125 -1.85937,1.46875 -4.54687,1.46875 -2.76563,0 -4.51563,-1.125 -1.73437,-1.14063 -2.64062,-3.28125 -0.90625,-2.15625 -0.90625,-4.60938 0,-2.6875 1.01562,-4.6875 1.03125,-2 2.92188,-3.03125 1.89062,-1.03125 4.17187,-1.03125 2.57813,0 4.32813,1.3125 1.76562,1.3125 2.45312,3.6875 l -2.23437,0.53125 q -0.60938,-1.875 -1.75,-2.73437 -1.125,-0.85938 -2.84375,-0.85938 -1.98438,0 -3.3125,0.95313 -1.32813,0.95312 -1.875,2.54687 -0.53125,1.59375 -0.53125,3.29688 0,2.1875 0.625,3.82812 0.64062,1.64063 1.98437,2.45313 1.35938,0.79687 2.92188,0.79687 1.92187,0 3.23437,-1.09375 1.32813,-1.10937 1.79688,-3.28125 z m 4.01953,-0.1875 q 0,-3.46875 1.92188,-5.125 1.60937,-1.39062 3.92187,-1.39062 2.5625,0 4.1875,1.6875 1.625,1.6875 1.625,4.64062 0,2.40625 -0.71875,3.78125 -0.71875,1.375 -2.09375,2.14063 -1.375,0.76562 -3,0.76562 -2.625,0 -4.23437,-1.67187 -1.60938,-1.6875 -1.60938,-4.82813 z m 2.17188,0 q 0,2.39063 1.03125,3.57813 1.04687,1.1875 2.64062,1.1875 1.5625,0 2.60938,-1.1875 1.04687,-1.20313 1.04687,-3.65625 0,-2.3125 -1.0625,-3.5 -1.04687,-1.1875 -2.59375,-1.1875 -1.59375,0 -2.64062,1.1875 -1.03125,1.1875 -1.03125,3.57812 z m 11.95703,6.21875 0,-12.45312 1.89062,0 0,1.75 q 0.59375,-0.90625 1.5625,-1.46875 0.96875,-0.5625 2.21875,-0.5625 1.375,0 2.25,0.57812 0.89063,0.57813 1.26563,1.60938 1.46875,-2.1875 3.84375,-2.1875 1.84375,0 2.84375,1.03125 1,1.03125 1,3.15625 l 0,8.54687 -2.10938,0 0,-7.84375 q 0,-1.26562 -0.20312,-1.8125 -0.20313,-0.5625 -0.75,-0.90625 -0.53125,-0.34375 -1.25,-0.34375 -1.3125,0 -2.1875,0.875 -0.85938,0.875 -0.85938,2.79688 l 0,7.23437 -2.10937,0 0,-8.09375 q 0,-1.40625 -0.51563,-2.10937 -0.51562,-0.70313 -1.6875,-0.70313 -0.89062,0 -1.65625,0.46875 -0.75,0.46875 -1.09375,1.375 -0.34375,0.90625 -0.34375,2.60938 l 0,6.45312 -2.10937,0 z m 19.99219,4.76563 0,-17.21875 1.92187,0 0,1.625 q 0.6875,-0.95313 1.53125,-1.42188 0.85938,-0.48437 2.07813,-0.48437 1.59375,0 2.8125,0.82812 1.21875,0.8125 1.84375,2.3125 0.625,1.5 0.625,3.28125 0,1.90625 -0.6875,3.4375 -0.6875,1.53125 -2,2.34375 -1.29688,0.8125 -2.73438,0.8125 -1.0625,0 -1.90625,-0.4375 -0.82812,-0.45312 -1.375,-1.14062 l 0,6.0625 -2.10937,0 z m 1.92187,-10.92188 q 0,2.40625 0.96875,3.5625 0.96875,1.14063 2.35938,1.14063 1.40625,0 2.40625,-1.1875 1,-1.1875 1,-3.6875 0,-2.375 -0.98438,-3.5625 -0.96875,-1.1875 -2.32812,-1.1875 -1.35938,0 -2.39063,1.26562 -1.03125,1.25 -1.03125,3.65625 z m 19.58203,6.15625 0,-1.82812 q -1.45312,2.10937 -3.9375,2.10937 -1.10937,0 -2.0625,-0.42187 -0.95312,-0.42188 -1.42187,-1.0625 -0.45313,-0.64063 -0.64063,-1.5625 -0.14062,-0.625 -0.14062,-1.96875 l 0,-7.71875 2.10937,0 0,6.90625 q 0,1.65625 0.14063,2.23437 0.1875,0.82813 0.82812,1.3125 0.65625,0.46875 1.60938,0.46875 0.9375,0 1.76562,-0.48437 0.84375,-0.5 1.1875,-1.32813 0.34375,-0.84375 0.34375,-2.4375 l 0,-6.67187 2.10938,0 0,12.45312 -1.89063,0 z m 9.80078,-1.89062 0.3125,1.85937 q -0.89062,0.20313 -1.59375,0.20313 -1.15625,0 -1.79687,-0.35938 -0.625,-0.375 -0.89063,-0.96875 -0.25,-0.59375 -0.25,-2.48437 l 0,-7.17188 -1.54687,0 0,-1.64062 1.54687,0 0,-3.07813 2.09375,-1.26562 0,4.34375 2.125,0 0,1.64062 -2.125,0 0,7.28125 q 0,0.90625 0.10938,1.17188 0.125,0.25 0.375,0.40625 0.25,0.14062 0.71875,0.14062 0.34375,0 0.92187,-0.0781 z m 2.07422,-12.85938 0,-2.4375 2.10938,0 0,2.4375 -2.10938,0 z m 0,14.75 0,-12.45312 2.10938,0 0,12.45312 -2.10938,0 z m 5.31641,0 0,-12.45312 1.90625,0 0,1.78125 q 1.375,-2.0625 3.95312,-2.0625 1.125,0 2.0625,0.40625 0.95313,0.40625 1.42188,1.0625 0.46875,0.65625 0.65625,1.5625 0.125,0.57812 0.125,2.04687 l 0,7.65625 -2.10938,0 0,-7.57812 q 0,-1.28125 -0.25,-1.92188 -0.25,-0.64062 -0.875,-1.01562 -0.625,-0.39063 -1.46875,-0.39063 -1.34375,0 -2.32812,0.85938 -0.98438,0.85937 -0.98438,3.25 l 0,6.79687 -2.10937,0 z m 12.97265,1.03125 2.04688,0.3125 q 0.125,0.9375 0.71875,1.375 0.78125,0.59375 2.14062,0.59375 1.46875,0 2.26563,-0.59375 0.79687,-0.57812 1.07812,-1.64062 0.15625,-0.64063 0.14063,-2.70313 -1.375,1.625 -3.4375,1.625 -2.5625,0 -3.96875,-1.84375 -1.40625,-1.85937 -1.40625,-4.45312 0,-1.78125 0.64062,-3.28125 0.64063,-1.51563 1.85938,-2.32813 1.23437,-0.82812 2.89062,-0.82812 2.20313,0 3.625,1.78125 l 0,-1.5 1.95313,0 0,10.76562 q 0,2.90625 -0.59375,4.10938 -0.59375,1.21875 -1.875,1.92187 -1.28125,0.70313 -3.15625,0.70313 -2.23438,0 -3.60938,-1 -1.35937,-1 -1.3125,-3.01563 z m 1.73438,-7.48437 q 0,2.45312 0.96875,3.57812 0.98437,1.125 2.45312,1.125 1.45313,0 2.4375,-1.10937 0.98438,-1.125 0.98438,-3.51563 0,-2.28125 -1.01563,-3.4375 -1.01562,-1.17187 -2.45312,-1.17187 -1.40625,0 -2.39063,1.14062 -0.98437,1.14063 -0.98437,3.39063 z"
       id="path109"
       inkscape:connector-curvature="0"
       style="fill:#000000;fill-rule:nonzero" />
    <path
       d="m 565.7271,435.03964 0,-17.1875 6.46875,0 q 1.71875,0 2.625,0.17188 1.26562,0.20312 2.10937,0.79687 0.85938,0.59375 1.375,1.67188 0.53125,1.0625 0.53125,2.32812 0,2.20313 -1.40625,3.71875 -1.39062,1.51563 -5.03125,1.51563 l -4.40625,0 0,6.98437 -2.26562,0 z m 2.26562,-9.01562 4.4375,0 q 2.20313,0 3.125,-0.8125 0.9375,-0.82813 0.9375,-2.3125 0,-1.07813 -0.54687,-1.84375 -0.54688,-0.76563 -1.4375,-1.01563 -0.57813,-0.15625 -2.125,-0.15625 l -4.39063,0 0,6.14063 z m 13.41407,9.01562 0,-17.1875 2.10937,0 0,17.1875 -2.10937,0 z m 13.5039,-1.53125 q -1.17187,0.98438 -2.26562,1.40625 -1.07813,0.40625 -2.3125,0.40625 -2.04688,0 -3.15625,-1 -1.09375,-1 -1.09375,-2.5625 0,-0.92187 0.40625,-1.67187 0.42187,-0.75 1.09375,-1.20313 0.67187,-0.46875 1.51562,-0.70312 0.625,-0.15625 1.875,-0.3125 2.5625,-0.3125 3.76563,-0.73438 0.0156,-0.42187 0.0156,-0.54687 0,-1.28125 -0.60937,-1.8125 -0.79688,-0.71875 -2.39063,-0.71875 -1.5,0 -2.20312,0.53125 -0.70313,0.51562 -1.04688,1.84375 l -2.0625,-0.28125 q 0.28125,-1.32813 0.92188,-2.14063 0.64062,-0.8125 1.85937,-1.25 1.21875,-0.45312 2.82813,-0.45312 1.59375,0 2.59375,0.375 1,0.375 1.46875,0.95312 0.46875,0.5625 0.65625,1.4375 0.0937,0.53125 0.0937,1.9375 l 0,2.8125 q 0,2.9375 0.14062,3.71875 0.14063,0.78125 0.53125,1.5 l -2.20312,0 q -0.32813,-0.65625 -0.42188,-1.53125 z m -0.17187,-4.71875 q -1.15625,0.46875 -3.45313,0.79688 -1.29687,0.1875 -1.84375,0.42187 -0.53125,0.23438 -0.82812,0.6875 -0.28125,0.45313 -0.28125,1 0,0.84375 0.625,1.40625 0.64062,0.5625 1.875,0.5625 1.21875,0 2.17187,-0.53125 0.95313,-0.53125 1.39063,-1.45312 0.34375,-0.71875 0.34375,-2.10938 l 0,-0.78125 z m 10.0039,4.35938 0.3125,1.85937 q -0.89062,0.20313 -1.59375,0.20313 -1.15625,0 -1.79687,-0.35938 -0.625,-0.375 -0.89063,-0.96875 -0.25,-0.59375 -0.25,-2.48437 l 0,-7.17188 -1.54687,0 0,-1.64062 1.54687,0 0,-3.07813 2.09375,-1.26562 0,4.34375 2.125,0 0,1.64062 -2.125,0 0,7.28125 q 0,0.90625 0.10938,1.17188 0.125,0.25 0.375,0.40625 0.25,0.14062 0.71875,0.14062 0.34375,0 0.92187,-0.0781 z m 2.57422,1.89062 0,-10.8125 -1.875,0 0,-1.64062 1.875,0 0,-1.3125 q 0,-1.26563 0.21875,-1.875 0.29688,-0.8125 1.0625,-1.3125 0.78125,-0.51563 2.15625,-0.51563 0.89063,0 1.96875,0.20313 l -0.3125,1.84375 q -0.65625,-0.125 -1.25,-0.125 -0.95312,0 -1.35937,0.42187 -0.39063,0.40625 -0.39063,1.53125 l 0,1.14063 2.42188,0 0,1.64062 -2.42188,0 0,10.8125 -2.09375,0 z m 5.3711,-6.21875 q 0,-3.46875 1.92187,-5.125 1.60938,-1.39062 3.92188,-1.39062 2.5625,0 4.1875,1.6875 1.625,1.6875 1.625,4.64062 0,2.40625 -0.71875,3.78125 -0.71875,1.375 -2.09375,2.14063 -1.375,0.76562 -3,0.76562 -2.625,0 -4.23438,-1.67187 -1.60937,-1.6875 -1.60937,-4.82813 z m 2.17187,0 q 0,2.39063 1.03125,3.57813 1.04688,1.1875 2.64063,1.1875 1.5625,0 2.60937,-1.1875 1.04688,-1.20313 1.04688,-3.65625 0,-2.3125 -1.0625,-3.5 -1.04688,-1.1875 -2.59375,-1.1875 -1.59375,0 -2.64063,1.1875 -1.03125,1.1875 -1.03125,3.57812 z m 11.94141,6.21875 0,-12.45312 1.89062,0 0,1.89062 q 0.73438,-1.32812 1.34375,-1.75 0.625,-0.42187 1.35938,-0.42187 1.0625,0 2.17187,0.6875 l -0.73437,1.95312 q -0.76563,-0.45312 -1.54688,-0.45312 -0.6875,0 -1.25,0.42187 -0.54687,0.40625 -0.78125,1.14063 -0.34375,1.125 -0.34375,2.46875 l 0,6.51562 -2.10937,0 z m 8.00781,0 0,-12.45312 1.89063,0 0,1.75 q 0.59375,-0.90625 1.5625,-1.46875 0.96875,-0.5625 2.21875,-0.5625 1.375,0 2.25,0.57812 0.89062,0.57813 1.26562,1.60938 1.46875,-2.1875 3.84375,-2.1875 1.84375,0 2.84375,1.03125 1,1.03125 1,3.15625 l 0,8.54687 -2.10937,0 0,-7.84375 q 0,-1.26562 -0.20313,-1.8125 -0.20312,-0.5625 -0.75,-0.90625 -0.53125,-0.34375 -1.25,-0.34375 -1.3125,0 -2.1875,0.875 -0.85937,0.875 -0.85937,2.79688 l 0,7.23437 -2.10938,0 0,-8.09375 q 0,-1.40625 -0.51562,-2.10937 -0.51563,-0.70313 -1.6875,-0.70313 -0.89063,0 -1.65625,0.46875 -0.75,0.46875 -1.09375,1.375 -0.34375,0.90625 -0.34375,2.60938 l 0,6.45312 -2.10938,0 z"
       id="path111"
       inkscape:connector-curvature="0"
       style="fill:#000000;fill-rule:nonzero" />
  </g>
  <g
     id="g3243"
     transform="translate(-62.571522,-228.77643)">
    <path
       d="m 340.2678,379.85214 0,-17.1875 5.90625,0 q 2.01563,0 3.0625,0.25 1.48438,0.34375 2.51563,1.23438 1.35937,1.14062 2.03125,2.9375 0.6875,1.78125 0.6875,4.07812 0,1.95313 -0.46875,3.46875 -0.45313,1.51563 -1.17188,2.51563 -0.70312,0.98437 -1.5625,1.54687 -0.84375,0.5625 -2.04687,0.85938 -1.20313,0.29687 -2.76563,0.29687 l -6.1875,0 z m 2.26563,-2.03125 3.67187,0 q 1.70313,0 2.65625,-0.3125 0.96875,-0.3125 1.54688,-0.89062 0.8125,-0.8125 1.26562,-2.17188 0.45313,-1.375 0.45313,-3.3125 0,-2.70312 -0.89063,-4.14062 -0.89062,-1.45313 -2.15625,-1.9375 -0.90625,-0.35938 -2.9375,-0.35938 l -3.60937,0 0,13.125 z m 22.91015,0.5 q -1.17187,0.98438 -2.26562,1.40625 -1.07813,0.40625 -2.3125,0.40625 -2.04688,0 -3.15625,-1 -1.09375,-1 -1.09375,-2.5625 0,-0.92187 0.40625,-1.67187 0.42187,-0.75 1.09375,-1.20313 0.67187,-0.46875 1.51562,-0.70312 0.625,-0.15625 1.875,-0.3125 2.5625,-0.3125 3.76563,-0.73438 0.0156,-0.42187 0.0156,-0.54687 0,-1.28125 -0.60937,-1.8125 -0.79688,-0.71875 -2.39063,-0.71875 -1.5,0 -2.20312,0.53125 -0.70313,0.51562 -1.04688,1.84375 l -2.0625,-0.28125 q 0.28125,-1.32813 0.92188,-2.14063 0.64062,-0.8125 1.85937,-1.25 1.21875,-0.45312 2.82813,-0.45312 1.59375,0 2.59375,0.375 1,0.375 1.46875,0.95312 0.46875,0.5625 0.65625,1.4375 0.0937,0.53125 0.0937,1.9375 l 0,2.8125 q 0,2.9375 0.14062,3.71875 0.14063,0.78125 0.53125,1.5 l -2.20312,0 q -0.32813,-0.65625 -0.42188,-1.53125 z m -0.17187,-4.71875 q -1.15625,0.46875 -3.45313,0.79688 -1.29687,0.1875 -1.84375,0.42187 -0.53125,0.23438 -0.82812,0.6875 -0.28125,0.45313 -0.28125,1 0,0.84375 0.625,1.40625 0.64062,0.5625 1.875,0.5625 1.21875,0 2.17187,-0.53125 0.95313,-0.53125 1.39063,-1.45312 0.34375,-0.71875 0.34375,-2.10938 l 0,-0.78125 z m 10.0039,4.35938 0.3125,1.85937 q -0.89062,0.20313 -1.59375,0.20313 -1.15625,0 -1.79687,-0.35938 -0.625,-0.375 -0.89063,-0.96875 -0.25,-0.59375 -0.25,-2.48437 l 0,-7.17188 -1.54687,0 0,-1.64062 1.54687,0 0,-3.07813 2.09375,-1.26562 0,4.34375 2.125,0 0,1.64062 -2.125,0 0,7.28125 q 0,0.90625 0.10938,1.17188 0.125,0.25 0.375,0.40625 0.25,0.14062 0.71875,0.14062 0.34375,0 0.92187,-0.0781 z m 10.1836,0.35937 q -1.17188,0.98438 -2.26563,1.40625 -1.07812,0.40625 -2.3125,0.40625 -2.04687,0 -3.15625,-1 -1.09375,-1 -1.09375,-2.5625 0,-0.92187 0.40625,-1.67187 0.42188,-0.75 1.09375,-1.20313 0.67188,-0.46875 1.51563,-0.70312 0.625,-0.15625 1.875,-0.3125 2.5625,-0.3125 3.76562,-0.73438 0.0156,-0.42187 0.0156,-0.54687 0,-1.28125 -0.60938,-1.8125 -0.79687,-0.71875 -2.39062,-0.71875 -1.5,0 -2.20313,0.53125 -0.70312,0.51562 -1.04687,1.84375 l -2.0625,-0.28125 q 0.28125,-1.32813 0.92187,-2.14063 0.64063,-0.8125 1.85938,-1.25 1.21875,-0.45312 2.82812,-0.45312 1.59375,0 2.59375,0.375 1,0.375 1.46875,0.95312 0.46875,0.5625 0.65625,1.4375 0.0937,0.53125 0.0937,1.9375 l 0,2.8125 q 0,2.9375 0.14063,3.71875 0.14062,0.78125 0.53125,1.5 l -2.20313,0 q -0.32812,-0.65625 -0.42187,-1.53125 z m -0.17188,-4.71875 q -1.15625,0.46875 -3.45312,0.79688 -1.29688,0.1875 -1.84375,0.42187 -0.53125,0.23438 -0.82813,0.6875 -0.28125,0.45313 -0.28125,1 0,0.84375 0.625,1.40625 0.64063,0.5625 1.875,0.5625 1.21875,0 2.17188,-0.53125 0.95312,-0.53125 1.39062,-1.45312 0.34375,-0.71875 0.34375,-2.10938 l 0,-0.78125 z"
       id="path121"
       inkscape:connector-curvature="0"
       style="fill:#000000;fill-rule:nonzero" />
    <path
       d="m 305.69357,407.4459 6.59375,-17.1875 2.45313,0 7.03125,17.1875 -2.59375,0 -2,-5.20313 -7.1875,0 -1.89063,5.20313 -2.40625,0 z m 4.95313,-7.0625 5.82812,0 -1.79687,-4.75 q -0.8125,-2.17188 -1.21875,-3.5625 -0.32813,1.65625 -0.92188,3.28125 l -1.89062,5.03125 z m 20.78906,2.5 2.07812,0.26562 q -0.34375,2.15625 -1.75,3.375 -1.39062,1.20313 -3.4375,1.20313 -2.54687,0 -4.10937,-1.67188 -1.54688,-1.67187 -1.54688,-4.78125 0,-2.01562 0.67188,-3.53125 0.67187,-1.51562 2.03125,-2.26562 1.35937,-0.76563 2.96875,-0.76563 2.03125,0 3.3125,1.03125 1.29687,1.03125 1.65625,2.90625 l -2.04688,0.32813 q -0.29687,-1.26563 -1.04687,-1.89063 -0.73438,-0.64062 -1.79688,-0.64062 -1.59375,0 -2.59375,1.15625 -0.98437,1.14062 -0.98437,3.60937 0,2.5 0.95312,3.64063 0.96875,1.14062 2.51563,1.14062 1.23437,0 2.0625,-0.76562 0.84375,-0.76563 1.0625,-2.34375 z m 11.8125,9.32812 0,-6.09375 q -0.48438,0.6875 -1.375,1.15625 -0.89063,0.45313 -1.875,0.45313 -2.21875,0 -3.82813,-1.76563 -1.59375,-1.78125 -1.59375,-4.85937 0,-1.875 0.64063,-3.35938 0.65625,-1.48437 1.89062,-2.25 1.25,-0.78125 2.71875,-0.78125 2.3125,0 3.64063,1.95313 l 0,-1.67188 1.89062,0 0,17.21875 -2.10937,0 z m -6.5,-11.03125 q 0,2.40625 1,3.60938 1.01562,1.20312 2.42187,1.20312 1.34375,0 2.3125,-1.14062 0.98438,-1.14063 0.98438,-3.48438 0,-2.48437 -1.03125,-3.73437 -1.03125,-1.25 -2.40625,-1.25 -1.375,0 -2.32813,1.17187 -0.95312,1.15625 -0.95312,3.625 z m 20.0664,6.26563 0,-1.82813 q -1.45312,2.10938 -3.9375,2.10938 -1.10937,0 -2.0625,-0.42188 -0.95312,-0.42187 -1.42187,-1.0625 -0.45313,-0.64062 -0.64063,-1.5625 -0.14062,-0.625 -0.14062,-1.96875 l 0,-7.71875 2.10937,0 0,6.90625 q 0,1.65625 0.14063,2.23438 0.1875,0.82812 0.82812,1.3125 0.65625,0.46875 1.60938,0.46875 0.9375,0 1.76562,-0.48438 0.84375,-0.5 1.1875,-1.32812 0.34375,-0.84375 0.34375,-2.4375 l 0,-6.67188 2.10938,0 0,12.45313 -1.89063,0 z m 5.20703,-14.75 0,-2.4375 2.10938,0 0,2.4375 -2.10938,0 z m 0,14.75 0,-12.45313 2.10938,0 0,12.45313 -2.10938,0 z m 4.47266,-3.71875 2.09375,-0.32813 q 0.17188,1.25 0.96875,1.92188 0.8125,0.67187 2.25,0.67187 1.45313,0 2.15625,-0.59375 0.70313,-0.59375 0.70313,-1.39062 0,-0.71875 -0.625,-1.125 -0.42188,-0.28125 -2.15625,-0.71875 -2.3125,-0.57813 -3.21875,-1 -0.89063,-0.4375 -1.35938,-1.1875 -0.45312,-0.76563 -0.45312,-1.67188 0,-0.82812 0.375,-1.53125 0.39062,-0.71875 1.04687,-1.1875 0.48438,-0.35937 1.32813,-0.60937 0.85937,-0.26563 1.82812,-0.26563 1.46875,0 2.57813,0.42188 1.10937,0.42187 1.625,1.15625 0.53125,0.71875 0.73437,1.92187 l -2.0625,0.28125 q -0.14062,-0.96875 -0.8125,-1.5 -0.67187,-0.54687 -1.90625,-0.54687 -1.45312,0 -2.07812,0.48437 -0.625,0.48438 -0.625,1.125 0,0.40625 0.26562,0.73438 0.25,0.34375 0.8125,0.5625 0.3125,0.125 1.85938,0.54687 2.23437,0.59375 3.10937,0.98438 0.89063,0.375 1.39063,1.10937 0.51562,0.71875 0.51562,1.79688 0,1.04687 -0.625,1.98437 -0.60937,0.9375 -1.76562,1.45313 -1.15625,0.5 -2.625,0.5 -2.42188,0 -3.70313,-1 -1.26562,-1.01563 -1.625,-3 z m 12.85938,-11.03125 0,-2.4375 2.10937,0 0,2.4375 -2.10937,0 z m 0,14.75 0,-12.45313 2.10937,0 0,12.45313 -2.10937,0 z m 9.92578,-1.89063 0.3125,1.85938 q -0.89063,0.20312 -1.59375,0.20312 -1.15625,0 -1.79688,-0.35937 -0.625,-0.375 -0.89062,-0.96875 -0.25,-0.59375 -0.25,-2.48438 l 0,-7.17187 -1.54688,0 0,-1.64063 1.54688,0 0,-3.07812 2.09375,-1.26563 0,4.34375 2.125,0 0,1.64063 -2.125,0 0,7.28125 q 0,0.90625 0.10937,1.17187 0.125,0.25 0.375,0.40625 0.25,0.14063 0.71875,0.14063 0.34375,0 0.92188,-0.0781 z m 2.07422,-12.85937 0,-2.4375 2.10937,0 0,2.4375 -2.10937,0 z m 0,14.75 0,-12.45313 2.10937,0 0,12.45313 -2.10937,0 z m 4.53515,-6.21875 q 0,-3.46875 1.92188,-5.125 1.60937,-1.39063 3.92187,-1.39063 2.5625,0 4.1875,1.6875 1.625,1.6875 1.625,4.64063 0,2.40625 -0.71875,3.78125 -0.71875,1.375 -2.09375,2.14062 -1.375,0.76563 -3,0.76563 -2.625,0 -4.23437,-1.67188 -1.60938,-1.6875 -1.60938,-4.82812 z m 2.17188,0 q 0,2.39062 1.03125,3.57812 1.04687,1.1875 2.64062,1.1875 1.5625,0 2.60938,-1.1875 1.04687,-1.20312 1.04687,-3.65625 0,-2.3125 -1.0625,-3.5 -1.04687,-1.1875 -2.59375,-1.1875 -1.59375,0 -2.64062,1.1875 -1.03125,1.1875 -1.03125,3.57813 z m 11.95703,6.21875 0,-12.45313 1.90625,0 0,1.78125 q 1.375,-2.0625 3.95312,-2.0625 1.125,0 2.0625,0.40625 0.95313,0.40625 1.42188,1.0625 0.46875,0.65625 0.65625,1.5625 0.125,0.57813 0.125,2.04688 l 0,7.65625 -2.10938,0 0,-7.57813 q 0,-1.28125 -0.25,-1.92187 -0.25,-0.64063 -0.875,-1.01563 -0.625,-0.39062 -1.46875,-0.39062 -1.34375,0 -2.32812,0.85937 -0.98438,0.85938 -0.98438,3.25 l 0,6.79688 -2.10937,0 z"
       id="path123"
       inkscape:connector-curvature="0"
       style="fill:#000000;fill-rule:nonzero" />
    <path
       d="m 324.8264,429.52402 2.14062,-0.1875 q 0.15625,1.28125 0.70313,2.10937 0.5625,0.82813 1.73437,1.34375 1.17188,0.5 2.64063,0.5 1.29687,0 2.29687,-0.375 1,-0.39062 1.48438,-1.0625 0.48437,-0.6875 0.48437,-1.48437 0,-0.79688 -0.46875,-1.40625 -0.46875,-0.60938 -1.54687,-1.01563 -0.6875,-0.26562 -3.0625,-0.82812 -2.35938,-0.57813 -3.3125,-1.07813 -1.23438,-0.64062 -1.84375,-1.59375 -0.59375,-0.96875 -0.59375,-2.14062 0,-1.3125 0.73437,-2.4375 0.75,-1.125 2.15625,-1.70313 1.42188,-0.59375 3.15625,-0.59375 1.90625,0 3.35938,0.60938 1.46875,0.60937 2.25,1.8125 0.79687,1.1875 0.84375,2.70312 l -2.17188,0.17188 q -0.17187,-1.64063 -1.1875,-2.46875 -1.01562,-0.82813 -3,-0.82813 -2.0625,0 -3.01562,0.76563 -0.9375,0.75 -0.9375,1.8125 0,0.92187 0.67187,1.51562 0.65625,0.60938 3.42188,1.23438 2.78125,0.625 3.8125,1.09375 1.5,0.6875 2.20312,1.75 0.71875,1.0625 0.71875,2.4375 0,1.375 -0.78125,2.59375 -0.78125,1.20312 -2.25,1.89062 -1.46875,0.67188 -3.3125,0.67188 -2.32812,0 -3.90625,-0.67188 -1.57812,-0.6875 -2.48437,-2.04687 -0.89063,-1.375 -0.9375,-3.09375 z m 16.41406,10.3125 -0.23437,-1.98438 q 0.70312,0.1875 1.21875,0.1875 0.70312,0 1.125,-0.23437 0.42187,-0.23438 0.6875,-0.65625 0.20312,-0.3125 0.64062,-1.5625 0.0625,-0.1875 0.1875,-0.51563 l -4.71875,-12.48437 2.26563,0 2.59375,7.21875 q 0.5,1.35937 0.90625,2.875 0.35937,-1.45313 0.85937,-2.82813 l 2.67188,-7.26562 2.10937,0 -4.73437,12.67187 q -0.76563,2.04688 -1.1875,2.8125 -0.5625,1.04688 -1.29688,1.53125 -0.71875,0.48438 -1.73437,0.48438 -0.60938,0 -1.35938,-0.25 z m 11.25,-8.51563 2.09375,-0.32812 q 0.17188,1.25 0.96875,1.92187 0.8125,0.67188 2.25,0.67188 1.45313,0 2.15625,-0.59375 0.70313,-0.59375 0.70313,-1.39063 0,-0.71875 -0.625,-1.125 -0.42188,-0.28125 -2.15625,-0.71875 -2.3125,-0.57812 -3.21875,-1 -0.89063,-0.4375 -1.35938,-1.1875 -0.45312,-0.76562 -0.45312,-1.67187 0,-0.82813 0.375,-1.53125 0.39062,-0.71875 1.04687,-1.1875 0.48438,-0.35938 1.32813,-0.60938 0.85937,-0.26562 1.82812,-0.26562 1.46875,0 2.57813,0.42187 1.10937,0.42188 1.625,1.15625 0.53125,0.71875 0.73437,1.92188 l -2.0625,0.28125 q -0.14062,-0.96875 -0.8125,-1.5 -0.67187,-0.54688 -1.90625,-0.54688 -1.45312,0 -2.07812,0.48438 -0.625,0.48437 -0.625,1.125 0,0.40625 0.26562,0.73437 0.25,0.34375 0.8125,0.5625 0.3125,0.125 1.85938,0.54688 2.23437,0.59375 3.10937,0.98437 0.89063,0.375 1.39063,1.10938 0.51562,0.71875 0.51562,1.79687 0,1.04688 -0.625,1.98438 -0.60937,0.9375 -1.76562,1.45312 -1.15625,0.5 -2.625,0.5 -2.42188,0 -3.70313,-1 -1.26562,-1.01562 -1.625,-3 z m 17.45313,1.82813 0.3125,1.85937 q -0.89063,0.20313 -1.59375,0.20313 -1.15625,0 -1.79688,-0.35938 -0.625,-0.375 -0.89062,-0.96875 -0.25,-0.59375 -0.25,-2.48437 l 0,-7.17188 -1.54688,0 0,-1.64062 1.54688,0 0,-3.07813 2.09375,-1.26562 0,4.34375 2.125,0 0,1.64062 -2.125,0 0,7.28125 q 0,0.90625 0.10937,1.17188 0.125,0.25 0.375,0.40625 0.25,0.14062 0.71875,0.14062 0.34375,0 0.92188,-0.0781 z m 10.58984,-2.125 2.17188,0.28125 q -0.51563,1.90625 -1.90625,2.96875 -1.39063,1.04687 -3.5625,1.04687 -2.73438,0 -4.34375,-1.67187 -1.59375,-1.6875 -1.59375,-4.73438 0,-3.14062 1.60937,-4.875 1.625,-1.73437 4.20313,-1.73437 2.5,0 4.07812,1.70312 1.59375,1.70313 1.59375,4.78125 0,0.1875 -0.0156,0.5625 l -9.28125,0 q 0.10937,2.04688 1.15625,3.14063 1.04687,1.09375 2.60937,1.09375 1.15625,0 1.96875,-0.60938 0.82813,-0.60937 1.3125,-1.95312 z m -6.9375,-3.40625 6.95313,0 q -0.14063,-1.5625 -0.79688,-2.35938 -1,-1.21875 -2.60937,-1.21875 -1.45313,0 -2.45313,0.98438 -0.98437,0.96875 -1.09375,2.59375 z m 11.75391,7.42187 0,-12.45312 1.89062,0 0,1.75 q 0.59375,-0.90625 1.5625,-1.46875 0.96875,-0.5625 2.21875,-0.5625 1.375,0 2.25,0.57812 0.89063,0.57813 1.26563,1.60938 1.46875,-2.1875 3.84375,-2.1875 1.84375,0 2.84375,1.03125 1,1.03125 1,3.15625 l 0,8.54687 -2.10938,0 0,-7.84375 q 0,-1.26562 -0.20312,-1.8125 -0.20313,-0.5625 -0.75,-0.90625 -0.53125,-0.34375 -1.25,-0.34375 -1.3125,0 -2.1875,0.875 -0.85938,0.875 -0.85938,2.79688 l 0,7.23437 -2.10937,0 0,-8.09375 q 0,-1.40625 -0.51563,-2.10937 -0.51562,-0.70313 -1.6875,-0.70313 -0.89062,0 -1.65625,0.46875 -0.75,0.46875 -1.09375,1.375 -0.34375,0.90625 -0.34375,2.60938 l 0,6.45312 -2.10937,0 z"
       id="path125"
       inkscape:connector-curvature="0"
       style="fill:#000000;fill-rule:nonzero" />
  </g>
  <g
     id="g3265"
     transform="translate(-63.47725,-241.41733)">
    <path
       d="m 86.79749,460.63986 2.140625,-0.1875 q 0.15625,1.28125 0.703125,2.10937 0.5625,0.82813 1.734375,1.34375 1.171875,0.5 2.640625,0.5 1.296875,0 2.296875,-0.375 1,-0.39062 1.484375,-1.0625 0.484375,-0.6875 0.484375,-1.48437 0,-0.79688 -0.46875,-1.40625 -0.46875,-0.60938 -1.546875,-1.01563 -0.6875,-0.26562 -3.0625,-0.82812 -2.359375,-0.57813 -3.3125,-1.07813 -1.234375,-0.64062 -1.84375,-1.59375 -0.59375,-0.96875 -0.59375,-2.14062 0,-1.3125 0.734375,-2.4375 0.75,-1.125 2.15625,-1.70313 1.421875,-0.59375 3.15625,-0.59375 1.90625,0 3.359375,0.60938 1.46875,0.60937 2.25,1.8125 0.796875,1.1875 0.84375,2.70312 l -2.171875,0.17188 q -0.171875,-1.64063 -1.1875,-2.46875 -1.015625,-0.82813 -3,-0.82813 -2.0625,0 -3.015625,0.76563 -0.9375,0.75 -0.9375,1.8125 0,0.92187 0.671875,1.51562 0.65625,0.60938 3.421875,1.23438 2.78125,0.625 3.8125,1.09375 1.5,0.6875 2.203125,1.75 0.718745,1.0625 0.718745,2.4375 0,1.375 -0.781245,2.59375 -0.78125,1.20312 -2.25,1.89062 -1.46875,0.67188 -3.3125,0.67188 -2.328125,0 -3.90625,-0.67188 -1.578125,-0.6875 -2.484375,-2.04687 -0.890625,-1.375 -0.9375,-3.09375 z m 25.03906,1.5 2.17188,0.28125 q -0.51563,1.90625 -1.90625,2.96875 -1.39063,1.04687 -3.5625,1.04687 -2.73438,0 -4.34375,-1.67187 -1.59375,-1.6875 -1.59375,-4.73438 0,-3.14062 1.60937,-4.875 1.625,-1.73437 4.20313,-1.73437 2.5,0 4.07812,1.70312 1.59375,1.70313 1.59375,4.78125 0,0.1875 -0.0156,0.5625 l -9.28125,0 q 0.10937,2.04688 1.15625,3.14063 1.04687,1.09375 2.60937,1.09375 1.15625,0 1.96875,-0.60938 0.82813,-0.60937 1.3125,-1.95312 z m -6.9375,-3.40625 6.95313,0 q -0.14063,-1.5625 -0.79688,-2.35938 -1,-1.21875 -2.60937,-1.21875 -1.45313,0 -2.45313,0.98438 -0.98437,0.96875 -1.09375,2.59375 z m 11.75391,7.42187 0,-12.45312 1.90625,0 0,1.78125 q 1.375,-2.0625 3.95312,-2.0625 1.125,0 2.0625,0.40625 0.95313,0.40625 1.42188,1.0625 0.46875,0.65625 0.65625,1.5625 0.125,0.57812 0.125,2.04687 l 0,7.65625 -2.10938,0 0,-7.57812 q 0,-1.28125 -0.25,-1.92188 -0.25,-0.64062 -0.875,-1.01562 -0.625,-0.39063 -1.46875,-0.39063 -1.34375,0 -2.32812,0.85938 -0.98438,0.85937 -0.98438,3.25 l 0,6.79687 -2.10937,0 z m 12.5039,-3.71875 2.09375,-0.32812 q 0.17187,1.25 0.96875,1.92187 0.8125,0.67188 2.25,0.67188 1.45312,0 2.15625,-0.59375 0.70312,-0.59375 0.70312,-1.39063 0,-0.71875 -0.625,-1.125 -0.42187,-0.28125 -2.15625,-0.71875 -2.3125,-0.57812 -3.21875,-1 -0.89062,-0.4375 -1.35937,-1.1875 -0.45313,-0.76562 -0.45313,-1.67187 0,-0.82813 0.375,-1.53125 0.39063,-0.71875 1.04688,-1.1875 0.48437,-0.35938 1.32812,-0.60938 0.85938,-0.26562 1.82813,-0.26562 1.46875,0 2.57812,0.42187 1.10938,0.42188 1.625,1.15625 0.53125,0.71875 0.73438,1.92188 l -2.0625,0.28125 q -0.14063,-0.96875 -0.8125,-1.5 -0.67188,-0.54688 -1.90625,-0.54688 -1.45313,0 -2.07813,0.48438 -0.625,0.48437 -0.625,1.125 0,0.40625 0.26563,0.73437 0.25,0.34375 0.8125,0.5625 0.3125,0.125 1.85937,0.54688 2.23438,0.59375 3.10938,0.98437 0.89062,0.375 1.39062,1.10938 0.51563,0.71875 0.51563,1.79687 0,1.04688 -0.625,1.98438 -0.60938,0.9375 -1.76563,1.45312 -1.15625,0.5 -2.625,0.5 -2.42187,0 -3.70312,-1 -1.26563,-1.01562 -1.625,-3 z m 12.0625,-2.5 q 0,-3.46875 1.92187,-5.125 1.60938,-1.39062 3.92188,-1.39062 2.5625,0 4.1875,1.6875 1.625,1.6875 1.625,4.64062 0,2.40625 -0.71875,3.78125 -0.71875,1.375 -2.09375,2.14063 -1.375,0.76562 -3,0.76562 -2.625,0 -4.23438,-1.67187 -1.60937,-1.6875 -1.60937,-4.82813 z m 2.17187,0 q 0,2.39063 1.03125,3.57813 1.04688,1.1875 2.64063,1.1875 1.5625,0 2.60937,-1.1875 1.04688,-1.20313 1.04688,-3.65625 0,-2.3125 -1.0625,-3.5 -1.04688,-1.1875 -2.59375,-1.1875 -1.59375,0 -2.64063,1.1875 -1.03125,1.1875 -1.03125,3.57812 z m 11.94141,6.21875 0,-12.45312 1.89062,0 0,1.89062 q 0.73438,-1.32812 1.34375,-1.75 0.625,-0.42187 1.35938,-0.42187 1.0625,0 2.17187,0.6875 l -0.73437,1.95312 q -0.76563,-0.45312 -1.54688,-0.45312 -0.6875,0 -1.25,0.42187 -0.54687,0.40625 -0.78125,1.14063 -0.34375,1.125 -0.34375,2.46875 l 0,6.51562 -2.10937,0 z m 7.16406,-3.71875 2.09375,-0.32812 q 0.17188,1.25 0.96875,1.92187 0.8125,0.67188 2.25,0.67188 1.45313,0 2.15625,-0.59375 0.70313,-0.59375 0.70313,-1.39063 0,-0.71875 -0.625,-1.125 -0.42188,-0.28125 -2.15625,-0.71875 -2.3125,-0.57812 -3.21875,-1 -0.89063,-0.4375 -1.35938,-1.1875 -0.45312,-0.76562 -0.45312,-1.67187 0,-0.82813 0.375,-1.53125 0.39062,-0.71875 1.04687,-1.1875 0.48438,-0.35938 1.32813,-0.60938 0.85937,-0.26562 1.82812,-0.26562 1.46875,0 2.57813,0.42187 1.10937,0.42188 1.625,1.15625 0.53125,0.71875 0.73437,1.92188 l -2.0625,0.28125 q -0.14062,-0.96875 -0.8125,-1.5 -0.67187,-0.54688 -1.90625,-0.54688 -1.45312,0 -2.07812,0.48438 -0.625,0.48437 -0.625,1.125 0,0.40625 0.26562,0.73437 0.25,0.34375 0.8125,0.5625 0.3125,0.125 1.85938,0.54688 2.23437,0.59375 3.10937,0.98437 0.89063,0.375 1.39063,1.10938 0.51562,0.71875 0.51562,1.79687 0,1.04688 -0.625,1.98438 -0.60937,0.9375 -1.76562,1.45312 -1.15625,0.5 -2.625,0.5 -2.42188,0 -3.70313,-1 -1.26562,-1.01562 -1.625,-3 z"
       id="path131"
       inkscape:connector-curvature="0"
       style="fill:#000000;fill-rule:nonzero" />
  </g>
  <g
     id="g3268"
     transform="translate(-63.47725,-241.41733)">
    <path
       d="m 86.79749,381.52872 2.140625,-0.1875 q 0.15625,1.28125 0.703125,2.10938 0.5625,0.82812 1.734375,1.34375 1.171875,0.5 2.640625,0.5 1.296875,0 2.296875,-0.375 1,-0.39063 1.484375,-1.0625 0.484375,-0.6875 0.484375,-1.48438 0,-0.79687 -0.46875,-1.40625 -0.46875,-0.60937 -1.546875,-1.01562 -0.6875,-0.26563 -3.0625,-0.82813 -2.359375,-0.57812 -3.3125,-1.07812 -1.234375,-0.64063 -1.84375,-1.59375 -0.59375,-0.96875 -0.59375,-2.14063 0,-1.3125 0.734375,-2.4375 0.75,-1.125 2.15625,-1.70312 1.421875,-0.59375 3.15625,-0.59375 1.90625,0 3.359375,0.60937 1.46875,0.60938 2.25,1.8125 0.796875,1.1875 0.84375,2.70313 l -2.171875,0.17187 q -0.171875,-1.64062 -1.1875,-2.46875 -1.015625,-0.82812 -3,-0.82812 -2.0625,0 -3.015625,0.76562 -0.9375,0.75 -0.9375,1.8125 0,0.92188 0.671875,1.51563 0.65625,0.60937 3.421875,1.23437 2.78125,0.625 3.8125,1.09375 1.5,0.6875 2.203125,1.75 0.718745,1.0625 0.718745,2.4375 0,1.375 -0.781245,2.59375 -0.78125,1.20313 -2.25,1.89063 -1.46875,0.67187 -3.3125,0.67187 -2.328125,0 -3.90625,-0.67187 -1.578125,-0.6875 -2.484375,-2.04688 -0.890625,-1.375 -0.9375,-3.09375 z m 25.03906,1.5 2.17188,0.28125 q -0.51563,1.90625 -1.90625,2.96875 -1.39063,1.04688 -3.5625,1.04688 -2.73438,0 -4.34375,-1.67188 -1.59375,-1.6875 -1.59375,-4.73437 0,-3.14063 1.60937,-4.875 1.625,-1.73438 4.20313,-1.73438 2.5,0 4.07812,1.70313 1.59375,1.70312 1.59375,4.78125 0,0.1875 -0.0156,0.5625 l -9.28125,0 q 0.10937,2.04687 1.15625,3.14062 1.04687,1.09375 2.60937,1.09375 1.15625,0 1.96875,-0.60937 0.82813,-0.60938 1.3125,-1.95313 z m -6.9375,-3.40625 6.95313,0 q -0.14063,-1.5625 -0.79688,-2.35937 -1,-1.21875 -2.60937,-1.21875 -1.45313,0 -2.45313,0.98437 -0.98437,0.96875 -1.09375,2.59375 z m 11.75391,7.42188 0,-12.45313 1.90625,0 0,1.78125 q 1.375,-2.0625 3.95312,-2.0625 1.125,0 2.0625,0.40625 0.95313,0.40625 1.42188,1.0625 0.46875,0.65625 0.65625,1.5625 0.125,0.57813 0.125,2.04688 l 0,7.65625 -2.10938,0 0,-7.57813 q 0,-1.28125 -0.25,-1.92187 -0.25,-0.64063 -0.875,-1.01563 -0.625,-0.39062 -1.46875,-0.39062 -1.34375,0 -2.32812,0.85937 -0.98438,0.85938 -0.98438,3.25 l 0,6.79688 -2.10937,0 z m 12.5039,-3.71875 2.09375,-0.32813 q 0.17187,1.25 0.96875,1.92188 0.8125,0.67187 2.25,0.67187 1.45312,0 2.15625,-0.59375 0.70312,-0.59375 0.70312,-1.39062 0,-0.71875 -0.625,-1.125 -0.42187,-0.28125 -2.15625,-0.71875 -2.3125,-0.57813 -3.21875,-1 -0.89062,-0.4375 -1.35937,-1.1875 -0.45313,-0.76563 -0.45313,-1.67188 0,-0.82812 0.375,-1.53125 0.39063,-0.71875 1.04688,-1.1875 0.48437,-0.35937 1.32812,-0.60937 0.85938,-0.26563 1.82813,-0.26563 1.46875,0 2.57812,0.42188 1.10938,0.42187 1.625,1.15625 0.53125,0.71875 0.73438,1.92187 l -2.0625,0.28125 q -0.14063,-0.96875 -0.8125,-1.5 -0.67188,-0.54687 -1.90625,-0.54687 -1.45313,0 -2.07813,0.48437 -0.625,0.48438 -0.625,1.125 0,0.40625 0.26563,0.73438 0.25,0.34375 0.8125,0.5625 0.3125,0.125 1.85937,0.54687 2.23438,0.59375 3.10938,0.98438 0.89062,0.375 1.39062,1.10937 0.51563,0.71875 0.51563,1.79688 0,1.04687 -0.625,1.98437 -0.60938,0.9375 -1.76563,1.45313 -1.15625,0.5 -2.625,0.5 -2.42187,0 -3.70312,-1 -1.26563,-1.01563 -1.625,-3 z m 12.0625,-2.5 q 0,-3.46875 1.92187,-5.125 1.60938,-1.39063 3.92188,-1.39063 2.5625,0 4.1875,1.6875 1.625,1.6875 1.625,4.64063 0,2.40625 -0.71875,3.78125 -0.71875,1.375 -2.09375,2.14062 -1.375,0.76563 -3,0.76563 -2.625,0 -4.23438,-1.67188 -1.60937,-1.6875 -1.60937,-4.82812 z m 2.17187,0 q 0,2.39062 1.03125,3.57812 1.04688,1.1875 2.64063,1.1875 1.5625,0 2.60937,-1.1875 1.04688,-1.20312 1.04688,-3.65625 0,-2.3125 -1.0625,-3.5 -1.04688,-1.1875 -2.59375,-1.1875 -1.59375,0 -2.64063,1.1875 -1.03125,1.1875 -1.03125,3.57813 z m 11.94141,6.21875 0,-12.45313 1.89062,0 0,1.89063 q 0.73438,-1.32813 1.34375,-1.75 0.625,-0.42188 1.35938,-0.42188 1.0625,0 2.17187,0.6875 l -0.73437,1.95313 q -0.76563,-0.45313 -1.54688,-0.45313 -0.6875,0 -1.25,0.42188 -0.54687,0.40625 -0.78125,1.14062 -0.34375,1.125 -0.34375,2.46875 l 0,6.51563 -2.10937,0 z m 7.16406,-3.71875 2.09375,-0.32813 q 0.17188,1.25 0.96875,1.92188 0.8125,0.67187 2.25,0.67187 1.45313,0 2.15625,-0.59375 0.70313,-0.59375 0.70313,-1.39062 0,-0.71875 -0.625,-1.125 -0.42188,-0.28125 -2.15625,-0.71875 -2.3125,-0.57813 -3.21875,-1 -0.89063,-0.4375 -1.35938,-1.1875 -0.45312,-0.76563 -0.45312,-1.67188 0,-0.82812 0.375,-1.53125 0.39062,-0.71875 1.04687,-1.1875 0.48438,-0.35937 1.32813,-0.60937 0.85937,-0.26563 1.82812,-0.26563 1.46875,0 2.57813,0.42188 1.10937,0.42187 1.625,1.15625 0.53125,0.71875 0.73437,1.92187 l -2.0625,0.28125 q -0.14062,-0.96875 -0.8125,-1.5 -0.67187,-0.54687 -1.90625,-0.54687 -1.45312,0 -2.07812,0.48437 -0.625,0.48438 -0.625,1.125 0,0.40625 0.26562,0.73438 0.25,0.34375 0.8125,0.5625 0.3125,0.125 1.85938,0.54687 2.23437,0.59375 3.10937,0.98438 0.89063,0.375 1.39063,1.10937 0.51562,0.71875 0.51562,1.79688 0,1.04687 -0.625,1.98437 -0.60937,0.9375 -1.76562,1.45313 -1.15625,0.5 -2.625,0.5 -2.42188,0 -3.70313,-1 -1.26562,-1.01563 -1.625,-3 z"
       id="path141"
       inkscape:connector-curvature="0"
       style="fill:#000000;fill-rule:nonzero" />
  </g>
</svg>
